<svg xmlns="http://www.w3.org/2000/svg" xmlns:xlink="http://www.w3.org/1999/xlink" width="500" zoomAndPan="magnify" viewBox="0 0 375 374.999991" height="500" preserveAspectRatio="xMidYMid meet" version="1.0"><defs><clipPath id="6dc64c7ef1"><path d="M 81 59 L 294 59 L 294 342.402344 L 81 342.402344 Z M 81 59 " clip-rule="nonzero"/></clipPath><clipPath id="bebe2fbcfd"><path d="M 54.609375 32.652344 L 320 32.652344 L 320 342.402344 L 54.609375 342.402344 Z M 54.609375 32.652344 " clip-rule="nonzero"/></clipPath></defs><g clip-path="url(#6dc64c7ef1)"><path fill="#000000" d="M 187.359375 59.195312 C 185.625 59.199219 183.890625 59.242188 182.15625 59.328125 C 180.425781 59.417969 178.695312 59.546875 176.96875 59.71875 C 175.242188 59.890625 173.519531 60.105469 171.800781 60.359375 C 170.085938 60.617188 168.375 60.917969 166.675781 61.257812 C 164.972656 61.597656 163.28125 61.980469 161.597656 62.402344 C 159.914062 62.824219 158.242188 63.289062 156.582031 63.796875 C 154.921875 64.300781 153.273438 64.847656 151.640625 65.433594 C 150.007812 66.019531 148.386719 66.644531 146.785156 67.3125 C 145.183594 67.976562 143.597656 68.683594 142.027344 69.425781 C 140.460938 70.171875 138.910156 70.953125 137.378906 71.773438 C 135.847656 72.589844 134.339844 73.449219 132.851562 74.34375 C 131.363281 75.234375 129.898438 76.164062 128.453125 77.132812 C 127.011719 78.097656 125.59375 79.097656 124.199219 80.132812 C 122.804688 81.167969 121.4375 82.238281 120.097656 83.339844 C 118.757812 84.441406 117.441406 85.578125 116.15625 86.746094 C 114.871094 87.910156 113.613281 89.109375 112.386719 90.335938 C 111.160156 91.566406 109.964844 92.824219 108.796875 94.113281 C 107.632812 95.398438 106.5 96.714844 105.398438 98.058594 C 104.296875 99.402344 103.230469 100.769531 102.195312 102.164062 C 101.160156 103.5625 100.160156 104.980469 99.195312 106.425781 C 98.230469 107.871094 97.304688 109.335938 96.410156 110.828125 C 95.519531 112.316406 94.660156 113.828125 93.84375 115.359375 C 93.023438 116.890625 92.242188 118.445312 91.5 120.015625 C 90.757812 121.585938 90.054688 123.171875 89.390625 124.777344 C 88.722656 126.382812 88.097656 128.003906 87.511719 129.636719 C 86.925781 131.273438 86.382812 132.921875 85.875 134.585938 C 85.371094 136.246094 84.90625 137.921875 84.484375 139.605469 C 84.0625 141.292969 83.679688 142.988281 83.339844 144.691406 C 83 146.394531 82.703125 148.105469 82.445312 149.824219 C 82.191406 151.542969 81.976562 153.265625 81.804688 154.996094 C 81.632812 156.726562 81.503906 158.457031 81.417969 160.191406 C 81.328125 161.929688 81.285156 163.664062 81.28125 165.402344 L 81.28125 342.449219 L 90.128906 342.449219 L 90.128906 276.03125 L 182.945312 276.03125 L 182.945312 342.449219 L 191.765625 342.449219 L 191.765625 276.03125 L 284.59375 276.03125 L 284.59375 342.449219 L 293.425781 342.449219 L 293.425781 165.402344 C 293.425781 163.664062 293.382812 161.929688 293.292969 160.191406 C 293.207031 158.457031 293.078125 156.726562 292.90625 154.996094 C 292.734375 153.269531 292.519531 151.542969 292.265625 149.824219 C 292.007812 148.105469 291.710938 146.394531 291.371094 144.691406 C 291.03125 142.988281 290.648438 141.292969 290.226562 139.609375 C 289.804688 137.921875 289.339844 136.25 288.835938 134.585938 C 288.328125 132.925781 287.785156 131.277344 287.199219 129.640625 C 286.613281 128.003906 285.988281 126.386719 285.324219 124.78125 C 284.65625 123.175781 283.953125 121.585938 283.210938 120.015625 C 282.46875 118.445312 281.6875 116.894531 280.867188 115.363281 C 280.050781 113.832031 279.195312 112.320312 278.300781 110.832031 C 277.410156 109.339844 276.480469 107.875 275.515625 106.429688 C 274.550781 104.984375 273.550781 103.566406 272.519531 102.167969 C 271.484375 100.773438 270.417969 99.40625 269.316406 98.0625 C 268.214844 96.71875 267.082031 95.402344 265.917969 94.117188 C 264.75 92.828125 263.554688 91.570312 262.328125 90.34375 C 261.101562 89.113281 259.84375 87.914062 258.558594 86.75 C 257.273438 85.582031 255.960938 84.445312 254.617188 83.34375 C 253.277344 82.242188 251.910156 81.171875 250.515625 80.136719 C 249.121094 79.101562 247.703125 78.101562 246.261719 77.136719 C 244.820312 76.167969 243.351562 75.238281 241.867188 74.347656 C 240.378906 73.453125 238.867188 72.59375 237.339844 71.777344 C 235.808594 70.957031 234.257812 70.175781 232.691406 69.429688 C 231.121094 68.6875 229.535156 67.980469 227.933594 67.316406 C 226.332031 66.648438 224.710938 66.023438 223.078125 65.4375 C 221.445312 64.851562 219.796875 64.304688 218.136719 63.796875 C 216.476562 63.292969 214.804688 62.828125 213.125 62.40625 C 211.441406 61.980469 209.746094 61.597656 208.046875 61.257812 C 206.34375 60.917969 204.636719 60.621094 202.917969 60.363281 C 201.203125 60.105469 199.480469 59.890625 197.753906 59.71875 C 196.027344 59.546875 194.296875 59.417969 192.5625 59.332031 C 190.832031 59.242188 189.097656 59.199219 187.359375 59.195312 Z M 187.359375 68.050781 C 189.933594 68.054688 192.5 68.160156 195.0625 68.367188 C 197.625 68.574219 200.175781 68.882812 202.714844 69.289062 C 205.253906 69.699219 207.773438 70.207031 210.269531 70.816406 C 212.769531 71.425781 215.238281 72.132812 217.683594 72.933594 C 220.125 73.738281 222.53125 74.640625 224.902344 75.632812 C 227.273438 76.628906 229.601562 77.71875 231.886719 78.898438 C 234.171875 80.078125 236.410156 81.34375 238.59375 82.703125 C 240.777344 84.058594 242.90625 85.5 244.976562 87.027344 C 247.050781 88.550781 249.058594 90.15625 251 91.84375 C 252.945312 93.527344 254.820312 95.285156 256.625 97.121094 C 258.429688 98.953125 260.160156 100.855469 261.8125 102.828125 C 263.46875 104.796875 265.042969 106.832031 266.535156 108.925781 C 268.03125 111.019531 269.4375 113.171875 270.761719 115.378906 C 272.085938 117.585938 273.320312 119.84375 274.464844 122.148438 C 275.609375 124.453125 276.660156 126.800781 277.621094 129.1875 C 278.582031 131.578125 279.445312 134 280.210938 136.457031 L 90.128906 263.332031 L 90.128906 165.402344 C 90.128906 163.808594 90.171875 162.21875 90.25 160.628906 C 90.332031 159.035156 90.449219 157.449219 90.605469 155.863281 C 90.765625 154.277344 90.960938 152.699219 91.195312 151.125 C 91.429688 149.546875 91.703125 147.980469 92.015625 146.417969 C 92.324219 144.855469 92.675781 143.300781 93.0625 141.757812 C 93.449219 140.214844 93.875 138.679688 94.339844 137.15625 C 94.800781 135.632812 95.300781 134.121094 95.839844 132.621094 C 96.375 131.121094 96.949219 129.636719 97.558594 128.164062 C 98.167969 126.695312 98.8125 125.238281 99.492188 123.796875 C 100.175781 122.359375 100.890625 120.9375 101.640625 119.53125 C 102.390625 118.128906 103.175781 116.742188 103.992188 115.378906 C 104.8125 114.011719 105.664062 112.667969 106.546875 111.34375 C 107.433594 110.019531 108.347656 108.71875 109.296875 107.4375 C 110.242188 106.160156 111.222656 104.902344 112.230469 103.671875 C 113.242188 102.441406 114.28125 101.234375 115.347656 100.054688 C 116.417969 98.875 117.511719 97.722656 118.636719 96.597656 C 119.761719 95.46875 120.914062 94.371094 122.09375 93.304688 C 123.273438 92.234375 124.476562 91.191406 125.707031 90.183594 C 126.933594 89.171875 128.1875 88.191406 129.464844 87.242188 C 130.746094 86.292969 132.042969 85.375 133.367188 84.492188 C 134.6875 83.605469 136.03125 82.753906 137.398438 81.933594 C 138.761719 81.117188 140.144531 80.332031 141.546875 79.578125 C 142.949219 78.828125 144.371094 78.109375 145.808594 77.429688 C 147.246094 76.746094 148.699219 76.101562 150.167969 75.492188 C 151.636719 74.882812 153.121094 74.308594 154.617188 73.769531 C 156.117188 73.230469 157.625 72.730469 159.148438 72.269531 C 160.667969 71.804688 162.203125 71.378906 163.746094 70.992188 C 165.289062 70.601562 166.839844 70.253906 168.398438 69.941406 C 169.960938 69.628906 171.527344 69.355469 173.097656 69.121094 C 174.671875 68.886719 176.25 68.6875 177.832031 68.53125 C 179.417969 68.375 181.003906 68.253906 182.589844 68.175781 C 184.179688 68.09375 185.769531 68.054688 187.359375 68.050781 Z M 100.308594 267.175781 L 182.980469 212.027344 L 182.980469 267.175781 Z M 191.777344 267.175781 L 191.777344 206.125 L 282.550781 145.539062 C 283.914062 152.089844 284.59375 158.710938 284.59375 165.402344 L 284.59375 267.175781 Z M 191.777344 267.175781 " fill-opacity="1" fill-rule="nonzero"/></g><g clip-path="url(#bebe2fbcfd)"><path fill="#000000" d="M 187.359375 32.652344 C 185.191406 32.652344 183.023438 32.707031 180.855469 32.816406 C 178.691406 32.925781 176.527344 33.085938 174.371094 33.300781 C 172.210938 33.519531 170.058594 33.785156 167.914062 34.105469 C 165.765625 34.425781 163.628906 34.800781 161.503906 35.226562 C 159.375 35.648438 157.261719 36.128906 155.15625 36.65625 C 153.050781 37.1875 150.964844 37.765625 148.886719 38.398438 C 146.8125 39.03125 144.753906 39.714844 142.710938 40.445312 C 140.667969 41.179688 138.644531 41.960938 136.640625 42.792969 C 134.636719 43.625 132.65625 44.507812 130.695312 45.4375 C 128.734375 46.367188 126.796875 47.34375 124.886719 48.367188 C 122.972656 49.390625 121.085938 50.464844 119.226562 51.582031 C 117.367188 52.699219 115.535156 53.859375 113.730469 55.066406 C 111.925781 56.273438 110.152344 57.523438 108.410156 58.820312 C 106.667969 60.113281 104.960938 61.449219 103.285156 62.828125 C 101.605469 64.207031 99.964844 65.625 98.359375 67.082031 C 96.75 68.542969 95.179688 70.039062 93.644531 71.574219 C 92.113281 73.109375 90.617188 74.683594 89.160156 76.292969 C 87.703125 77.902344 86.285156 79.542969 84.910156 81.222656 C 83.53125 82.902344 82.199219 84.613281 80.90625 86.359375 C 79.613281 88.101562 78.363281 89.878906 77.160156 91.683594 C 75.953125 93.488281 74.792969 95.324219 73.675781 97.183594 C 72.558594 99.046875 71.492188 100.9375 70.46875 102.851562 C 69.445312 104.765625 68.46875 106.707031 67.539062 108.667969 C 66.609375 110.632812 65.730469 112.617188 64.898438 114.621094 C 64.070312 116.628906 63.285156 118.652344 62.554688 120.699219 C 61.824219 122.742188 61.140625 124.804688 60.511719 126.882812 C 59.878906 128.960938 59.300781 131.050781 58.769531 133.160156 C 58.242188 135.265625 57.765625 137.382812 57.339844 139.511719 C 56.914062 141.644531 56.542969 143.78125 56.222656 145.929688 C 55.902344 148.078125 55.636719 150.234375 55.421875 152.394531 C 55.207031 154.554688 55.042969 156.722656 54.933594 158.890625 C 54.828125 161.058594 54.769531 163.230469 54.769531 165.402344 L 54.769531 342.449219 L 63.601562 342.449219 L 63.601562 165.402344 C 63.582031 163.363281 63.613281 161.324219 63.695312 159.285156 C 63.773438 157.246094 63.90625 155.210938 64.085938 153.175781 C 64.269531 151.144531 64.5 149.117188 64.78125 147.097656 C 65.0625 145.074219 65.394531 143.0625 65.773438 141.058594 C 66.152344 139.054688 66.582031 137.058594 67.0625 135.078125 C 67.542969 133.09375 68.070312 131.125 68.644531 129.164062 C 69.222656 127.207031 69.84375 125.265625 70.515625 123.339844 C 71.1875 121.414062 71.90625 119.503906 72.675781 117.613281 C 73.441406 115.722656 74.253906 113.851562 75.109375 112.003906 C 75.96875 110.152344 76.871094 108.324219 77.820312 106.519531 C 78.769531 104.710938 79.761719 102.929688 80.796875 101.171875 C 81.835938 99.417969 82.914062 97.6875 84.035156 95.984375 C 85.160156 94.28125 86.320312 92.605469 87.527344 90.960938 C 88.730469 89.3125 89.976562 87.699219 91.257812 86.113281 C 92.542969 84.53125 93.867188 82.976562 95.226562 81.457031 C 96.585938 79.941406 97.984375 78.457031 99.417969 77.003906 C 100.851562 75.554688 102.320312 74.140625 103.824219 72.765625 C 105.328125 71.386719 106.867188 70.046875 108.4375 68.746094 C 110.003906 67.445312 111.605469 66.183594 113.238281 64.960938 C 114.871094 63.742188 116.53125 62.558594 118.222656 61.421875 C 119.914062 60.28125 121.628906 59.183594 123.375 58.128906 C 125.121094 57.074219 126.890625 56.0625 128.683594 55.09375 C 130.476562 54.128906 132.292969 53.203125 134.132812 52.328125 C 135.976562 51.449219 137.835938 50.617188 139.714844 49.832031 C 141.597656 49.046875 143.496094 48.308594 145.414062 47.617188 C 147.332031 46.925781 149.265625 46.28125 151.214844 45.6875 C 153.164062 45.089844 155.125 44.542969 157.101562 44.042969 C 159.078125 43.546875 161.066406 43.097656 163.0625 42.695312 C 165.0625 42.296875 167.070312 41.945312 169.085938 41.644531 C 171.101562 41.339844 173.121094 41.089844 175.148438 40.890625 C 177.175781 40.6875 179.210938 40.535156 181.246094 40.4375 C 183.28125 40.335938 185.316406 40.285156 187.355469 40.285156 C 189.394531 40.285156 191.429688 40.335938 193.464844 40.4375 C 195.5 40.535156 197.53125 40.6875 199.5625 40.890625 C 201.589844 41.089844 203.609375 41.339844 205.625 41.644531 C 207.640625 41.945312 209.648438 42.296875 211.648438 42.695312 C 213.644531 43.097656 215.632812 43.546875 217.609375 44.042969 C 219.585938 44.542969 221.546875 45.089844 223.496094 45.6875 C 225.445312 46.28125 227.378906 46.925781 229.296875 47.617188 C 231.214844 48.308594 233.113281 49.046875 234.996094 49.832031 C 236.875 50.617188 238.734375 51.449219 240.574219 52.328125 C 242.414062 53.203125 244.234375 54.128906 246.027344 55.09375 C 247.820312 56.0625 249.589844 57.074219 251.335938 58.128906 C 253.078125 59.183594 254.796875 60.28125 256.488281 61.421875 C 258.179688 62.558594 259.839844 63.742188 261.472656 64.960938 C 263.105469 66.183594 264.703125 67.445312 266.273438 68.746094 C 267.84375 70.046875 269.382812 71.386719 270.886719 72.765625 C 272.386719 74.140625 273.859375 75.554688 275.292969 77.003906 C 276.726562 78.457031 278.121094 79.941406 279.484375 81.457031 C 280.84375 82.976562 282.167969 84.53125 283.453125 86.113281 C 284.734375 87.699219 285.980469 89.3125 287.183594 90.960938 C 288.390625 92.605469 289.550781 94.28125 290.675781 95.984375 C 291.796875 97.6875 292.875 99.417969 293.910156 101.171875 C 294.949219 102.929688 295.941406 104.710938 296.890625 106.519531 C 297.835938 108.324219 298.742188 110.152344 299.601562 112.003906 C 300.457031 113.851562 301.269531 115.722656 302.035156 117.613281 C 302.800781 119.503906 303.523438 121.414062 304.195312 123.339844 C 304.867188 125.265625 305.488281 127.207031 306.066406 129.164062 C 306.640625 131.125 307.167969 133.09375 307.648438 135.078125 C 308.125 137.058594 308.554688 139.054688 308.9375 141.058594 C 309.316406 143.0625 309.648438 145.074219 309.929688 147.097656 C 310.210938 149.117188 310.441406 151.144531 310.625 153.175781 C 310.804688 155.210938 310.933594 157.246094 311.015625 159.285156 C 311.097656 161.324219 311.128906 163.363281 311.105469 165.402344 L 311.105469 342.449219 L 319.953125 342.449219 L 319.953125 165.402344 C 319.949219 163.230469 319.894531 161.058594 319.785156 158.890625 C 319.675781 156.722656 319.515625 154.554688 319.300781 152.394531 C 319.085938 150.234375 318.816406 148.078125 318.496094 145.929688 C 318.175781 143.78125 317.804688 141.644531 317.378906 139.515625 C 316.953125 137.382812 316.476562 135.265625 315.949219 133.160156 C 315.421875 131.054688 314.839844 128.960938 314.210938 126.882812 C 313.578125 124.804688 312.894531 122.746094 312.164062 120.699219 C 311.433594 118.65625 310.648438 116.628906 309.820312 114.625 C 308.988281 112.617188 308.109375 110.632812 307.179688 108.671875 C 306.25 106.707031 305.273438 104.769531 304.25 102.855469 C 303.226562 100.9375 302.160156 99.050781 301.042969 97.1875 C 299.925781 95.324219 298.765625 93.492188 297.558594 91.6875 C 296.355469 89.878906 295.105469 88.105469 293.8125 86.359375 C 292.519531 84.617188 291.183594 82.90625 289.808594 81.226562 C 288.433594 79.546875 287.015625 77.902344 285.558594 76.296875 C 284.101562 74.6875 282.605469 73.113281 281.074219 71.578125 C 279.539062 70.042969 277.96875 68.542969 276.359375 67.085938 C 274.753906 65.628906 273.113281 64.207031 271.433594 62.832031 C 269.757812 61.453125 268.050781 60.117188 266.308594 58.824219 C 264.566406 57.527344 262.792969 56.277344 260.988281 55.070312 C 259.1875 53.863281 257.355469 52.699219 255.492188 51.582031 C 253.632812 50.464844 251.746094 49.394531 249.835938 48.371094 C 247.921875 47.347656 245.984375 46.371094 244.023438 45.441406 C 242.0625 44.511719 240.082031 43.628906 238.078125 42.796875 C 236.074219 41.964844 234.050781 41.183594 232.007812 40.449219 C 229.96875 39.714844 227.910156 39.035156 225.832031 38.402344 C 223.757812 37.769531 221.667969 37.1875 219.5625 36.660156 C 217.460938 36.128906 215.34375 35.652344 213.21875 35.226562 C 211.089844 34.800781 208.953125 34.429688 206.808594 34.105469 C 204.664062 33.785156 202.511719 33.519531 200.351562 33.304688 C 198.195312 33.089844 196.03125 32.925781 193.863281 32.816406 C 191.699219 32.707031 189.53125 32.652344 187.359375 32.652344 Z M 187.359375 32.652344 " fill-opacity="1" fill-rule="nonzero"/></g></svg>