<svg xmlns="http://www.w3.org/2000/svg" xmlns:xlink="http://www.w3.org/1999/xlink" width="800" zoomAndPan="magnify" viewBox="0 0 600 599.999999" height="800" preserveAspectRatio="xMidYMid meet" version="1.0"><defs><g/><clipPath id="21aad61704"><path d="M 175 68 L 425 68 L 425 400.726562 L 175 400.726562 Z M 175 68 " clip-rule="nonzero"/></clipPath><clipPath id="c985f390bf"><path d="M 144 36.976562 L 455.867188 36.976562 L 455.867188 400.726562 L 144 400.726562 Z M 144 36.976562 " clip-rule="nonzero"/></clipPath></defs><rect x="-60" width="720" fill="#ffffff" y="-60" height="719.999999" fill-opacity="1"/><rect x="-60" width="720" fill="#000000" y="-60" height="719.999999" fill-opacity="1"/><g fill="#ffffff" fill-opacity="1"><g transform="translate(79.303414, 479.399688)"><g><path d="M 20.25 0.65625 C 18.382812 0.65625 16.335938 0.515625 14.109375 0.234375 C 11.890625 -0.046875 9.695312 -0.4375 7.53125 -0.9375 C 5.375 -1.4375 3.441406 -2.007812 1.734375 -2.65625 L 2.046875 -10.078125 C 4.503906 -8.523438 7.289062 -7.363281 10.40625 -6.59375 C 13.519531 -5.832031 16.753906 -5.453125 20.109375 -5.453125 C 23.066406 -5.453125 25.472656 -5.738281 27.328125 -6.3125 C 29.179688 -6.894531 30.109375 -7.898438 30.109375 -9.328125 C 30.109375 -10.171875 29.71875 -10.847656 28.9375 -11.359375 C 28.15625 -11.878906 27.101562 -12.285156 25.78125 -12.578125 C 24.457031 -12.867188 22.972656 -13.113281 21.328125 -13.3125 C 19.679688 -13.519531 17.984375 -13.75 16.234375 -14 C 14.492188 -14.25 12.800781 -14.582031 11.15625 -15 C 9.507812 -15.425781 8.023438 -15.992188 6.703125 -16.703125 C 5.378906 -17.421875 4.328125 -18.347656 3.546875 -19.484375 C 2.765625 -20.617188 2.375 -22.023438 2.375 -23.703125 C 2.375 -25.828125 3.144531 -27.59375 4.6875 -29 C 6.226562 -30.414062 8.304688 -31.488281 10.921875 -32.21875 C 13.535156 -32.957031 16.414062 -33.328125 19.5625 -33.328125 C 21.332031 -33.328125 23.125 -33.21875 24.9375 -33 C 26.757812 -32.78125 28.488281 -32.472656 30.125 -32.078125 C 31.757812 -31.691406 33.179688 -31.234375 34.390625 -30.703125 L 34.390625 -23.796875 C 32.679688 -24.796875 30.519531 -25.601562 27.90625 -26.21875 C 25.289062 -26.84375 22.597656 -27.15625 19.828125 -27.15625 C 18.085938 -27.15625 16.453125 -27.054688 14.921875 -26.859375 C 13.398438 -26.660156 12.179688 -26.300781 11.265625 -25.78125 C 10.347656 -25.269531 9.890625 -24.546875 9.890625 -23.609375 C 9.890625 -22.742188 10.28125 -22.046875 11.0625 -21.515625 C 11.84375 -20.984375 12.890625 -20.566406 14.203125 -20.265625 C 15.523438 -19.972656 17.007812 -19.71875 18.65625 -19.5 C 20.3125 -19.289062 22.019531 -19.066406 23.78125 -18.828125 C 25.539062 -18.597656 27.242188 -18.28125 28.890625 -17.875 C 30.535156 -17.46875 32.019531 -16.921875 33.34375 -16.234375 C 34.664062 -15.554688 35.71875 -14.664062 36.5 -13.5625 C 37.28125 -12.457031 37.671875 -11.0625 37.671875 -9.375 C 37.671875 -7.289062 36.953125 -5.503906 35.515625 -4.015625 C 34.085938 -2.523438 32.070312 -1.375 29.46875 -0.5625 C 26.875 0.25 23.800781 0.65625 20.25 0.65625 Z M 20.25 0.65625 "/></g></g></g><g fill="#ffffff" fill-opacity="1"><g transform="translate(135.584254, 479.399688)"><g><path d="M 3.78125 0 C 4.375 -1.925781 4.671875 -4.539062 4.671875 -7.84375 L 4.671875 -24.828125 C 4.671875 -26.410156 4.582031 -27.882812 4.40625 -29.25 C 4.238281 -30.625 4.03125 -31.765625 3.78125 -32.671875 L 35.75 -32.671875 L 36.921875 -25.625 C 36.390625 -25.875 35.601562 -26.078125 34.5625 -26.234375 C 33.519531 -26.390625 32.1875 -26.46875 30.5625 -26.46875 L 11.90625 -26.46875 L 11.90625 -19.421875 L 26.921875 -19.421875 C 29.078125 -19.421875 30.710938 -19.515625 31.828125 -19.703125 L 31.828125 -13.0625 C 30.710938 -13.25 29.078125 -13.34375 26.921875 -13.34375 L 11.90625 -13.34375 L 11.90625 -6.203125 L 30.890625 -6.203125 C 32.734375 -6.203125 34.210938 -6.3125 35.328125 -6.53125 C 36.453125 -6.75 37.351562 -7.046875 38.03125 -7.421875 L 36.6875 0 Z M 3.78125 0 "/></g></g></g><g fill="#ffffff" fill-opacity="1"><g transform="translate(192.425064, 479.399688)"><g><path d="M -0.5625 0 C 0.0625 -0.90625 0.800781 -2.0625 1.65625 -3.46875 C 2.507812 -4.882812 3.328125 -6.34375 4.109375 -7.84375 L 12.96875 -24.828125 C 13.75 -26.378906 14.347656 -27.847656 14.765625 -29.234375 C 15.191406 -30.617188 15.484375 -31.765625 15.640625 -32.671875 L 27.0625 -32.671875 C 27.28125 -31.609375 27.597656 -30.363281 28.015625 -28.9375 C 28.441406 -27.507812 28.96875 -26.15625 29.59375 -24.875 L 38.546875 -7.84375 C 39.328125 -6.3125 40.132812 -4.847656 40.96875 -3.453125 C 41.8125 -2.054688 42.546875 -0.90625 43.171875 0 L 34.03125 0 C 33.9375 -0.625 33.734375 -1.335938 33.421875 -2.140625 C 33.109375 -2.953125 32.609375 -3.96875 31.921875 -5.1875 L 30.5625 -7.65625 L 12.046875 -7.65625 L 10.6875 -5.140625 C 10.125 -3.953125 9.65625 -2.953125 9.28125 -2.140625 C 8.914062 -1.335938 8.6875 -0.625 8.59375 0 Z M 14.75 -13.203125 L 27.859375 -13.203125 L 23.515625 -21.5625 C 23.117188 -22.4375 22.765625 -23.285156 22.453125 -24.109375 C 22.140625 -24.929688 21.828125 -25.796875 21.515625 -26.703125 L 21.09375 -26.703125 C 20.78125 -25.765625 20.46875 -24.890625 20.15625 -24.078125 C 19.851562 -23.273438 19.484375 -22.421875 19.046875 -21.515625 Z M 14.75 -13.203125 "/></g></g></g><g fill="#ffffff" fill-opacity="1"><g transform="translate(251.832395, 479.399688)"><g><path d="M 22.96875 0.65625 C 18.851562 0.65625 15.222656 -0.0351562 12.078125 -1.421875 C 8.941406 -2.804688 6.492188 -4.757812 4.734375 -7.28125 C 2.972656 -9.800781 2.09375 -12.785156 2.09375 -16.234375 C 2.09375 -19.722656 2.988281 -22.742188 4.78125 -25.296875 C 6.570312 -27.847656 9.046875 -29.820312 12.203125 -31.21875 C 15.359375 -32.625 18.976562 -33.328125 23.0625 -33.328125 C 25.757812 -33.328125 28.273438 -33.097656 30.609375 -32.640625 C 32.941406 -32.191406 35.0625 -31.609375 36.96875 -30.890625 L 36.59375 -24.3125 C 35.59375 -24.9375 34.398438 -25.453125 33.015625 -25.859375 C 31.628906 -26.265625 30.144531 -26.570312 28.5625 -26.78125 C 26.976562 -27 25.40625 -27.109375 23.84375 -27.109375 C 21.019531 -27.109375 18.507812 -26.671875 16.3125 -25.796875 C 14.113281 -24.929688 12.390625 -23.679688 11.140625 -22.046875 C 9.898438 -20.421875 9.28125 -18.484375 9.28125 -16.234375 C 9.28125 -14.054688 9.863281 -12.164062 11.03125 -10.5625 C 12.195312 -8.96875 13.820312 -7.738281 15.90625 -6.875 C 18 -6.019531 20.414062 -5.59375 23.15625 -5.59375 C 25.269531 -5.59375 27.296875 -5.921875 29.234375 -6.578125 C 31.179688 -7.234375 32.703125 -8.132812 33.796875 -9.28125 L 33.796875 -13.203125 L 25.90625 -13.203125 C 25.21875 -13.203125 24.4375 -13.160156 23.5625 -13.078125 C 22.695312 -13.003906 22.046875 -12.890625 21.609375 -12.734375 L 21.9375 -19.09375 L 40.703125 -19.09375 L 40.703125 -5.640625 C 38.921875 -3.742188 36.46875 -2.21875 33.34375 -1.0625 C 30.21875 0.0820312 26.757812 0.65625 22.96875 0.65625 Z M 22.96875 0.65625 "/></g></g></g><g fill="#ffffff" fill-opacity="1"><g transform="translate(311.61302, 479.399688)"><g><path d="M 28.375 0.703125 C 26.601562 0.703125 24.96875 0.582031 23.46875 0.34375 C 21.976562 0.113281 20.476562 -0.109375 18.96875 -0.328125 C 17.457031 -0.546875 15.738281 -0.65625 13.8125 -0.65625 C 11.664062 -0.65625 9.726562 -0.503906 8 -0.203125 C 6.269531 0.0859375 4.863281 0.390625 3.78125 0.703125 C 4.0625 -0.234375 4.28125 -1.492188 4.4375 -3.078125 C 4.59375 -4.660156 4.671875 -6.25 4.671875 -7.84375 L 4.671875 -24.828125 C 4.671875 -26.410156 4.582031 -27.882812 4.40625 -29.25 C 4.238281 -30.625 4.03125 -31.765625 3.78125 -32.671875 L 12.734375 -32.671875 C 12.523438 -31.765625 12.332031 -30.503906 12.15625 -28.890625 C 11.988281 -27.273438 11.90625 -25.671875 11.90625 -24.078125 L 11.90625 -6.15625 L 26.140625 -6.15625 C 28.160156 -6.15625 30.03125 -6.28125 31.75 -6.53125 C 33.476562 -6.78125 34.828125 -7.109375 35.796875 -7.515625 L 35.375 -0.328125 C 34.78125 -0.203125 33.828125 0 32.515625 0.28125 C 31.210938 0.5625 29.832031 0.703125 28.375 0.703125 Z M 28.375 0.703125 "/></g></g></g><g fill="#ffffff" fill-opacity="1"><g transform="translate(365.514003, 479.399688)"><g><path d="M -0.5625 0 C 0.0625 -0.90625 0.800781 -2.0625 1.65625 -3.46875 C 2.507812 -4.882812 3.328125 -6.34375 4.109375 -7.84375 L 12.96875 -24.828125 C 13.75 -26.378906 14.347656 -27.847656 14.765625 -29.234375 C 15.191406 -30.617188 15.484375 -31.765625 15.640625 -32.671875 L 27.0625 -32.671875 C 27.28125 -31.609375 27.597656 -30.363281 28.015625 -28.9375 C 28.441406 -27.507812 28.96875 -26.15625 29.59375 -24.875 L 38.546875 -7.84375 C 39.328125 -6.3125 40.132812 -4.847656 40.96875 -3.453125 C 41.8125 -2.054688 42.546875 -0.90625 43.171875 0 L 34.03125 0 C 33.9375 -0.625 33.734375 -1.335938 33.421875 -2.140625 C 33.109375 -2.953125 32.609375 -3.96875 31.921875 -5.1875 L 30.5625 -7.65625 L 12.046875 -7.65625 L 10.6875 -5.140625 C 10.125 -3.953125 9.65625 -2.953125 9.28125 -2.140625 C 8.914062 -1.335938 8.6875 -0.625 8.59375 0 Z M 14.75 -13.203125 L 27.859375 -13.203125 L 23.515625 -21.5625 C 23.117188 -22.4375 22.765625 -23.285156 22.453125 -24.109375 C 22.140625 -24.929688 21.828125 -25.796875 21.515625 -26.703125 L 21.09375 -26.703125 C 20.78125 -25.765625 20.46875 -24.890625 20.15625 -24.078125 C 19.851562 -23.273438 19.484375 -22.421875 19.046875 -21.515625 Z M 14.75 -13.203125 "/></g></g></g><g fill="#ffffff" fill-opacity="1"><g transform="translate(424.921334, 479.399688)"><g><path d="M 20.25 0.65625 C 18.382812 0.65625 16.335938 0.515625 14.109375 0.234375 C 11.890625 -0.046875 9.695312 -0.4375 7.53125 -0.9375 C 5.375 -1.4375 3.441406 -2.007812 1.734375 -2.65625 L 2.046875 -10.078125 C 4.503906 -8.523438 7.289062 -7.363281 10.40625 -6.59375 C 13.519531 -5.832031 16.753906 -5.453125 20.109375 -5.453125 C 23.066406 -5.453125 25.472656 -5.738281 27.328125 -6.3125 C 29.179688 -6.894531 30.109375 -7.898438 30.109375 -9.328125 C 30.109375 -10.171875 29.71875 -10.847656 28.9375 -11.359375 C 28.15625 -11.878906 27.101562 -12.285156 25.78125 -12.578125 C 24.457031 -12.867188 22.972656 -13.113281 21.328125 -13.3125 C 19.679688 -13.519531 17.984375 -13.75 16.234375 -14 C 14.492188 -14.25 12.800781 -14.582031 11.15625 -15 C 9.507812 -15.425781 8.023438 -15.992188 6.703125 -16.703125 C 5.378906 -17.421875 4.328125 -18.347656 3.546875 -19.484375 C 2.765625 -20.617188 2.375 -22.023438 2.375 -23.703125 C 2.375 -25.828125 3.144531 -27.59375 4.6875 -29 C 6.226562 -30.414062 8.304688 -31.488281 10.921875 -32.21875 C 13.535156 -32.957031 16.414062 -33.328125 19.5625 -33.328125 C 21.332031 -33.328125 23.125 -33.21875 24.9375 -33 C 26.757812 -32.78125 28.488281 -32.472656 30.125 -32.078125 C 31.757812 -31.691406 33.179688 -31.234375 34.390625 -30.703125 L 34.390625 -23.796875 C 32.679688 -24.796875 30.519531 -25.601562 27.90625 -26.21875 C 25.289062 -26.84375 22.597656 -27.15625 19.828125 -27.15625 C 18.085938 -27.15625 16.453125 -27.054688 14.921875 -26.859375 C 13.398438 -26.660156 12.179688 -26.300781 11.265625 -25.78125 C 10.347656 -25.269531 9.890625 -24.546875 9.890625 -23.609375 C 9.890625 -22.742188 10.28125 -22.046875 11.0625 -21.515625 C 11.84375 -20.984375 12.890625 -20.566406 14.203125 -20.265625 C 15.523438 -19.972656 17.007812 -19.71875 18.65625 -19.5 C 20.3125 -19.289062 22.019531 -19.066406 23.78125 -18.828125 C 25.539062 -18.597656 27.242188 -18.28125 28.890625 -17.875 C 30.535156 -17.46875 32.019531 -16.921875 33.34375 -16.234375 C 34.664062 -15.554688 35.71875 -14.664062 36.5 -13.5625 C 37.28125 -12.457031 37.671875 -11.0625 37.671875 -9.375 C 37.671875 -7.289062 36.953125 -5.503906 35.515625 -4.015625 C 34.085938 -2.523438 32.070312 -1.375 29.46875 -0.5625 C 26.875 0.25 23.800781 0.65625 20.25 0.65625 Z M 20.25 0.65625 "/></g></g></g><g fill="#ffffff" fill-opacity="1"><g transform="translate(481.202186, 479.399688)"><g><path d="M 20.25 0.65625 C 18.382812 0.65625 16.335938 0.515625 14.109375 0.234375 C 11.890625 -0.046875 9.695312 -0.4375 7.53125 -0.9375 C 5.375 -1.4375 3.441406 -2.007812 1.734375 -2.65625 L 2.046875 -10.078125 C 4.503906 -8.523438 7.289062 -7.363281 10.40625 -6.59375 C 13.519531 -5.832031 16.753906 -5.453125 20.109375 -5.453125 C 23.066406 -5.453125 25.472656 -5.738281 27.328125 -6.3125 C 29.179688 -6.894531 30.109375 -7.898438 30.109375 -9.328125 C 30.109375 -10.171875 29.71875 -10.847656 28.9375 -11.359375 C 28.15625 -11.878906 27.101562 -12.285156 25.78125 -12.578125 C 24.457031 -12.867188 22.972656 -13.113281 21.328125 -13.3125 C 19.679688 -13.519531 17.984375 -13.75 16.234375 -14 C 14.492188 -14.25 12.800781 -14.582031 11.15625 -15 C 9.507812 -15.425781 8.023438 -15.992188 6.703125 -16.703125 C 5.378906 -17.421875 4.328125 -18.347656 3.546875 -19.484375 C 2.765625 -20.617188 2.375 -22.023438 2.375 -23.703125 C 2.375 -25.828125 3.144531 -27.59375 4.6875 -29 C 6.226562 -30.414062 8.304688 -31.488281 10.921875 -32.21875 C 13.535156 -32.957031 16.414062 -33.328125 19.5625 -33.328125 C 21.332031 -33.328125 23.125 -33.21875 24.9375 -33 C 26.757812 -32.78125 28.488281 -32.472656 30.125 -32.078125 C 31.757812 -31.691406 33.179688 -31.234375 34.390625 -30.703125 L 34.390625 -23.796875 C 32.679688 -24.796875 30.519531 -25.601562 27.90625 -26.21875 C 25.289062 -26.84375 22.597656 -27.15625 19.828125 -27.15625 C 18.085938 -27.15625 16.453125 -27.054688 14.921875 -26.859375 C 13.398438 -26.660156 12.179688 -26.300781 11.265625 -25.78125 C 10.347656 -25.269531 9.890625 -24.546875 9.890625 -23.609375 C 9.890625 -22.742188 10.28125 -22.046875 11.0625 -21.515625 C 11.84375 -20.984375 12.890625 -20.566406 14.203125 -20.265625 C 15.523438 -19.972656 17.007812 -19.71875 18.65625 -19.5 C 20.3125 -19.289062 22.019531 -19.066406 23.78125 -18.828125 C 25.539062 -18.597656 27.242188 -18.28125 28.890625 -17.875 C 30.535156 -17.46875 32.019531 -16.921875 33.34375 -16.234375 C 34.664062 -15.554688 35.71875 -14.664062 36.5 -13.5625 C 37.28125 -12.457031 37.671875 -11.0625 37.671875 -9.375 C 37.671875 -7.289062 36.953125 -5.503906 35.515625 -4.015625 C 34.085938 -2.523438 32.070312 -1.375 29.46875 -0.5625 C 26.875 0.25 23.800781 0.65625 20.25 0.65625 Z M 20.25 0.65625 "/></g></g></g><g fill="#ffffff" fill-opacity="1"><g transform="translate(92.499189, 522.463174)"><g><path d="M 10.9375 0.296875 C 9.570312 0.296875 8.285156 0.128906 7.078125 -0.203125 C 5.878906 -0.546875 4.820312 -1.050781 3.90625 -1.71875 C 2.988281 -2.382812 2.269531 -3.203125 1.75 -4.171875 C 1.226562 -5.148438 0.96875 -6.273438 0.96875 -7.546875 C 0.96875 -8.816406 1.222656 -9.941406 1.734375 -10.921875 C 2.253906 -11.898438 2.960938 -12.722656 3.859375 -13.390625 C 4.765625 -14.066406 5.8125 -14.578125 7 -14.921875 C 8.195312 -15.265625 9.488281 -15.4375 10.875 -15.4375 C 12.113281 -15.4375 13.285156 -15.3125 14.390625 -15.0625 C 15.492188 -14.820312 16.421875 -14.507812 17.171875 -14.125 L 16.890625 -10.875 C 16.285156 -11.332031 15.488281 -11.71875 14.5 -12.03125 C 13.507812 -12.34375 12.4375 -12.5 11.28125 -12.5 C 9.988281 -12.5 8.816406 -12.300781 7.765625 -11.90625 C 6.722656 -11.507812 5.894531 -10.941406 5.28125 -10.203125 C 4.675781 -9.472656 4.375 -8.585938 4.375 -7.546875 C 4.375 -6.492188 4.6875 -5.601562 5.3125 -4.875 C 5.945312 -4.144531 6.804688 -3.585938 7.890625 -3.203125 C 8.972656 -2.828125 10.191406 -2.640625 11.546875 -2.640625 C 12.753906 -2.640625 13.910156 -2.804688 15.015625 -3.140625 C 16.117188 -3.472656 17.039062 -3.925781 17.78125 -4.5 L 17.78125 -1.015625 C 16.894531 -0.609375 15.875 -0.285156 14.71875 -0.046875 C 13.570312 0.179688 12.3125 0.296875 10.9375 0.296875 Z M 10.9375 0.296875 "/></g></g></g><g fill="#ffffff" fill-opacity="1"><g transform="translate(118.772677, 522.463174)"><g><path d="M 13.140625 0.328125 C 12.328125 0.328125 11.570312 0.269531 10.875 0.15625 C 10.1875 0.0507812 9.488281 -0.046875 8.78125 -0.140625 C 8.082031 -0.242188 7.289062 -0.296875 6.40625 -0.296875 C 5.40625 -0.296875 4.503906 -0.226562 3.703125 -0.09375 C 2.910156 0.0390625 2.257812 0.179688 1.75 0.328125 C 1.882812 -0.109375 1.984375 -0.691406 2.046875 -1.421875 C 2.117188 -2.160156 2.15625 -2.898438 2.15625 -3.640625 L 2.15625 -11.5 C 2.15625 -12.238281 2.113281 -12.925781 2.03125 -13.5625 C 1.957031 -14.195312 1.863281 -14.722656 1.75 -15.140625 L 5.90625 -15.140625 C 5.800781 -14.722656 5.707031 -14.140625 5.625 -13.390625 C 5.550781 -12.640625 5.515625 -11.894531 5.515625 -11.15625 L 5.515625 -2.859375 L 12.109375 -2.859375 C 13.046875 -2.859375 13.914062 -2.914062 14.71875 -3.03125 C 15.519531 -3.144531 16.144531 -3.296875 16.59375 -3.484375 L 16.390625 -0.15625 C 16.117188 -0.09375 15.679688 0 15.078125 0.125 C 14.472656 0.257812 13.828125 0.328125 13.140625 0.328125 Z M 13.140625 0.328125 "/></g></g></g><g fill="#ffffff" fill-opacity="1"><g transform="translate(143.748908, 522.463174)"><g><path d="M 1.75 0 C 2.019531 -0.894531 2.15625 -2.109375 2.15625 -3.640625 L 2.15625 -11.5 C 2.15625 -12.238281 2.113281 -12.925781 2.03125 -13.5625 C 1.957031 -14.195312 1.863281 -14.722656 1.75 -15.140625 L 16.5625 -15.140625 L 17.109375 -11.875 C 16.859375 -11.988281 16.488281 -12.082031 16 -12.15625 C 15.519531 -12.226562 14.910156 -12.265625 14.171875 -12.265625 L 5.515625 -12.265625 L 5.515625 -9 L 12.484375 -9 C 13.472656 -9 14.226562 -9.039062 14.75 -9.125 L 14.75 -6.0625 C 14.226562 -6.144531 13.472656 -6.1875 12.484375 -6.1875 L 5.515625 -6.1875 L 5.515625 -2.875 L 14.3125 -2.875 C 15.164062 -2.875 15.851562 -2.921875 16.375 -3.015625 C 16.894531 -3.117188 17.3125 -3.257812 17.625 -3.4375 L 17 0 Z M 1.75 0 "/></g></g></g><g fill="#ffffff" fill-opacity="1"><g transform="translate(170.087261, 522.463174)"><g><path d="M -0.265625 0 C 0.0234375 -0.414062 0.367188 -0.953125 0.765625 -1.609375 C 1.160156 -2.265625 1.539062 -2.941406 1.90625 -3.640625 L 6.015625 -11.5 C 6.367188 -12.21875 6.644531 -12.898438 6.84375 -13.546875 C 7.039062 -14.191406 7.175781 -14.722656 7.25 -15.140625 L 12.546875 -15.140625 C 12.640625 -14.648438 12.785156 -14.070312 12.984375 -13.40625 C 13.179688 -12.738281 13.421875 -12.113281 13.703125 -11.53125 L 17.859375 -3.640625 C 18.222656 -2.929688 18.597656 -2.25 18.984375 -1.59375 C 19.378906 -0.945312 19.71875 -0.414062 20 0 L 15.765625 0 C 15.722656 -0.289062 15.628906 -0.625 15.484375 -1 C 15.335938 -1.375 15.109375 -1.84375 14.796875 -2.40625 L 14.171875 -3.546875 L 5.578125 -3.546875 L 4.953125 -2.375 C 4.691406 -1.832031 4.472656 -1.375 4.296875 -1 C 4.128906 -0.625 4.023438 -0.289062 3.984375 0 Z M 6.828125 -6.125 L 12.90625 -6.125 L 10.90625 -9.984375 C 10.71875 -10.390625 10.550781 -10.785156 10.40625 -11.171875 C 10.257812 -11.554688 10.113281 -11.957031 9.96875 -12.375 L 9.78125 -12.375 C 9.632812 -11.9375 9.488281 -11.53125 9.34375 -11.15625 C 9.195312 -10.78125 9.023438 -10.382812 8.828125 -9.96875 Z M 6.828125 -6.125 "/></g></g></g><g fill="#ffffff" fill-opacity="1"><g transform="translate(197.614781, 522.463174)"><g><path d="M 1.75 0 C 1.863281 -0.414062 1.957031 -0.941406 2.03125 -1.578125 C 2.113281 -2.210938 2.15625 -2.898438 2.15625 -3.640625 L 2.15625 -11.5 C 2.15625 -13.03125 2.019531 -14.242188 1.75 -15.140625 L 5.671875 -15.140625 L 15.71875 -4.515625 L 16 -4.515625 L 16 -11.5625 C 16 -12.3125 15.957031 -13.007812 15.875 -13.65625 C 15.800781 -14.300781 15.710938 -14.796875 15.609375 -15.140625 L 19.765625 -15.140625 C 19.648438 -14.722656 19.554688 -14.195312 19.484375 -13.5625 C 19.410156 -12.925781 19.375 -12.238281 19.375 -11.5 L 19.375 0 L 16.28125 0 L 5.78125 -10.96875 L 5.515625 -10.96875 L 5.515625 -3.875 C 5.515625 -3.125 5.550781 -2.382812 5.625 -1.65625 C 5.707031 -0.925781 5.800781 -0.375 5.90625 0 Z M 1.75 0 "/></g></g></g><g fill="#ffffff" fill-opacity="1"><g transform="translate(226.915237, 522.463174)"><g><path d="M 1.75 0 C 1.882812 -0.414062 1.984375 -0.941406 2.046875 -1.578125 C 2.109375 -2.210938 2.140625 -2.898438 2.140625 -3.640625 L 2.140625 -11.5 C 2.140625 -12.238281 2.101562 -12.925781 2.03125 -13.5625 C 1.957031 -14.195312 1.863281 -14.722656 1.75 -15.140625 L 5.90625 -15.140625 C 5.789062 -14.722656 5.695312 -14.195312 5.625 -13.5625 C 5.550781 -12.925781 5.515625 -12.238281 5.515625 -11.5 L 5.515625 -3.640625 C 5.515625 -2.898438 5.550781 -2.210938 5.625 -1.578125 C 5.695312 -0.941406 5.789062 -0.414062 5.90625 0 Z M 1.75 0 "/></g></g></g><g fill="#ffffff" fill-opacity="1"><g transform="translate(242.378173, 522.463174)"><g><path d="M 1.75 0 C 1.863281 -0.414062 1.957031 -0.941406 2.03125 -1.578125 C 2.113281 -2.210938 2.15625 -2.898438 2.15625 -3.640625 L 2.15625 -11.5 C 2.15625 -13.03125 2.019531 -14.242188 1.75 -15.140625 L 5.671875 -15.140625 L 15.71875 -4.515625 L 16 -4.515625 L 16 -11.5625 C 16 -12.3125 15.957031 -13.007812 15.875 -13.65625 C 15.800781 -14.300781 15.710938 -14.796875 15.609375 -15.140625 L 19.765625 -15.140625 C 19.648438 -14.722656 19.554688 -14.195312 19.484375 -13.5625 C 19.410156 -12.925781 19.375 -12.238281 19.375 -11.5 L 19.375 0 L 16.28125 0 L 5.78125 -10.96875 L 5.515625 -10.96875 L 5.515625 -3.875 C 5.515625 -3.125 5.550781 -2.382812 5.625 -1.65625 C 5.707031 -0.925781 5.800781 -0.375 5.90625 0 Z M 1.75 0 "/></g></g></g><g fill="#ffffff" fill-opacity="1"><g transform="translate(271.678618, 522.463174)"><g><path d="M 10.640625 0.296875 C 8.734375 0.296875 7.050781 -0.0195312 5.59375 -0.65625 C 4.144531 -1.300781 3.007812 -2.207031 2.1875 -3.375 C 1.375 -4.539062 0.96875 -5.925781 0.96875 -7.53125 C 0.96875 -9.144531 1.378906 -10.539062 2.203125 -11.71875 C 3.035156 -12.90625 4.179688 -13.820312 5.640625 -14.46875 C 7.109375 -15.113281 8.789062 -15.4375 10.6875 -15.4375 C 11.9375 -15.4375 13.101562 -15.332031 14.1875 -15.125 C 15.269531 -14.914062 16.25 -14.644531 17.125 -14.3125 L 16.953125 -11.265625 C 16.492188 -11.554688 15.941406 -11.796875 15.296875 -11.984375 C 14.660156 -12.171875 13.972656 -12.3125 13.234375 -12.40625 C 12.492188 -12.507812 11.765625 -12.5625 11.046875 -12.5625 C 9.734375 -12.5625 8.566406 -12.359375 7.546875 -11.953125 C 6.535156 -11.554688 5.738281 -10.976562 5.15625 -10.21875 C 4.582031 -9.457031 4.296875 -8.5625 4.296875 -7.53125 C 4.296875 -6.519531 4.566406 -5.640625 5.109375 -4.890625 C 5.648438 -4.148438 6.40625 -3.582031 7.375 -3.1875 C 8.34375 -2.789062 9.457031 -2.59375 10.71875 -2.59375 C 11.707031 -2.59375 12.648438 -2.742188 13.546875 -3.046875 C 14.453125 -3.347656 15.15625 -3.765625 15.65625 -4.296875 L 15.65625 -6.125 L 12 -6.125 C 11.6875 -6.125 11.328125 -6.101562 10.921875 -6.0625 C 10.515625 -6.03125 10.210938 -5.976562 10.015625 -5.90625 L 10.15625 -8.84375 L 18.859375 -8.84375 L 18.859375 -2.609375 C 18.035156 -1.734375 16.898438 -1.03125 15.453125 -0.5 C 14.003906 0.03125 12.398438 0.296875 10.640625 0.296875 Z M 10.640625 0.296875 "/></g></g></g><g fill="#ffffff" fill-opacity="1"><g transform="translate(299.379109, 522.463174)"><g/></g></g><g fill="#ffffff" fill-opacity="1"><g transform="translate(313.242092, 522.463174)"><g><path d="M 9.390625 0.296875 C 8.523438 0.296875 7.578125 0.226562 6.546875 0.09375 C 5.515625 -0.03125 4.492188 -0.207031 3.484375 -0.4375 C 2.484375 -0.664062 1.585938 -0.929688 0.796875 -1.234375 L 0.953125 -4.671875 C 2.085938 -3.953125 3.375 -3.414062 4.8125 -3.0625 C 6.257812 -2.707031 7.765625 -2.53125 9.328125 -2.53125 C 10.691406 -2.53125 11.800781 -2.660156 12.65625 -2.921875 C 13.519531 -3.191406 13.953125 -3.660156 13.953125 -4.328125 C 13.953125 -4.710938 13.769531 -5.023438 13.40625 -5.265625 C 13.039062 -5.503906 12.550781 -5.691406 11.9375 -5.828125 C 11.332031 -5.960938 10.644531 -6.078125 9.875 -6.171875 C 9.113281 -6.265625 8.328125 -6.367188 7.515625 -6.484375 C 6.710938 -6.597656 5.925781 -6.753906 5.15625 -6.953125 C 4.394531 -7.148438 3.707031 -7.410156 3.09375 -7.734375 C 2.488281 -8.066406 2.003906 -8.492188 1.640625 -9.015625 C 1.285156 -9.546875 1.109375 -10.203125 1.109375 -10.984375 C 1.109375 -11.960938 1.460938 -12.78125 2.171875 -13.4375 C 2.890625 -14.09375 3.851562 -14.585938 5.0625 -14.921875 C 6.269531 -15.265625 7.601562 -15.4375 9.0625 -15.4375 C 9.882812 -15.4375 10.71875 -15.382812 11.5625 -15.28125 C 12.40625 -15.1875 13.203125 -15.046875 13.953125 -14.859375 C 14.710938 -14.679688 15.375 -14.472656 15.9375 -14.234375 L 15.9375 -11.03125 C 15.144531 -11.488281 14.140625 -11.859375 12.921875 -12.140625 C 11.710938 -12.429688 10.46875 -12.578125 9.1875 -12.578125 C 8.382812 -12.578125 7.628906 -12.53125 6.921875 -12.4375 C 6.210938 -12.34375 5.644531 -12.175781 5.21875 -11.9375 C 4.789062 -11.707031 4.578125 -11.375 4.578125 -10.9375 C 4.578125 -10.539062 4.757812 -10.21875 5.125 -9.96875 C 5.488281 -9.71875 5.972656 -9.523438 6.578125 -9.390625 C 7.191406 -9.253906 7.878906 -9.132812 8.640625 -9.03125 C 9.410156 -8.9375 10.203125 -8.832031 11.015625 -8.71875 C 11.828125 -8.613281 12.613281 -8.46875 13.375 -8.28125 C 14.144531 -8.09375 14.835938 -7.835938 15.453125 -7.515625 C 16.066406 -7.203125 16.550781 -6.789062 16.90625 -6.28125 C 17.269531 -5.769531 17.453125 -5.125 17.453125 -4.34375 C 17.453125 -3.375 17.117188 -2.546875 16.453125 -1.859375 C 15.796875 -1.171875 14.863281 -0.640625 13.65625 -0.265625 C 12.445312 0.109375 11.023438 0.296875 9.390625 0.296875 Z M 9.390625 0.296875 "/></g></g></g><g fill="#ffffff" fill-opacity="1"><g transform="translate(339.321002, 522.463174)"><g><path d="M 1.75 0 C 2.019531 -0.894531 2.15625 -2.109375 2.15625 -3.640625 L 2.15625 -11.5 C 2.15625 -12.238281 2.113281 -12.925781 2.03125 -13.5625 C 1.957031 -14.195312 1.863281 -14.722656 1.75 -15.140625 L 16.5625 -15.140625 L 17.109375 -11.875 C 16.859375 -11.988281 16.488281 -12.082031 16 -12.15625 C 15.519531 -12.226562 14.910156 -12.265625 14.171875 -12.265625 L 5.515625 -12.265625 L 5.515625 -9 L 12.484375 -9 C 13.472656 -9 14.226562 -9.039062 14.75 -9.125 L 14.75 -6.0625 C 14.226562 -6.144531 13.472656 -6.1875 12.484375 -6.1875 L 5.515625 -6.1875 L 5.515625 -2.875 L 14.3125 -2.875 C 15.164062 -2.875 15.851562 -2.921875 16.375 -3.015625 C 16.894531 -3.117188 17.3125 -3.257812 17.625 -3.4375 L 17 0 Z M 1.75 0 "/></g></g></g><g fill="#ffffff" fill-opacity="1"><g transform="translate(365.659349, 522.463174)"><g><path d="M 17.390625 0.328125 C 16.578125 0.328125 15.921875 0.21875 15.421875 0 C 14.929688 -0.226562 14.53125 -0.53125 14.21875 -0.90625 C 13.90625 -1.28125 13.632812 -1.691406 13.40625 -2.140625 C 13.1875 -2.585938 12.960938 -3.03125 12.734375 -3.46875 C 12.515625 -3.90625 12.234375 -4.3125 11.890625 -4.6875 C 11.546875 -5.0625 11.09375 -5.359375 10.53125 -5.578125 C 9.976562 -5.804688 9.257812 -5.921875 8.375 -5.921875 C 8.164062 -5.921875 7.863281 -5.910156 7.46875 -5.890625 C 7.082031 -5.878906 6.707031 -5.863281 6.34375 -5.84375 C 5.976562 -5.820312 5.707031 -5.785156 5.53125 -5.734375 L 5.53125 -3.484375 C 5.53125 -2.023438 5.660156 -0.863281 5.921875 0 L 1.765625 0 C 1.890625 -0.4375 1.984375 -0.96875 2.046875 -1.59375 C 2.117188 -2.21875 2.15625 -2.898438 2.15625 -3.640625 L 2.15625 -11.5 C 2.15625 -12.238281 2.117188 -12.925781 2.046875 -13.5625 C 1.984375 -14.195312 1.890625 -14.722656 1.765625 -15.140625 L 12.234375 -15.140625 C 13.453125 -15.140625 14.519531 -14.988281 15.4375 -14.6875 C 16.363281 -14.382812 17.082031 -13.9375 17.59375 -13.34375 C 18.113281 -12.75 18.375 -12.03125 18.375 -11.1875 C 18.375 -10.375 18.128906 -9.65625 17.640625 -9.03125 C 17.148438 -8.40625 16.46875 -7.914062 15.59375 -7.5625 C 14.726562 -7.207031 13.710938 -7.03125 12.546875 -7.03125 L 11.21875 -7.03125 L 11.21875 -6.859375 L 11.390625 -6.859375 C 12.160156 -6.859375 12.796875 -6.765625 13.296875 -6.578125 C 13.804688 -6.390625 14.222656 -6.148438 14.546875 -5.859375 C 14.878906 -5.566406 15.164062 -5.257812 15.40625 -4.9375 C 15.644531 -4.613281 15.867188 -4.304688 16.078125 -4.015625 C 16.296875 -3.734375 16.539062 -3.5 16.8125 -3.3125 C 17.082031 -3.125 17.410156 -3.03125 17.796875 -3.03125 C 18.390625 -3.03125 18.835938 -3.164062 19.140625 -3.4375 C 19.441406 -3.707031 19.6875 -4.078125 19.875 -4.546875 L 20.03125 -0.796875 C 19.78125 -0.460938 19.410156 -0.191406 18.921875 0.015625 C 18.441406 0.222656 17.929688 0.328125 17.390625 0.328125 Z M 5.53125 -8.328125 L 11.75 -8.328125 C 12.738281 -8.328125 13.523438 -8.492188 14.109375 -8.828125 C 14.703125 -9.171875 15 -9.648438 15 -10.265625 C 15 -10.878906 14.710938 -11.359375 14.140625 -11.703125 C 13.578125 -12.046875 12.828125 -12.21875 11.890625 -12.21875 L 5.53125 -12.21875 Z M 5.53125 -8.328125 "/></g></g></g><g fill="#ffffff" fill-opacity="1"><g transform="translate(393.705773, 522.463174)"><g><path d="M 7.25 0 C 7.144531 -0.519531 6.976562 -1.101562 6.75 -1.75 C 6.53125 -2.394531 6.300781 -3.015625 6.0625 -3.609375 L 1.921875 -11.5 C 1.609375 -12.238281 1.28125 -12.925781 0.9375 -13.5625 C 0.601562 -14.195312 0.289062 -14.722656 0 -15.140625 L 4.28125 -15.140625 C 4.320312 -14.835938 4.394531 -14.488281 4.5 -14.09375 C 4.613281 -13.707031 4.800781 -13.226562 5.0625 -12.65625 L 8.828125 -5.25 C 8.992188 -4.851562 9.160156 -4.46875 9.328125 -4.09375 C 9.492188 -3.726562 9.648438 -3.34375 9.796875 -2.9375 L 9.96875 -2.9375 C 10.125 -3.351562 10.273438 -3.742188 10.421875 -4.109375 C 10.566406 -4.472656 10.734375 -4.851562 10.921875 -5.25 L 14.6875 -12.65625 C 14.925781 -13.226562 15.101562 -13.707031 15.21875 -14.09375 C 15.332031 -14.488281 15.421875 -14.835938 15.484375 -15.140625 L 19.640625 -15.140625 C 19.335938 -14.722656 19.019531 -14.195312 18.6875 -13.5625 C 18.363281 -12.925781 18.035156 -12.238281 17.703125 -11.5 L 13.578125 -3.640625 C 13.265625 -2.910156 13.003906 -2.226562 12.796875 -1.59375 C 12.585938 -0.96875 12.445312 -0.4375 12.375 0 Z M 7.25 0 "/></g></g></g><g fill="#ffffff" fill-opacity="1"><g transform="translate(421.125174, 522.463174)"><g><path d="M 1.75 0 C 1.882812 -0.414062 1.984375 -0.941406 2.046875 -1.578125 C 2.109375 -2.210938 2.140625 -2.898438 2.140625 -3.640625 L 2.140625 -11.5 C 2.140625 -12.238281 2.101562 -12.925781 2.03125 -13.5625 C 1.957031 -14.195312 1.863281 -14.722656 1.75 -15.140625 L 5.90625 -15.140625 C 5.789062 -14.722656 5.695312 -14.195312 5.625 -13.5625 C 5.550781 -12.925781 5.515625 -12.238281 5.515625 -11.5 L 5.515625 -3.640625 C 5.515625 -2.898438 5.550781 -2.210938 5.625 -1.578125 C 5.695312 -0.941406 5.789062 -0.414062 5.90625 0 Z M 1.75 0 "/></g></g></g><g fill="#ffffff" fill-opacity="1"><g transform="translate(436.58811, 522.463174)"><g><path d="M 10.9375 0.296875 C 9.570312 0.296875 8.285156 0.128906 7.078125 -0.203125 C 5.878906 -0.546875 4.820312 -1.050781 3.90625 -1.71875 C 2.988281 -2.382812 2.269531 -3.203125 1.75 -4.171875 C 1.226562 -5.148438 0.96875 -6.273438 0.96875 -7.546875 C 0.96875 -8.816406 1.222656 -9.941406 1.734375 -10.921875 C 2.253906 -11.898438 2.960938 -12.722656 3.859375 -13.390625 C 4.765625 -14.066406 5.8125 -14.578125 7 -14.921875 C 8.195312 -15.265625 9.488281 -15.4375 10.875 -15.4375 C 12.113281 -15.4375 13.285156 -15.3125 14.390625 -15.0625 C 15.492188 -14.820312 16.421875 -14.507812 17.171875 -14.125 L 16.890625 -10.875 C 16.285156 -11.332031 15.488281 -11.71875 14.5 -12.03125 C 13.507812 -12.34375 12.4375 -12.5 11.28125 -12.5 C 9.988281 -12.5 8.816406 -12.300781 7.765625 -11.90625 C 6.722656 -11.507812 5.894531 -10.941406 5.28125 -10.203125 C 4.675781 -9.472656 4.375 -8.585938 4.375 -7.546875 C 4.375 -6.492188 4.6875 -5.601562 5.3125 -4.875 C 5.945312 -4.144531 6.804688 -3.585938 7.890625 -3.203125 C 8.972656 -2.828125 10.191406 -2.640625 11.546875 -2.640625 C 12.753906 -2.640625 13.910156 -2.804688 15.015625 -3.140625 C 16.117188 -3.472656 17.039062 -3.925781 17.78125 -4.5 L 17.78125 -1.015625 C 16.894531 -0.609375 15.875 -0.285156 14.71875 -0.046875 C 13.570312 0.179688 12.3125 0.296875 10.9375 0.296875 Z M 10.9375 0.296875 "/></g></g></g><g fill="#ffffff" fill-opacity="1"><g transform="translate(462.861593, 522.463174)"><g><path d="M 1.75 0 C 2.019531 -0.894531 2.15625 -2.109375 2.15625 -3.640625 L 2.15625 -11.5 C 2.15625 -12.238281 2.113281 -12.925781 2.03125 -13.5625 C 1.957031 -14.195312 1.863281 -14.722656 1.75 -15.140625 L 16.5625 -15.140625 L 17.109375 -11.875 C 16.859375 -11.988281 16.488281 -12.082031 16 -12.15625 C 15.519531 -12.226562 14.910156 -12.265625 14.171875 -12.265625 L 5.515625 -12.265625 L 5.515625 -9 L 12.484375 -9 C 13.472656 -9 14.226562 -9.039062 14.75 -9.125 L 14.75 -6.0625 C 14.226562 -6.144531 13.472656 -6.1875 12.484375 -6.1875 L 5.515625 -6.1875 L 5.515625 -2.875 L 14.3125 -2.875 C 15.164062 -2.875 15.851562 -2.921875 16.375 -3.015625 C 16.894531 -3.117188 17.3125 -3.257812 17.625 -3.4375 L 17 0 Z M 1.75 0 "/></g></g></g><g fill="#ffffff" fill-opacity="1"><g transform="translate(489.199962, 522.463174)"><g><path d="M 9.390625 0.296875 C 8.523438 0.296875 7.578125 0.226562 6.546875 0.09375 C 5.515625 -0.03125 4.492188 -0.207031 3.484375 -0.4375 C 2.484375 -0.664062 1.585938 -0.929688 0.796875 -1.234375 L 0.953125 -4.671875 C 2.085938 -3.953125 3.375 -3.414062 4.8125 -3.0625 C 6.257812 -2.707031 7.765625 -2.53125 9.328125 -2.53125 C 10.691406 -2.53125 11.800781 -2.660156 12.65625 -2.921875 C 13.519531 -3.191406 13.953125 -3.660156 13.953125 -4.328125 C 13.953125 -4.710938 13.769531 -5.023438 13.40625 -5.265625 C 13.039062 -5.503906 12.550781 -5.691406 11.9375 -5.828125 C 11.332031 -5.960938 10.644531 -6.078125 9.875 -6.171875 C 9.113281 -6.265625 8.328125 -6.367188 7.515625 -6.484375 C 6.710938 -6.597656 5.925781 -6.753906 5.15625 -6.953125 C 4.394531 -7.148438 3.707031 -7.410156 3.09375 -7.734375 C 2.488281 -8.066406 2.003906 -8.492188 1.640625 -9.015625 C 1.285156 -9.546875 1.109375 -10.203125 1.109375 -10.984375 C 1.109375 -11.960938 1.460938 -12.78125 2.171875 -13.4375 C 2.890625 -14.09375 3.851562 -14.585938 5.0625 -14.921875 C 6.269531 -15.265625 7.601562 -15.4375 9.0625 -15.4375 C 9.882812 -15.4375 10.71875 -15.382812 11.5625 -15.28125 C 12.40625 -15.1875 13.203125 -15.046875 13.953125 -14.859375 C 14.710938 -14.679688 15.375 -14.472656 15.9375 -14.234375 L 15.9375 -11.03125 C 15.144531 -11.488281 14.140625 -11.859375 12.921875 -12.140625 C 11.710938 -12.429688 10.46875 -12.578125 9.1875 -12.578125 C 8.382812 -12.578125 7.628906 -12.53125 6.921875 -12.4375 C 6.210938 -12.34375 5.644531 -12.175781 5.21875 -11.9375 C 4.789062 -11.707031 4.578125 -11.375 4.578125 -10.9375 C 4.578125 -10.539062 4.757812 -10.21875 5.125 -9.96875 C 5.488281 -9.71875 5.972656 -9.523438 6.578125 -9.390625 C 7.191406 -9.253906 7.878906 -9.132812 8.640625 -9.03125 C 9.410156 -8.9375 10.203125 -8.832031 11.015625 -8.71875 C 11.828125 -8.613281 12.613281 -8.46875 13.375 -8.28125 C 14.144531 -8.09375 14.835938 -7.835938 15.453125 -7.515625 C 16.066406 -7.203125 16.550781 -6.789062 16.90625 -6.28125 C 17.269531 -5.769531 17.453125 -5.125 17.453125 -4.34375 C 17.453125 -3.375 17.117188 -2.546875 16.453125 -1.859375 C 15.796875 -1.171875 14.863281 -0.640625 13.65625 -0.265625 C 12.445312 0.109375 11.023438 0.296875 9.390625 0.296875 Z M 9.390625 0.296875 "/></g></g></g><g clip-path="url(#21aad61704)"><path fill="#ffffff" d="M 299.996094 68.160156 C 297.957031 68.160156 295.917969 68.214844 293.878906 68.316406 C 291.839844 68.417969 289.804688 68.570312 287.773438 68.773438 C 285.742188 68.976562 283.71875 69.226562 281.699219 69.527344 C 279.679688 69.828125 277.671875 70.179688 275.667969 70.578125 C 273.667969 70.980469 271.675781 71.429688 269.695312 71.925781 C 267.71875 72.421875 265.75 72.96875 263.796875 73.5625 C 261.84375 74.15625 259.90625 74.796875 257.988281 75.488281 C 256.066406 76.175781 254.160156 76.910156 252.277344 77.691406 C 250.390625 78.476562 248.527344 79.304688 246.679688 80.175781 C 244.835938 81.050781 243.015625 81.96875 241.214844 82.933594 C 239.414062 83.894531 237.640625 84.902344 235.890625 85.949219 C 234.140625 87 232.414062 88.09375 230.71875 89.226562 C 229.023438 90.363281 227.355469 91.539062 225.714844 92.753906 C 224.074219 93.96875 222.46875 95.226562 220.890625 96.519531 C 219.3125 97.816406 217.765625 99.148438 216.253906 100.519531 C 214.742188 101.890625 213.265625 103.296875 211.820312 104.742188 C 210.378906 106.183594 208.972656 107.660156 207.601562 109.175781 C 206.230469 110.6875 204.894531 112.230469 203.601562 113.808594 C 202.304688 115.386719 201.050781 116.996094 199.835938 118.632812 C 198.617188 120.273438 197.441406 121.941406 196.308594 123.636719 C 195.171875 125.335938 194.082031 127.058594 193.03125 128.808594 C 191.980469 130.558594 190.976562 132.335938 190.011719 134.132812 C 189.050781 135.933594 188.132812 137.757812 187.257812 139.601562 C 186.382812 141.445312 185.554688 143.3125 184.773438 145.195312 C 183.992188 147.082031 183.257812 148.984375 182.566406 150.90625 C 181.878906 152.828125 181.238281 154.765625 180.644531 156.71875 C 180.050781 158.671875 179.503906 160.636719 179.007812 162.617188 C 178.507812 164.597656 178.058594 166.585938 177.660156 168.585938 C 177.261719 170.589844 176.910156 172.601562 176.609375 174.617188 C 176.308594 176.636719 176.054688 178.660156 175.851562 180.691406 C 175.652344 182.722656 175.5 184.757812 175.398438 186.796875 C 175.292969 188.835938 175.242188 190.875 175.238281 192.917969 L 175.238281 400.886719 L 185.644531 400.886719 L 185.644531 322.871094 L 294.804688 322.871094 L 294.804688 400.886719 L 305.179688 400.886719 L 305.179688 322.871094 L 414.351562 322.871094 L 414.351562 400.886719 L 424.742188 400.886719 L 424.742188 192.917969 C 424.738281 190.875 424.6875 188.835938 424.585938 186.796875 C 424.480469 184.757812 424.332031 182.726562 424.128906 180.695312 C 423.925781 178.664062 423.675781 176.636719 423.375 174.621094 C 423.070312 172.601562 422.722656 170.589844 422.320312 168.589844 C 421.921875 166.589844 421.472656 164.597656 420.976562 162.617188 C 420.476562 160.640625 419.933594 158.671875 419.339844 156.71875 C 418.746094 154.765625 418.105469 152.832031 417.414062 150.910156 C 416.726562 148.988281 415.992188 147.085938 415.210938 145.199219 C 414.425781 143.3125 413.597656 141.449219 412.726562 139.605469 C 411.851562 137.761719 410.933594 135.9375 409.972656 134.136719 C 409.007812 132.339844 408.003906 130.5625 406.953125 128.8125 C 405.902344 127.0625 404.8125 125.339844 403.675781 123.644531 C 402.542969 121.945312 401.367188 120.277344 400.152344 118.640625 C 398.933594 117 397.679688 115.390625 396.382812 113.8125 C 395.089844 112.234375 393.757812 110.691406 392.386719 109.179688 C 391.015625 107.667969 389.609375 106.1875 388.164062 104.746094 C 386.722656 103.300781 385.246094 101.894531 383.730469 100.523438 C 382.21875 99.152344 380.675781 97.820312 379.097656 96.527344 C 377.519531 95.230469 375.914062 93.976562 374.273438 92.757812 C 372.632812 91.542969 370.964844 90.367188 369.269531 89.234375 C 367.574219 88.097656 365.851562 87.003906 364.101562 85.957031 C 362.347656 84.90625 360.574219 83.898438 358.773438 82.9375 C 356.976562 81.972656 355.152344 81.054688 353.308594 80.179688 C 351.464844 79.308594 349.601562 78.480469 347.714844 77.699219 C 345.828125 76.914062 343.925781 76.179688 342.003906 75.492188 C 340.082031 74.800781 338.148438 74.160156 336.195312 73.566406 C 334.242188 72.972656 332.277344 72.425781 330.296875 71.929688 C 328.316406 71.429688 326.328125 70.980469 324.324219 70.582031 C 322.324219 70.183594 320.3125 69.832031 318.296875 69.53125 C 316.277344 69.226562 314.25 68.976562 312.222656 68.773438 C 310.191406 68.570312 308.15625 68.417969 306.117188 68.316406 C 304.078125 68.214844 302.039062 68.164062 299.996094 68.160156 Z M 299.996094 78.5625 C 303.023438 78.566406 306.039062 78.691406 309.054688 78.933594 C 312.070312 79.175781 315.070312 79.535156 318.054688 80.015625 C 321.042969 80.496094 324.003906 81.09375 326.941406 81.808594 C 329.878906 82.523438 332.785156 83.355469 335.65625 84.296875 C 338.53125 85.242188 341.363281 86.300781 344.152344 87.46875 C 346.941406 88.636719 349.679688 89.914062 352.367188 91.300781 C 355.054688 92.6875 357.683594 94.175781 360.253906 95.773438 C 362.820312 97.367188 365.324219 99.058594 367.761719 100.851562 C 370.195312 102.644531 372.558594 104.527344 374.84375 106.507812 C 377.128906 108.488281 379.335938 110.554688 381.457031 112.707031 C 383.582031 114.863281 385.613281 117.097656 387.558594 119.410156 C 389.507812 121.726562 391.359375 124.113281 393.113281 126.574219 C 394.871094 129.039062 396.527344 131.5625 398.085938 134.15625 C 399.640625 136.75 401.09375 139.398438 402.4375 142.109375 C 403.785156 144.816406 405.023438 147.570312 406.152344 150.378906 C 407.28125 153.183594 408.296875 156.027344 409.199219 158.914062 L 185.644531 307.953125 L 185.644531 192.917969 C 185.644531 191.046875 185.695312 189.175781 185.789062 187.308594 C 185.882812 185.4375 186.019531 183.574219 186.207031 181.710938 C 186.390625 179.851562 186.621094 177.996094 186.898438 176.144531 C 187.171875 174.292969 187.496094 172.453125 187.863281 170.617188 C 188.226562 168.78125 188.640625 166.957031 189.09375 165.144531 C 189.550781 163.328125 190.050781 161.527344 190.59375 159.734375 C 191.140625 157.945312 191.726562 156.171875 192.359375 154.410156 C 192.992188 152.648438 193.664062 150.902344 194.382812 149.175781 C 195.097656 147.445312 195.855469 145.738281 196.65625 144.046875 C 197.457031 142.355469 198.300781 140.683594 199.183594 139.035156 C 200.066406 137.386719 200.988281 135.757812 201.949219 134.15625 C 202.914062 132.550781 203.914062 130.96875 204.953125 129.414062 C 205.992188 127.859375 207.070312 126.332031 208.1875 124.828125 C 209.300781 123.324219 210.453125 121.851562 211.640625 120.40625 C 212.824219 118.960938 214.046875 117.542969 215.304688 116.15625 C 216.5625 114.769531 217.851562 113.417969 219.171875 112.09375 C 220.496094 110.769531 221.851562 109.480469 223.238281 108.222656 C 224.625 106.96875 226.039062 105.746094 227.484375 104.558594 C 228.933594 103.371094 230.40625 102.21875 231.910156 101.105469 C 233.410156 99.992188 234.941406 98.914062 236.496094 97.875 C 238.050781 96.832031 239.628906 95.832031 241.234375 94.871094 C 242.839844 93.90625 244.464844 92.984375 246.117188 92.101562 C 247.765625 91.21875 249.4375 90.378906 251.128906 89.578125 C 252.816406 88.777344 254.527344 88.019531 256.253906 87.300781 C 257.984375 86.585938 259.726562 85.910156 261.488281 85.277344 C 263.25 84.648438 265.027344 84.058594 266.816406 83.515625 C 268.605469 82.972656 270.410156 82.46875 272.222656 82.015625 C 274.039062 81.558594 275.863281 81.148438 277.695312 80.78125 C 279.53125 80.414062 281.375 80.09375 283.226562 79.816406 C 285.074219 79.539062 286.929688 79.308594 288.792969 79.125 C 290.65625 78.941406 292.519531 78.800781 294.386719 78.707031 C 296.257812 78.613281 298.125 78.566406 299.996094 78.5625 Z M 197.617188 312.464844 L 294.84375 247.683594 L 294.84375 312.464844 Z M 305.191406 312.464844 L 305.191406 240.753906 L 411.949219 169.582031 C 413.554688 177.277344 414.355469 185.054688 414.351562 192.917969 L 414.351562 312.464844 Z M 305.191406 312.464844 " fill-opacity="1" fill-rule="nonzero"/></g><g clip-path="url(#c985f390bf)"><path fill="#ffffff" d="M 299.996094 36.976562 C 297.445312 36.980469 294.898438 37.046875 292.347656 37.171875 C 289.800781 37.300781 287.257812 37.492188 284.71875 37.742188 C 282.179688 37.996094 279.648438 38.308594 277.125 38.6875 C 274.601562 39.0625 272.089844 39.5 269.585938 40 C 267.085938 40.5 264.597656 41.0625 262.121094 41.683594 C 259.648438 42.304688 257.191406 42.988281 254.75 43.730469 C 252.308594 44.472656 249.886719 45.273438 247.484375 46.132812 C 245.082031 46.996094 242.703125 47.914062 240.347656 48.890625 C 237.992188 49.871094 235.660156 50.90625 233.355469 51.996094 C 231.046875 53.089844 228.769531 54.234375 226.519531 55.441406 C 224.269531 56.644531 222.050781 57.902344 219.863281 59.214844 C 217.675781 60.527344 215.523438 61.890625 213.402344 63.308594 C 211.28125 64.726562 209.195312 66.195312 207.148438 67.714844 C 205.097656 69.238281 203.085938 70.804688 201.113281 72.425781 C 199.144531 74.042969 197.210938 75.710938 195.320312 77.421875 C 193.429688 79.136719 191.585938 80.894531 189.78125 82.699219 C 187.976562 84.503906 186.21875 86.351562 184.503906 88.242188 C 182.789062 90.132812 181.125 92.0625 179.503906 94.035156 C 177.886719 96.007812 176.316406 98.015625 174.796875 100.066406 C 173.277344 102.113281 171.808594 104.199219 170.390625 106.320312 C 168.972656 108.441406 167.605469 110.597656 166.292969 112.785156 C 164.980469 114.972656 163.722656 117.191406 162.519531 119.441406 C 161.316406 121.691406 160.167969 123.96875 159.078125 126.273438 C 157.984375 128.578125 156.949219 130.910156 155.972656 133.265625 C 154.996094 135.625 154.074219 138.003906 153.214844 140.40625 C 152.355469 142.804688 151.550781 145.226562 150.808594 147.667969 C 150.066406 150.109375 149.386719 152.566406 148.765625 155.042969 C 148.140625 157.515625 147.582031 160.003906 147.082031 162.507812 C 146.582031 165.007812 146.144531 167.519531 145.765625 170.042969 C 145.390625 172.566406 145.074219 175.097656 144.824219 177.636719 C 144.570312 180.175781 144.382812 182.71875 144.253906 185.269531 C 144.125 187.816406 144.058594 190.367188 144.058594 192.917969 L 144.058594 400.886719 L 154.445312 400.886719 L 154.445312 192.917969 C 154.421875 190.519531 154.460938 188.125 154.554688 185.730469 C 154.648438 183.335938 154.804688 180.945312 155.015625 178.554688 C 155.230469 176.167969 155.5 173.789062 155.832031 171.414062 C 156.164062 169.039062 156.550781 166.675781 157 164.320312 C 157.445312 161.964844 157.953125 159.625 158.515625 157.292969 C 159.078125 154.964844 159.699219 152.648438 160.375 150.351562 C 161.054688 148.050781 161.789062 145.769531 162.578125 143.507812 C 163.367188 141.246094 164.214844 139.003906 165.117188 136.78125 C 166.015625 134.5625 166.972656 132.363281 167.980469 130.191406 C 168.992188 128.015625 170.054688 125.867188 171.167969 123.746094 C 172.285156 121.625 173.453125 119.535156 174.671875 117.46875 C 175.890625 115.40625 177.160156 113.375 178.480469 111.371094 C 179.796875 109.371094 181.167969 107.40625 182.582031 105.472656 C 184 103.539062 185.460938 101.640625 186.972656 99.777344 C 188.484375 97.917969 190.039062 96.09375 191.640625 94.3125 C 193.238281 92.527344 194.882812 90.78125 196.570312 89.078125 C 198.257812 87.375 199.984375 85.714844 201.753906 84.097656 C 203.519531 82.480469 205.328125 80.90625 207.175781 79.378906 C 209.019531 77.851562 210.902344 76.367188 212.824219 74.933594 C 214.742188 73.5 216.695312 72.109375 218.683594 70.773438 C 220.671875 69.433594 222.691406 68.144531 224.746094 66.90625 C 226.796875 65.664062 228.878906 64.476562 230.988281 63.34375 C 233.097656 62.207031 235.234375 61.121094 237.398438 60.089844 C 239.5625 59.058594 241.75 58.082031 243.964844 57.160156 C 246.175781 56.238281 248.410156 55.371094 250.664062 54.558594 C 252.917969 53.746094 255.191406 52.992188 257.484375 52.289062 C 259.777344 51.589844 262.085938 50.949219 264.410156 50.363281 C 266.734375 49.777344 269.070312 49.246094 271.421875 48.777344 C 273.769531 48.304688 276.132812 47.894531 278.503906 47.539062 C 280.871094 47.1875 283.25 46.890625 285.636719 46.65625 C 288.019531 46.417969 290.410156 46.242188 292.804688 46.121094 C 295.199219 46.003906 297.59375 45.945312 299.992188 45.945312 C 302.386719 45.945312 304.78125 46.003906 307.175781 46.121094 C 309.570312 46.242188 311.960938 46.417969 314.34375 46.65625 C 316.730469 46.890625 319.109375 47.1875 321.480469 47.539062 C 323.851562 47.894531 326.210938 48.304688 328.558594 48.777344 C 330.910156 49.246094 333.246094 49.777344 335.570312 50.363281 C 337.894531 50.949219 340.203125 51.589844 342.496094 52.289062 C 344.789062 52.992188 347.0625 53.746094 349.316406 54.558594 C 351.574219 55.371094 353.804688 56.238281 356.019531 57.160156 C 358.230469 58.082031 360.417969 59.058594 362.582031 60.089844 C 364.746094 61.121094 366.882812 62.207031 368.996094 63.34375 C 371.105469 64.476562 373.1875 65.664062 375.238281 66.90625 C 377.289062 68.144531 379.308594 69.433594 381.296875 70.773438 C 383.285156 72.109375 385.238281 73.5 387.160156 74.933594 C 389.078125 76.367188 390.960938 77.851562 392.808594 79.378906 C 394.652344 80.90625 396.460938 82.480469 398.230469 84.097656 C 399.996094 85.714844 401.726562 87.375 403.410156 89.078125 C 405.097656 90.78125 406.742188 92.527344 408.34375 94.3125 C 409.941406 96.09375 411.496094 97.917969 413.007812 99.777344 C 414.519531 101.640625 415.980469 103.539062 417.398438 105.472656 C 418.816406 107.40625 420.183594 109.371094 421.503906 111.371094 C 422.824219 113.375 424.089844 115.40625 425.3125 117.46875 C 426.53125 119.535156 427.695312 121.625 428.8125 123.746094 C 429.929688 125.867188 430.992188 128.015625 432 130.191406 C 433.011719 132.363281 433.964844 134.5625 434.867188 136.78125 C 435.765625 139.003906 436.613281 141.246094 437.402344 143.507812 C 438.191406 145.769531 438.925781 148.050781 439.605469 150.351562 C 440.28125 152.648438 440.902344 154.964844 441.464844 157.292969 C 442.027344 159.625 442.535156 161.964844 442.980469 164.320312 C 443.429688 166.675781 443.820312 169.039062 444.148438 171.414062 C 444.480469 173.789062 444.75 176.167969 444.964844 178.554688 C 445.179688 180.945312 445.332031 183.335938 445.425781 185.730469 C 445.523438 188.125 445.558594 190.519531 445.535156 192.917969 L 445.535156 400.886719 L 455.9375 400.886719 L 455.9375 192.917969 C 455.933594 190.367188 455.871094 187.816406 455.742188 185.269531 C 455.613281 182.71875 455.421875 180.175781 455.171875 177.636719 C 454.917969 175.097656 454.601562 172.566406 454.226562 170.046875 C 453.851562 167.523438 453.410156 165.007812 452.910156 162.507812 C 452.410156 160.003906 451.851562 157.515625 451.230469 155.042969 C 450.605469 152.570312 449.925781 150.109375 449.183594 147.671875 C 448.441406 145.230469 447.636719 142.808594 446.777344 140.40625 C 445.917969 138.003906 444.996094 135.625 444.019531 133.269531 C 443.042969 130.914062 442.007812 128.582031 440.914062 126.277344 C 439.824219 123.96875 438.675781 121.691406 437.472656 119.441406 C 436.269531 117.195312 435.011719 114.976562 433.699219 112.789062 C 432.386719 110.597656 431.019531 108.445312 429.601562 106.324219 C 428.183594 104.203125 426.714844 102.117188 425.195312 100.070312 C 423.675781 98.019531 422.105469 96.011719 420.484375 94.039062 C 418.867188 92.066406 417.199219 90.136719 415.488281 88.246094 C 413.773438 86.355469 412.015625 84.507812 410.210938 82.703125 C 408.40625 80.898438 406.558594 79.140625 404.667969 77.425781 C 402.78125 75.714844 400.847656 74.046875 398.875 72.429688 C 396.90625 70.808594 394.894531 69.242188 392.84375 67.71875 C 390.796875 66.199219 388.710938 64.730469 386.589844 63.3125 C 384.46875 61.894531 382.316406 60.53125 380.128906 59.21875 C 377.941406 57.90625 375.722656 56.648438 373.472656 55.445312 C 371.222656 54.238281 368.945312 53.09375 366.640625 52 C 364.332031 50.90625 362 49.875 359.644531 48.894531 C 357.289062 47.917969 354.910156 47 352.507812 46.136719 C 350.105469 45.277344 347.683594 44.476562 345.246094 43.730469 C 342.804688 42.988281 340.347656 42.308594 337.871094 41.6875 C 335.398438 41.0625 332.910156 40.503906 330.40625 40.003906 C 327.90625 39.503906 325.394531 39.066406 322.871094 38.6875 C 320.347656 38.3125 317.816406 37.996094 315.277344 37.746094 C 312.738281 37.492188 310.195312 37.300781 307.648438 37.171875 C 305.097656 37.046875 302.550781 36.980469 299.996094 36.976562 Z M 299.996094 36.976562 " fill-opacity="1" fill-rule="nonzero"/></g></svg>