<svg xmlns="http://www.w3.org/2000/svg" xmlns:xlink="http://www.w3.org/1999/xlink" width="1200" zoomAndPan="magnify" viewBox="0 0 900 299.999988" height="400" preserveAspectRatio="xMidYMid meet" version="1.0"><defs><g/><clipPath id="5bf2482524"><path d="M 54 82 L 146 82 L 146 204.390625 L 54 204.390625 Z M 54 82 " clip-rule="nonzero"/></clipPath><clipPath id="46321903a9"><path d="M 42.875 70.890625 L 157.625 70.890625 L 157.625 204.390625 L 42.875 204.390625 Z M 42.875 70.890625 " clip-rule="nonzero"/></clipPath></defs><g fill="#ffffff" fill-opacity="1"><g transform="translate(217.44397, 135.450616)"><g><path d="M 28.625 0.921875 C 25.988281 0.921875 23.097656 0.722656 19.953125 0.328125 C 16.804688 -0.0664062 13.703125 -0.613281 10.640625 -1.3125 C 7.585938 -2.019531 4.851562 -2.835938 2.4375 -3.765625 L 2.90625 -14.25 C 6.375 -12.050781 10.304688 -10.410156 14.703125 -9.328125 C 19.097656 -8.253906 23.671875 -7.71875 28.421875 -7.71875 C 32.597656 -7.71875 35.992188 -8.125 38.609375 -8.9375 C 41.234375 -9.75 42.546875 -11.164062 42.546875 -13.1875 C 42.546875 -14.375 41.992188 -15.328125 40.890625 -16.046875 C 39.785156 -16.773438 38.300781 -17.347656 36.4375 -17.765625 C 34.570312 -18.191406 32.472656 -18.546875 30.140625 -18.828125 C 27.804688 -19.117188 25.410156 -19.4375 22.953125 -19.78125 C 20.492188 -20.132812 18.097656 -20.609375 15.765625 -21.203125 C 13.429688 -21.796875 11.328125 -22.597656 9.453125 -23.609375 C 7.585938 -24.617188 6.101562 -25.925781 5 -27.53125 C 3.90625 -29.132812 3.359375 -31.125 3.359375 -33.5 C 3.359375 -36.488281 4.445312 -38.984375 6.625 -40.984375 C 8.800781 -42.984375 11.734375 -44.5 15.421875 -45.53125 C 19.117188 -46.570312 23.191406 -47.09375 27.640625 -47.09375 C 30.140625 -47.09375 32.675781 -46.9375 35.25 -46.625 C 37.820312 -46.320312 40.257812 -45.894531 42.5625 -45.34375 C 44.875 -44.789062 46.890625 -44.140625 48.609375 -43.390625 L 48.609375 -33.640625 C 46.191406 -35.046875 43.132812 -36.1875 39.4375 -37.0625 C 35.75 -37.945312 31.945312 -38.390625 28.03125 -38.390625 C 25.570312 -38.390625 23.265625 -38.242188 21.109375 -37.953125 C 18.953125 -37.671875 17.222656 -37.164062 15.921875 -36.4375 C 14.628906 -35.707031 13.984375 -34.6875 13.984375 -33.375 C 13.984375 -32.144531 14.53125 -31.15625 15.625 -30.40625 C 16.726562 -29.65625 18.210938 -29.070312 20.078125 -28.65625 C 21.953125 -28.238281 24.050781 -27.875 26.375 -27.5625 C 28.707031 -27.257812 31.113281 -26.941406 33.59375 -26.609375 C 36.082031 -26.285156 38.492188 -25.835938 40.828125 -25.265625 C 43.160156 -24.691406 45.257812 -23.921875 47.125 -22.953125 C 48.988281 -21.984375 50.46875 -20.71875 51.5625 -19.15625 C 52.664062 -17.59375 53.21875 -15.625 53.21875 -13.25 C 53.21875 -10.3125 52.207031 -7.785156 50.1875 -5.671875 C 48.164062 -3.554688 45.316406 -1.925781 41.640625 -0.78125 C 37.972656 0.351562 33.632812 0.921875 28.625 0.921875 Z M 28.625 0.921875 "/></g></g></g><g fill="#ffffff" fill-opacity="1"><g transform="translate(296.977141, 135.450616)"><g><path d="M 5.34375 0 C 6.175781 -2.726562 6.59375 -6.421875 6.59375 -11.078125 L 6.59375 -35.09375 C 6.59375 -37.332031 6.472656 -39.414062 6.234375 -41.34375 C 5.992188 -43.28125 5.695312 -44.890625 5.34375 -46.171875 L 50.515625 -46.171875 L 52.171875 -36.203125 C 51.421875 -36.554688 50.304688 -36.84375 48.828125 -37.0625 C 47.359375 -37.28125 45.484375 -37.390625 43.203125 -37.390625 L 16.8125 -37.390625 L 16.8125 -27.4375 L 38.0625 -27.4375 C 41.09375 -27.4375 43.398438 -27.566406 44.984375 -27.828125 L 44.984375 -18.46875 C 43.398438 -18.726562 41.09375 -18.859375 38.0625 -18.859375 L 16.8125 -18.859375 L 16.8125 -8.765625 L 43.65625 -8.765625 C 46.25 -8.765625 48.335938 -8.914062 49.921875 -9.21875 C 51.503906 -9.53125 52.78125 -9.953125 53.75 -10.484375 L 51.84375 0 Z M 5.34375 0 "/></g></g></g><g fill="#ffffff" fill-opacity="1"><g transform="translate(377.301642, 135.450616)"><g><path d="M -0.796875 0 C 0.0859375 -1.269531 1.132812 -2.90625 2.34375 -4.90625 C 3.550781 -6.914062 4.703125 -8.972656 5.796875 -11.078125 L 18.328125 -35.09375 C 19.429688 -37.289062 20.28125 -39.363281 20.875 -41.3125 C 21.46875 -43.269531 21.875 -44.890625 22.09375 -46.171875 L 38.25 -46.171875 C 38.5625 -44.671875 39.015625 -42.910156 39.609375 -40.890625 C 40.203125 -38.867188 40.9375 -36.957031 41.8125 -35.15625 L 54.484375 -11.078125 C 55.578125 -8.921875 56.71875 -6.851562 57.90625 -4.875 C 59.09375 -2.894531 60.125 -1.269531 61 0 L 48.078125 0 C 47.941406 -0.875 47.65625 -1.882812 47.21875 -3.03125 C 46.78125 -4.175781 46.078125 -5.609375 45.109375 -7.328125 L 43.203125 -10.8125 L 17.015625 -10.8125 L 15.109375 -7.25 C 14.316406 -5.582031 13.65625 -4.175781 13.125 -3.03125 C 12.59375 -1.882812 12.265625 -0.875 12.140625 0 Z M 20.84375 -18.671875 L 39.375 -18.671875 L 33.234375 -30.46875 C 32.671875 -31.695312 32.164062 -32.894531 31.71875 -34.0625 C 31.28125 -35.226562 30.84375 -36.445312 30.40625 -37.71875 L 29.8125 -37.71875 C 29.375 -36.40625 28.929688 -35.175781 28.484375 -34.03125 C 28.046875 -32.882812 27.519531 -31.675781 26.90625 -30.40625 Z M 20.84375 -18.671875 "/></g></g></g><g fill="#ffffff" fill-opacity="1"><g transform="translate(461.253092, 135.450616)"><g><path d="M 32.453125 0.921875 C 26.648438 0.921875 21.523438 -0.0546875 17.078125 -2.015625 C 12.640625 -3.972656 9.175781 -6.726562 6.6875 -10.28125 C 4.207031 -13.84375 2.96875 -18.066406 2.96875 -22.953125 C 2.96875 -27.878906 4.226562 -32.144531 6.75 -35.75 C 9.28125 -39.351562 12.773438 -42.144531 17.234375 -44.125 C 21.703125 -46.101562 26.816406 -47.09375 32.578125 -47.09375 C 36.398438 -47.09375 39.960938 -46.769531 43.265625 -46.125 C 46.566406 -45.488281 49.554688 -44.664062 52.234375 -43.65625 L 51.703125 -34.359375 C 50.296875 -35.242188 48.613281 -35.96875 46.65625 -36.53125 C 44.707031 -37.101562 42.609375 -37.539062 40.359375 -37.84375 C 38.117188 -38.15625 35.898438 -38.3125 33.703125 -38.3125 C 29.703125 -38.3125 26.148438 -37.695312 23.046875 -36.46875 C 19.953125 -35.238281 17.523438 -33.46875 15.765625 -31.15625 C 14.003906 -28.851562 13.125 -26.117188 13.125 -22.953125 C 13.125 -19.867188 13.945312 -17.195312 15.59375 -14.9375 C 17.25 -12.675781 19.546875 -10.941406 22.484375 -9.734375 C 25.429688 -8.523438 28.84375 -7.921875 32.71875 -7.921875 C 35.707031 -7.921875 38.570312 -8.378906 41.3125 -9.296875 C 44.0625 -10.222656 46.207031 -11.5 47.75 -13.125 L 47.75 -18.671875 L 36.609375 -18.671875 C 35.640625 -18.671875 34.535156 -18.613281 33.296875 -18.5 C 32.066406 -18.382812 31.144531 -18.21875 30.53125 -18 L 31 -26.96875 L 57.515625 -26.96875 L 57.515625 -7.984375 C 55.003906 -5.296875 51.539062 -3.140625 47.125 -1.515625 C 42.707031 0.109375 37.816406 0.921875 32.453125 0.921875 Z M 32.453125 0.921875 "/></g></g></g><g fill="#ffffff" fill-opacity="1"><g transform="translate(545.732111, 135.450616)"><g><path d="M 40.09375 0.984375 C 37.59375 0.984375 35.285156 0.816406 33.171875 0.484375 C 31.066406 0.160156 28.945312 -0.148438 26.8125 -0.453125 C 24.675781 -0.765625 22.242188 -0.921875 19.515625 -0.921875 C 16.484375 -0.921875 13.75 -0.710938 11.3125 -0.296875 C 8.875 0.117188 6.882812 0.546875 5.34375 0.984375 C 5.738281 -0.328125 6.046875 -2.101562 6.265625 -4.34375 C 6.484375 -6.59375 6.59375 -8.835938 6.59375 -11.078125 L 6.59375 -35.09375 C 6.59375 -37.332031 6.472656 -39.414062 6.234375 -41.34375 C 5.992188 -43.28125 5.695312 -44.890625 5.34375 -46.171875 L 18 -46.171875 C 17.695312 -44.890625 17.421875 -43.101562 17.171875 -40.8125 C 16.929688 -38.53125 16.8125 -36.269531 16.8125 -34.03125 L 16.8125 -8.703125 L 36.9375 -8.703125 C 39.789062 -8.703125 42.4375 -8.878906 44.875 -9.234375 C 47.320312 -9.585938 49.226562 -10.050781 50.59375 -10.625 L 50 -0.46875 C 49.15625 -0.289062 47.8125 -0.00390625 45.96875 0.390625 C 44.125 0.785156 42.164062 0.984375 40.09375 0.984375 Z M 40.09375 0.984375 "/></g></g></g><g fill="#ffffff" fill-opacity="1"><g transform="translate(621.902119, 135.450616)"><g><path d="M -0.796875 0 C 0.0859375 -1.269531 1.132812 -2.90625 2.34375 -4.90625 C 3.550781 -6.914062 4.703125 -8.972656 5.796875 -11.078125 L 18.328125 -35.09375 C 19.429688 -37.289062 20.28125 -39.363281 20.875 -41.3125 C 21.46875 -43.269531 21.875 -44.890625 22.09375 -46.171875 L 38.25 -46.171875 C 38.5625 -44.671875 39.015625 -42.910156 39.609375 -40.890625 C 40.203125 -38.867188 40.9375 -36.957031 41.8125 -35.15625 L 54.484375 -11.078125 C 55.578125 -8.921875 56.71875 -6.851562 57.90625 -4.875 C 59.09375 -2.894531 60.125 -1.269531 61 0 L 48.078125 0 C 47.941406 -0.875 47.65625 -1.882812 47.21875 -3.03125 C 46.78125 -4.175781 46.078125 -5.609375 45.109375 -7.328125 L 43.203125 -10.8125 L 17.015625 -10.8125 L 15.109375 -7.25 C 14.316406 -5.582031 13.65625 -4.175781 13.125 -3.03125 C 12.59375 -1.882812 12.265625 -0.875 12.140625 0 Z M 20.84375 -18.671875 L 39.375 -18.671875 L 33.234375 -30.46875 C 32.671875 -31.695312 32.164062 -32.894531 31.71875 -34.0625 C 31.28125 -35.226562 30.84375 -36.445312 30.40625 -37.71875 L 29.8125 -37.71875 C 29.375 -36.40625 28.929688 -35.175781 28.484375 -34.03125 C 28.046875 -32.882812 27.519531 -31.675781 26.90625 -30.40625 Z M 20.84375 -18.671875 "/></g></g></g><g fill="#ffffff" fill-opacity="1"><g transform="translate(705.853569, 135.450616)"><g><path d="M 28.625 0.921875 C 25.988281 0.921875 23.097656 0.722656 19.953125 0.328125 C 16.804688 -0.0664062 13.703125 -0.613281 10.640625 -1.3125 C 7.585938 -2.019531 4.851562 -2.835938 2.4375 -3.765625 L 2.90625 -14.25 C 6.375 -12.050781 10.304688 -10.410156 14.703125 -9.328125 C 19.097656 -8.253906 23.671875 -7.71875 28.421875 -7.71875 C 32.597656 -7.71875 35.992188 -8.125 38.609375 -8.9375 C 41.234375 -9.75 42.546875 -11.164062 42.546875 -13.1875 C 42.546875 -14.375 41.992188 -15.328125 40.890625 -16.046875 C 39.785156 -16.773438 38.300781 -17.347656 36.4375 -17.765625 C 34.570312 -18.191406 32.472656 -18.546875 30.140625 -18.828125 C 27.804688 -19.117188 25.410156 -19.4375 22.953125 -19.78125 C 20.492188 -20.132812 18.097656 -20.609375 15.765625 -21.203125 C 13.429688 -21.796875 11.328125 -22.597656 9.453125 -23.609375 C 7.585938 -24.617188 6.101562 -25.925781 5 -27.53125 C 3.90625 -29.132812 3.359375 -31.125 3.359375 -33.5 C 3.359375 -36.488281 4.445312 -38.984375 6.625 -40.984375 C 8.800781 -42.984375 11.734375 -44.5 15.421875 -45.53125 C 19.117188 -46.570312 23.191406 -47.09375 27.640625 -47.09375 C 30.140625 -47.09375 32.675781 -46.9375 35.25 -46.625 C 37.820312 -46.320312 40.257812 -45.894531 42.5625 -45.34375 C 44.875 -44.789062 46.890625 -44.140625 48.609375 -43.390625 L 48.609375 -33.640625 C 46.191406 -35.046875 43.132812 -36.1875 39.4375 -37.0625 C 35.75 -37.945312 31.945312 -38.390625 28.03125 -38.390625 C 25.570312 -38.390625 23.265625 -38.242188 21.109375 -37.953125 C 18.953125 -37.671875 17.222656 -37.164062 15.921875 -36.4375 C 14.628906 -35.707031 13.984375 -34.6875 13.984375 -33.375 C 13.984375 -32.144531 14.53125 -31.15625 15.625 -30.40625 C 16.726562 -29.65625 18.210938 -29.070312 20.078125 -28.65625 C 21.953125 -28.238281 24.050781 -27.875 26.375 -27.5625 C 28.707031 -27.257812 31.113281 -26.941406 33.59375 -26.609375 C 36.082031 -26.285156 38.492188 -25.835938 40.828125 -25.265625 C 43.160156 -24.691406 45.257812 -23.921875 47.125 -22.953125 C 48.988281 -21.984375 50.46875 -20.71875 51.5625 -19.15625 C 52.664062 -17.59375 53.21875 -15.625 53.21875 -13.25 C 53.21875 -10.3125 52.207031 -7.785156 50.1875 -5.671875 C 48.164062 -3.554688 45.316406 -1.925781 41.640625 -0.78125 C 37.972656 0.351562 33.632812 0.921875 28.625 0.921875 Z M 28.625 0.921875 "/></g></g></g><g fill="#ffffff" fill-opacity="1"><g transform="translate(785.386752, 135.450616)"><g><path d="M 28.625 0.921875 C 25.988281 0.921875 23.097656 0.722656 19.953125 0.328125 C 16.804688 -0.0664062 13.703125 -0.613281 10.640625 -1.3125 C 7.585938 -2.019531 4.851562 -2.835938 2.4375 -3.765625 L 2.90625 -14.25 C 6.375 -12.050781 10.304688 -10.410156 14.703125 -9.328125 C 19.097656 -8.253906 23.671875 -7.71875 28.421875 -7.71875 C 32.597656 -7.71875 35.992188 -8.125 38.609375 -8.9375 C 41.234375 -9.75 42.546875 -11.164062 42.546875 -13.1875 C 42.546875 -14.375 41.992188 -15.328125 40.890625 -16.046875 C 39.785156 -16.773438 38.300781 -17.347656 36.4375 -17.765625 C 34.570312 -18.191406 32.472656 -18.546875 30.140625 -18.828125 C 27.804688 -19.117188 25.410156 -19.4375 22.953125 -19.78125 C 20.492188 -20.132812 18.097656 -20.609375 15.765625 -21.203125 C 13.429688 -21.796875 11.328125 -22.597656 9.453125 -23.609375 C 7.585938 -24.617188 6.101562 -25.925781 5 -27.53125 C 3.90625 -29.132812 3.359375 -31.125 3.359375 -33.5 C 3.359375 -36.488281 4.445312 -38.984375 6.625 -40.984375 C 8.800781 -42.984375 11.734375 -44.5 15.421875 -45.53125 C 19.117188 -46.570312 23.191406 -47.09375 27.640625 -47.09375 C 30.140625 -47.09375 32.675781 -46.9375 35.25 -46.625 C 37.820312 -46.320312 40.257812 -45.894531 42.5625 -45.34375 C 44.875 -44.789062 46.890625 -44.140625 48.609375 -43.390625 L 48.609375 -33.640625 C 46.191406 -35.046875 43.132812 -36.1875 39.4375 -37.0625 C 35.75 -37.945312 31.945312 -38.390625 28.03125 -38.390625 C 25.570312 -38.390625 23.265625 -38.242188 21.109375 -37.953125 C 18.953125 -37.671875 17.222656 -37.164062 15.921875 -36.4375 C 14.628906 -35.707031 13.984375 -34.6875 13.984375 -33.375 C 13.984375 -32.144531 14.53125 -31.15625 15.625 -30.40625 C 16.726562 -29.65625 18.210938 -29.070312 20.078125 -28.65625 C 21.953125 -28.238281 24.050781 -27.875 26.375 -27.5625 C 28.707031 -27.257812 31.113281 -26.941406 33.59375 -26.609375 C 36.082031 -26.285156 38.492188 -25.835938 40.828125 -25.265625 C 43.160156 -24.691406 45.257812 -23.921875 47.125 -22.953125 C 48.988281 -21.984375 50.46875 -20.71875 51.5625 -19.15625 C 52.664062 -17.59375 53.21875 -15.625 53.21875 -13.25 C 53.21875 -10.3125 52.207031 -7.785156 50.1875 -5.671875 C 48.164062 -3.554688 45.316406 -1.925781 41.640625 -0.78125 C 37.972656 0.351562 33.632812 0.921875 28.625 0.921875 Z M 28.625 0.921875 "/></g></g></g><g fill="#ffffff" fill-opacity="1"><g transform="translate(217.44397, 193.73538)"><g><path d="M 15.359375 0.421875 C 13.429688 0.421875 11.625 0.1875 9.9375 -0.28125 C 8.25 -0.757812 6.757812 -1.46875 5.46875 -2.40625 C 4.1875 -3.351562 3.179688 -4.507812 2.453125 -5.875 C 1.722656 -7.238281 1.359375 -8.8125 1.359375 -10.59375 C 1.359375 -12.375 1.71875 -13.953125 2.4375 -15.328125 C 3.15625 -16.703125 4.144531 -17.859375 5.40625 -18.796875 C 6.675781 -19.734375 8.148438 -20.445312 9.828125 -20.9375 C 11.503906 -21.425781 13.316406 -21.671875 15.265625 -21.671875 C 17.003906 -21.671875 18.644531 -21.5 20.1875 -21.15625 C 21.738281 -20.8125 23.039062 -20.363281 24.09375 -19.8125 L 23.703125 -15.265625 C 22.847656 -15.910156 21.726562 -16.445312 20.34375 -16.875 C 18.957031 -17.3125 17.457031 -17.53125 15.84375 -17.53125 C 14.019531 -17.53125 12.375 -17.253906 10.90625 -16.703125 C 9.4375 -16.148438 8.269531 -15.359375 7.40625 -14.328125 C 6.550781 -13.296875 6.125 -12.050781 6.125 -10.59375 C 6.125 -9.113281 6.566406 -7.863281 7.453125 -6.84375 C 8.347656 -5.820312 9.550781 -5.039062 11.0625 -4.5 C 12.582031 -3.96875 14.296875 -3.703125 16.203125 -3.703125 C 17.898438 -3.703125 19.519531 -3.929688 21.0625 -4.390625 C 22.613281 -4.859375 23.90625 -5.5 24.9375 -6.3125 L 24.9375 -1.421875 C 23.707031 -0.859375 22.28125 -0.410156 20.65625 -0.078125 C 19.039062 0.253906 17.273438 0.421875 15.359375 0.421875 Z M 15.359375 0.421875 "/></g></g></g><g fill="#ffffff" fill-opacity="1"><g transform="translate(254.307223, 193.73538)"><g><path d="M 18.453125 0.453125 C 17.296875 0.453125 16.234375 0.375 15.265625 0.21875 C 14.296875 0.0703125 13.316406 -0.0664062 12.328125 -0.203125 C 11.347656 -0.347656 10.234375 -0.421875 8.984375 -0.421875 C 7.585938 -0.421875 6.328125 -0.320312 5.203125 -0.125 C 4.078125 0.0625 3.160156 0.253906 2.453125 0.453125 C 2.640625 -0.148438 2.78125 -0.96875 2.875 -2 C 2.976562 -3.03125 3.03125 -4.0625 3.03125 -5.09375 L 3.03125 -16.140625 C 3.03125 -17.171875 2.972656 -18.128906 2.859375 -19.015625 C 2.753906 -19.910156 2.617188 -20.648438 2.453125 -21.234375 L 8.28125 -21.234375 C 8.144531 -20.648438 8.019531 -19.832031 7.90625 -18.78125 C 7.789062 -17.726562 7.734375 -16.6875 7.734375 -15.65625 L 7.734375 -4 L 17 -4 C 18.3125 -4 19.523438 -4.078125 20.640625 -4.234375 C 21.765625 -4.398438 22.644531 -4.617188 23.28125 -4.890625 L 23 -0.21875 C 22.613281 -0.132812 21.992188 -0.00390625 21.140625 0.171875 C 20.296875 0.359375 19.398438 0.453125 18.453125 0.453125 Z M 18.453125 0.453125 "/></g></g></g><g fill="#ffffff" fill-opacity="1"><g transform="translate(289.350063, 193.73538)"><g><path d="M 2.453125 0 C 2.835938 -1.25 3.03125 -2.945312 3.03125 -5.09375 L 3.03125 -16.140625 C 3.03125 -17.171875 2.972656 -18.128906 2.859375 -19.015625 C 2.753906 -19.910156 2.617188 -20.648438 2.453125 -21.234375 L 23.25 -21.234375 L 24 -16.65625 C 23.65625 -16.820312 23.144531 -16.953125 22.46875 -17.046875 C 21.789062 -17.148438 20.925781 -17.203125 19.875 -17.203125 L 7.734375 -17.203125 L 7.734375 -12.625 L 17.515625 -12.625 C 18.910156 -12.625 19.96875 -12.6875 20.6875 -12.8125 L 20.6875 -8.5 C 19.96875 -8.613281 18.910156 -8.671875 17.515625 -8.671875 L 7.734375 -8.671875 L 7.734375 -4.03125 L 20.09375 -4.03125 C 21.28125 -4.03125 22.238281 -4.097656 22.96875 -4.234375 C 23.695312 -4.378906 24.285156 -4.578125 24.734375 -4.828125 L 23.84375 0 Z M 2.453125 0 "/></g></g></g><g fill="#ffffff" fill-opacity="1"><g transform="translate(326.304338, 193.73538)"><g><path d="M -0.359375 0 C 0.046875 -0.582031 0.523438 -1.332031 1.078125 -2.25 C 1.628906 -3.175781 2.160156 -4.125 2.671875 -5.09375 L 8.4375 -16.140625 C 8.9375 -17.148438 9.320312 -18.101562 9.59375 -19 C 9.875 -19.90625 10.066406 -20.648438 10.171875 -21.234375 L 17.59375 -21.234375 C 17.738281 -20.546875 17.945312 -19.738281 18.21875 -18.8125 C 18.488281 -17.882812 18.828125 -17.003906 19.234375 -16.171875 L 25.0625 -5.09375 C 25.570312 -4.101562 26.097656 -3.148438 26.640625 -2.234375 C 27.191406 -1.328125 27.664062 -0.582031 28.0625 0 L 22.125 0 C 22.0625 -0.40625 21.925781 -0.867188 21.71875 -1.390625 C 21.519531 -1.921875 21.195312 -2.582031 20.75 -3.375 L 19.875 -4.96875 L 7.828125 -4.96875 L 6.953125 -3.34375 C 6.585938 -2.570312 6.28125 -1.921875 6.03125 -1.390625 C 5.789062 -0.867188 5.640625 -0.40625 5.578125 0 Z M 9.59375 -8.59375 L 18.109375 -8.59375 L 15.296875 -14.015625 C 15.035156 -14.585938 14.800781 -15.140625 14.59375 -15.671875 C 14.394531 -16.210938 14.191406 -16.773438 13.984375 -17.359375 L 13.71875 -17.359375 C 13.507812 -16.753906 13.304688 -16.1875 13.109375 -15.65625 C 12.910156 -15.132812 12.664062 -14.578125 12.375 -13.984375 Z M 9.59375 -8.59375 "/></g></g></g><g fill="#ffffff" fill-opacity="1"><g transform="translate(364.927304, 193.73538)"><g><path d="M 2.453125 0 C 2.617188 -0.582031 2.753906 -1.316406 2.859375 -2.203125 C 2.972656 -3.097656 3.03125 -4.0625 3.03125 -5.09375 L 3.03125 -16.140625 C 3.03125 -18.285156 2.835938 -19.984375 2.453125 -21.234375 L 7.953125 -21.234375 L 22.0625 -6.34375 L 22.453125 -6.34375 L 22.453125 -16.234375 C 22.453125 -17.285156 22.394531 -18.257812 22.28125 -19.15625 C 22.175781 -20.0625 22.050781 -20.753906 21.90625 -21.234375 L 27.734375 -21.234375 C 27.566406 -20.648438 27.429688 -19.910156 27.328125 -19.015625 C 27.234375 -18.128906 27.1875 -17.171875 27.1875 -16.140625 L 27.1875 0 L 22.84375 0 L 8.109375 -15.390625 L 7.734375 -15.390625 L 7.734375 -5.4375 C 7.734375 -4.382812 7.789062 -3.34375 7.90625 -2.3125 C 8.019531 -1.289062 8.144531 -0.519531 8.28125 0 Z M 2.453125 0 "/></g></g></g><g fill="#ffffff" fill-opacity="1"><g transform="translate(406.038162, 193.73538)"><g><path d="M 2.453125 0 C 2.640625 -0.582031 2.773438 -1.316406 2.859375 -2.203125 C 2.953125 -3.097656 3 -4.0625 3 -5.09375 L 3 -16.140625 C 3 -17.171875 2.945312 -18.128906 2.84375 -19.015625 C 2.75 -19.910156 2.617188 -20.648438 2.453125 -21.234375 L 8.28125 -21.234375 C 8.125 -20.648438 7.992188 -19.910156 7.890625 -19.015625 C 7.785156 -18.128906 7.734375 -17.171875 7.734375 -16.140625 L 7.734375 -5.09375 C 7.734375 -4.0625 7.785156 -3.097656 7.890625 -2.203125 C 7.992188 -1.316406 8.125 -0.582031 8.28125 0 Z M 2.453125 0 "/></g></g></g><g fill="#ffffff" fill-opacity="1"><g transform="translate(427.731355, 193.73538)"><g><path d="M 2.453125 0 C 2.617188 -0.582031 2.753906 -1.316406 2.859375 -2.203125 C 2.972656 -3.097656 3.03125 -4.0625 3.03125 -5.09375 L 3.03125 -16.140625 C 3.03125 -18.285156 2.835938 -19.984375 2.453125 -21.234375 L 7.953125 -21.234375 L 22.0625 -6.34375 L 22.453125 -6.34375 L 22.453125 -16.234375 C 22.453125 -17.285156 22.394531 -18.257812 22.28125 -19.15625 C 22.175781 -20.0625 22.050781 -20.753906 21.90625 -21.234375 L 27.734375 -21.234375 C 27.566406 -20.648438 27.429688 -19.910156 27.328125 -19.015625 C 27.234375 -18.128906 27.1875 -17.171875 27.1875 -16.140625 L 27.1875 0 L 22.84375 0 L 8.109375 -15.390625 L 7.734375 -15.390625 L 7.734375 -5.4375 C 7.734375 -4.382812 7.789062 -3.34375 7.90625 -2.3125 C 8.019531 -1.289062 8.144531 -0.519531 8.28125 0 Z M 2.453125 0 "/></g></g></g><g fill="#ffffff" fill-opacity="1"><g transform="translate(468.842213, 193.73538)"><g><path d="M 14.921875 0.421875 C 12.253906 0.421875 9.898438 -0.0234375 7.859375 -0.921875 C 5.816406 -1.828125 4.222656 -3.097656 3.078125 -4.734375 C 1.929688 -6.367188 1.359375 -8.3125 1.359375 -10.5625 C 1.359375 -12.820312 1.941406 -14.78125 3.109375 -16.4375 C 4.273438 -18.101562 5.882812 -19.390625 7.9375 -20.296875 C 9.988281 -21.210938 12.335938 -21.671875 14.984375 -21.671875 C 16.742188 -21.671875 18.382812 -21.519531 19.90625 -21.21875 C 21.425781 -20.925781 22.800781 -20.550781 24.03125 -20.09375 L 23.796875 -15.8125 C 23.140625 -16.21875 22.363281 -16.550781 21.46875 -16.8125 C 20.570312 -17.070312 19.601562 -17.269531 18.5625 -17.40625 C 17.53125 -17.550781 16.507812 -17.625 15.5 -17.625 C 13.664062 -17.625 12.035156 -17.34375 10.609375 -16.78125 C 9.179688 -16.21875 8.0625 -15.40625 7.25 -14.34375 C 6.4375 -13.28125 6.03125 -12.019531 6.03125 -10.5625 C 6.03125 -9.144531 6.410156 -7.914062 7.171875 -6.875 C 7.929688 -5.832031 8.988281 -5.03125 10.34375 -4.46875 C 11.695312 -3.914062 13.265625 -3.640625 15.046875 -3.640625 C 16.421875 -3.640625 17.738281 -3.851562 19 -4.28125 C 20.269531 -4.707031 21.257812 -5.289062 21.96875 -6.03125 L 21.96875 -8.59375 L 16.84375 -8.59375 C 16.394531 -8.59375 15.882812 -8.566406 15.3125 -8.515625 C 14.75 -8.460938 14.328125 -8.382812 14.046875 -8.28125 L 14.265625 -12.40625 L 26.453125 -12.40625 L 26.453125 -3.671875 C 25.304688 -2.441406 23.710938 -1.453125 21.671875 -0.703125 C 19.640625 0.046875 17.390625 0.421875 14.921875 0.421875 Z M 14.921875 0.421875 "/></g></g></g><g fill="#ffffff" fill-opacity="1"><g transform="translate(507.7079, 193.73538)"><g/></g></g><g fill="#ffffff" fill-opacity="1"><g transform="translate(527.155923, 193.73538)"><g><path d="M 13.171875 0.421875 C 11.953125 0.421875 10.617188 0.328125 9.171875 0.140625 C 7.734375 -0.0351562 6.3125 -0.285156 4.90625 -0.609375 C 3.5 -0.929688 2.238281 -1.304688 1.125 -1.734375 L 1.328125 -6.546875 C 2.929688 -5.535156 4.742188 -4.78125 6.765625 -4.28125 C 8.785156 -3.789062 10.890625 -3.546875 13.078125 -3.546875 C 14.992188 -3.546875 16.554688 -3.734375 17.765625 -4.109375 C 18.972656 -4.484375 19.578125 -5.132812 19.578125 -6.0625 C 19.578125 -6.613281 19.320312 -7.054688 18.8125 -7.390625 C 18.300781 -7.722656 17.613281 -7.984375 16.75 -8.171875 C 15.894531 -8.367188 14.929688 -8.53125 13.859375 -8.65625 C 12.796875 -8.789062 11.695312 -8.9375 10.5625 -9.09375 C 9.425781 -9.257812 8.320312 -9.476562 7.25 -9.75 C 6.175781 -10.03125 5.207031 -10.398438 4.34375 -10.859375 C 3.488281 -11.328125 2.804688 -11.929688 2.296875 -12.671875 C 1.796875 -13.410156 1.546875 -14.328125 1.546875 -15.421875 C 1.546875 -16.796875 2.046875 -17.941406 3.046875 -18.859375 C 4.046875 -19.773438 5.394531 -20.472656 7.09375 -20.953125 C 8.800781 -21.429688 10.675781 -21.671875 12.71875 -21.671875 C 13.863281 -21.671875 15.03125 -21.597656 16.21875 -21.453125 C 17.40625 -21.304688 18.53125 -21.109375 19.59375 -20.859375 C 20.65625 -20.609375 21.578125 -20.3125 22.359375 -19.96875 L 22.359375 -15.46875 C 21.242188 -16.125 19.835938 -16.648438 18.140625 -17.046875 C 16.441406 -17.453125 14.691406 -17.65625 12.890625 -17.65625 C 11.765625 -17.65625 10.703125 -17.585938 9.703125 -17.453125 C 8.710938 -17.328125 7.921875 -17.097656 7.328125 -16.765625 C 6.734375 -16.429688 6.4375 -15.960938 6.4375 -15.359375 C 6.4375 -14.785156 6.6875 -14.328125 7.1875 -13.984375 C 7.695312 -13.640625 8.378906 -13.367188 9.234375 -13.171875 C 10.097656 -12.984375 11.066406 -12.816406 12.140625 -12.671875 C 13.210938 -12.535156 14.316406 -12.390625 15.453125 -12.234375 C 16.597656 -12.085938 17.707031 -11.882812 18.78125 -11.625 C 19.851562 -11.363281 20.816406 -11.007812 21.671875 -10.5625 C 22.535156 -10.113281 23.21875 -9.53125 23.71875 -8.8125 C 24.226562 -8.09375 24.484375 -7.1875 24.484375 -6.09375 C 24.484375 -4.738281 24.019531 -3.578125 23.09375 -2.609375 C 22.164062 -1.640625 20.851562 -0.890625 19.15625 -0.359375 C 17.46875 0.160156 15.472656 0.421875 13.171875 0.421875 Z M 13.171875 0.421875 "/></g></g></g><g fill="#ffffff" fill-opacity="1"><g transform="translate(563.746105, 193.73538)"><g><path d="M 2.453125 0 C 2.835938 -1.25 3.03125 -2.945312 3.03125 -5.09375 L 3.03125 -16.140625 C 3.03125 -17.171875 2.972656 -18.128906 2.859375 -19.015625 C 2.753906 -19.910156 2.617188 -20.648438 2.453125 -21.234375 L 23.25 -21.234375 L 24 -16.65625 C 23.65625 -16.820312 23.144531 -16.953125 22.46875 -17.046875 C 21.789062 -17.148438 20.925781 -17.203125 19.875 -17.203125 L 7.734375 -17.203125 L 7.734375 -12.625 L 17.515625 -12.625 C 18.910156 -12.625 19.96875 -12.6875 20.6875 -12.8125 L 20.6875 -8.5 C 19.96875 -8.613281 18.910156 -8.671875 17.515625 -8.671875 L 7.734375 -8.671875 L 7.734375 -4.03125 L 20.09375 -4.03125 C 21.28125 -4.03125 22.238281 -4.097656 22.96875 -4.234375 C 23.695312 -4.378906 24.285156 -4.578125 24.734375 -4.828125 L 23.84375 0 Z M 2.453125 0 "/></g></g></g><g fill="#ffffff" fill-opacity="1"><g transform="translate(600.700386, 193.73538)"><g><path d="M 24.390625 0.453125 C 23.265625 0.453125 22.351562 0.296875 21.65625 -0.015625 C 20.957031 -0.328125 20.390625 -0.742188 19.953125 -1.265625 C 19.515625 -1.796875 19.140625 -2.375 18.828125 -3 C 18.515625 -3.625 18.203125 -4.242188 17.890625 -4.859375 C 17.578125 -5.484375 17.175781 -6.054688 16.6875 -6.578125 C 16.195312 -7.109375 15.5625 -7.53125 14.78125 -7.84375 C 14.007812 -8.15625 13 -8.3125 11.75 -8.3125 C 11.457031 -8.3125 11.035156 -8.300781 10.484375 -8.28125 C 9.941406 -8.257812 9.410156 -8.234375 8.890625 -8.203125 C 8.378906 -8.171875 8.003906 -8.117188 7.765625 -8.046875 L 7.765625 -4.890625 C 7.765625 -2.847656 7.945312 -1.21875 8.3125 0 L 2.484375 0 C 2.648438 -0.601562 2.78125 -1.34375 2.875 -2.21875 C 2.976562 -3.101562 3.03125 -4.0625 3.03125 -5.09375 L 3.03125 -16.140625 C 3.03125 -17.171875 2.976562 -18.128906 2.875 -19.015625 C 2.78125 -19.910156 2.648438 -20.648438 2.484375 -21.234375 L 17.171875 -21.234375 C 18.867188 -21.234375 20.363281 -21.019531 21.65625 -20.59375 C 22.957031 -20.175781 23.972656 -19.550781 24.703125 -18.71875 C 25.429688 -17.894531 25.796875 -16.882812 25.796875 -15.6875 C 25.796875 -14.550781 25.453125 -13.539062 24.765625 -12.65625 C 24.078125 -11.78125 23.117188 -11.09375 21.890625 -10.59375 C 20.671875 -10.101562 19.238281 -9.859375 17.59375 -9.859375 L 15.75 -9.859375 L 15.75 -9.625 L 15.984375 -9.625 C 17.054688 -9.625 17.945312 -9.488281 18.65625 -9.21875 C 19.363281 -8.957031 19.953125 -8.625 20.421875 -8.21875 C 20.890625 -7.8125 21.289062 -7.378906 21.625 -6.921875 C 21.957031 -6.472656 22.273438 -6.046875 22.578125 -5.640625 C 22.878906 -5.234375 23.21875 -4.898438 23.59375 -4.640625 C 23.96875 -4.378906 24.425781 -4.25 24.96875 -4.25 C 25.800781 -4.25 26.425781 -4.441406 26.84375 -4.828125 C 27.269531 -5.210938 27.617188 -5.726562 27.890625 -6.375 L 28.09375 -1.125 C 27.75 -0.65625 27.238281 -0.273438 26.5625 0.015625 C 25.882812 0.304688 25.160156 0.453125 24.390625 0.453125 Z M 7.765625 -11.6875 L 16.484375 -11.6875 C 17.878906 -11.6875 18.988281 -11.921875 19.8125 -12.390625 C 20.644531 -12.867188 21.0625 -13.539062 21.0625 -14.40625 C 21.0625 -15.257812 20.660156 -15.925781 19.859375 -16.40625 C 19.054688 -16.894531 18 -17.140625 16.6875 -17.140625 L 7.765625 -17.140625 Z M 7.765625 -11.6875 "/></g></g></g><g fill="#ffffff" fill-opacity="1"><g transform="translate(640.051539, 193.73538)"><g><path d="M 10.171875 0 C 10.023438 -0.726562 9.796875 -1.546875 9.484375 -2.453125 C 9.171875 -3.367188 8.84375 -4.238281 8.5 -5.0625 L 2.703125 -16.140625 C 2.253906 -17.171875 1.789062 -18.128906 1.3125 -19.015625 C 0.84375 -19.910156 0.40625 -20.648438 0 -21.234375 L 6.015625 -21.234375 C 6.066406 -20.816406 6.164062 -20.332031 6.3125 -19.78125 C 6.46875 -19.238281 6.726562 -18.5625 7.09375 -17.75 L 12.375 -7.375 C 12.625 -6.8125 12.863281 -6.269531 13.09375 -5.75 C 13.320312 -5.226562 13.539062 -4.6875 13.75 -4.125 L 13.984375 -4.125 C 14.210938 -4.707031 14.425781 -5.253906 14.625 -5.765625 C 14.820312 -6.273438 15.054688 -6.8125 15.328125 -7.375 L 20.609375 -17.75 C 20.953125 -18.5625 21.203125 -19.238281 21.359375 -19.78125 C 21.523438 -20.332031 21.644531 -20.816406 21.71875 -21.234375 L 27.546875 -21.234375 C 27.128906 -20.648438 26.691406 -19.910156 26.234375 -19.015625 C 25.773438 -18.128906 25.3125 -17.171875 24.84375 -16.140625 L 19.0625 -5.09375 C 18.613281 -4.082031 18.242188 -3.128906 17.953125 -2.234375 C 17.660156 -1.347656 17.460938 -0.601562 17.359375 0 Z M 10.171875 0 "/></g></g></g><g fill="#ffffff" fill-opacity="1"><g transform="translate(678.522839, 193.73538)"><g><path d="M 2.453125 0 C 2.640625 -0.582031 2.773438 -1.316406 2.859375 -2.203125 C 2.953125 -3.097656 3 -4.0625 3 -5.09375 L 3 -16.140625 C 3 -17.171875 2.945312 -18.128906 2.84375 -19.015625 C 2.75 -19.910156 2.617188 -20.648438 2.453125 -21.234375 L 8.28125 -21.234375 C 8.125 -20.648438 7.992188 -19.910156 7.890625 -19.015625 C 7.785156 -18.128906 7.734375 -17.171875 7.734375 -16.140625 L 7.734375 -5.09375 C 7.734375 -4.0625 7.785156 -3.097656 7.890625 -2.203125 C 7.992188 -1.316406 8.125 -0.582031 8.28125 0 Z M 2.453125 0 "/></g></g></g><g fill="#ffffff" fill-opacity="1"><g transform="translate(700.216033, 193.73538)"><g><path d="M 15.359375 0.421875 C 13.429688 0.421875 11.625 0.1875 9.9375 -0.28125 C 8.25 -0.757812 6.757812 -1.46875 5.46875 -2.40625 C 4.1875 -3.351562 3.179688 -4.507812 2.453125 -5.875 C 1.722656 -7.238281 1.359375 -8.8125 1.359375 -10.59375 C 1.359375 -12.375 1.71875 -13.953125 2.4375 -15.328125 C 3.15625 -16.703125 4.144531 -17.859375 5.40625 -18.796875 C 6.675781 -19.734375 8.148438 -20.445312 9.828125 -20.9375 C 11.503906 -21.425781 13.316406 -21.671875 15.265625 -21.671875 C 17.003906 -21.671875 18.644531 -21.5 20.1875 -21.15625 C 21.738281 -20.8125 23.039062 -20.363281 24.09375 -19.8125 L 23.703125 -15.265625 C 22.847656 -15.910156 21.726562 -16.445312 20.34375 -16.875 C 18.957031 -17.3125 17.457031 -17.53125 15.84375 -17.53125 C 14.019531 -17.53125 12.375 -17.253906 10.90625 -16.703125 C 9.4375 -16.148438 8.269531 -15.359375 7.40625 -14.328125 C 6.550781 -13.296875 6.125 -12.050781 6.125 -10.59375 C 6.125 -9.113281 6.566406 -7.863281 7.453125 -6.84375 C 8.347656 -5.820312 9.550781 -5.039062 11.0625 -4.5 C 12.582031 -3.96875 14.296875 -3.703125 16.203125 -3.703125 C 17.898438 -3.703125 19.519531 -3.929688 21.0625 -4.390625 C 22.613281 -4.859375 23.90625 -5.5 24.9375 -6.3125 L 24.9375 -1.421875 C 23.707031 -0.859375 22.28125 -0.410156 20.65625 -0.078125 C 19.039062 0.253906 17.273438 0.421875 15.359375 0.421875 Z M 15.359375 0.421875 "/></g></g></g><g fill="#ffffff" fill-opacity="1"><g transform="translate(737.079283, 193.73538)"><g><path d="M 2.453125 0 C 2.835938 -1.25 3.03125 -2.945312 3.03125 -5.09375 L 3.03125 -16.140625 C 3.03125 -17.171875 2.972656 -18.128906 2.859375 -19.015625 C 2.753906 -19.910156 2.617188 -20.648438 2.453125 -21.234375 L 23.25 -21.234375 L 24 -16.65625 C 23.65625 -16.820312 23.144531 -16.953125 22.46875 -17.046875 C 21.789062 -17.148438 20.925781 -17.203125 19.875 -17.203125 L 7.734375 -17.203125 L 7.734375 -12.625 L 17.515625 -12.625 C 18.910156 -12.625 19.96875 -12.6875 20.6875 -12.8125 L 20.6875 -8.5 C 19.96875 -8.613281 18.910156 -8.671875 17.515625 -8.671875 L 7.734375 -8.671875 L 7.734375 -4.03125 L 20.09375 -4.03125 C 21.28125 -4.03125 22.238281 -4.097656 22.96875 -4.234375 C 23.695312 -4.378906 24.285156 -4.578125 24.734375 -4.828125 L 23.84375 0 Z M 2.453125 0 "/></g></g></g><g fill="#ffffff" fill-opacity="1"><g transform="translate(774.033564, 193.73538)"><g><path d="M 13.171875 0.421875 C 11.953125 0.421875 10.617188 0.328125 9.171875 0.140625 C 7.734375 -0.0351562 6.3125 -0.285156 4.90625 -0.609375 C 3.5 -0.929688 2.238281 -1.304688 1.125 -1.734375 L 1.328125 -6.546875 C 2.929688 -5.535156 4.742188 -4.78125 6.765625 -4.28125 C 8.785156 -3.789062 10.890625 -3.546875 13.078125 -3.546875 C 14.992188 -3.546875 16.554688 -3.734375 17.765625 -4.109375 C 18.972656 -4.484375 19.578125 -5.132812 19.578125 -6.0625 C 19.578125 -6.613281 19.320312 -7.054688 18.8125 -7.390625 C 18.300781 -7.722656 17.613281 -7.984375 16.75 -8.171875 C 15.894531 -8.367188 14.929688 -8.53125 13.859375 -8.65625 C 12.796875 -8.789062 11.695312 -8.9375 10.5625 -9.09375 C 9.425781 -9.257812 8.320312 -9.476562 7.25 -9.75 C 6.175781 -10.03125 5.207031 -10.398438 4.34375 -10.859375 C 3.488281 -11.328125 2.804688 -11.929688 2.296875 -12.671875 C 1.796875 -13.410156 1.546875 -14.328125 1.546875 -15.421875 C 1.546875 -16.796875 2.046875 -17.941406 3.046875 -18.859375 C 4.046875 -19.773438 5.394531 -20.472656 7.09375 -20.953125 C 8.800781 -21.429688 10.675781 -21.671875 12.71875 -21.671875 C 13.863281 -21.671875 15.03125 -21.597656 16.21875 -21.453125 C 17.40625 -21.304688 18.53125 -21.109375 19.59375 -20.859375 C 20.65625 -20.609375 21.578125 -20.3125 22.359375 -19.96875 L 22.359375 -15.46875 C 21.242188 -16.125 19.835938 -16.648438 18.140625 -17.046875 C 16.441406 -17.453125 14.691406 -17.65625 12.890625 -17.65625 C 11.765625 -17.65625 10.703125 -17.585938 9.703125 -17.453125 C 8.710938 -17.328125 7.921875 -17.097656 7.328125 -16.765625 C 6.734375 -16.429688 6.4375 -15.960938 6.4375 -15.359375 C 6.4375 -14.785156 6.6875 -14.328125 7.1875 -13.984375 C 7.695312 -13.640625 8.378906 -13.367188 9.234375 -13.171875 C 10.097656 -12.984375 11.066406 -12.816406 12.140625 -12.671875 C 13.210938 -12.535156 14.316406 -12.390625 15.453125 -12.234375 C 16.597656 -12.085938 17.707031 -11.882812 18.78125 -11.625 C 19.851562 -11.363281 20.816406 -11.007812 21.671875 -10.5625 C 22.535156 -10.113281 23.21875 -9.53125 23.71875 -8.8125 C 24.226562 -8.09375 24.484375 -7.1875 24.484375 -6.09375 C 24.484375 -4.738281 24.019531 -3.578125 23.09375 -2.609375 C 22.164062 -1.640625 20.851562 -0.890625 19.15625 -0.359375 C 17.46875 0.160156 15.472656 0.421875 13.171875 0.421875 Z M 13.171875 0.421875 "/></g></g></g><g clip-path="url(#5bf2482524)"><path fill="#ffffff" d="M 100.105469 82.324219 C 98.605469 82.324219 97.113281 82.398438 95.621094 82.546875 C 94.132812 82.695312 92.652344 82.917969 91.183594 83.210938 C 89.71875 83.503906 88.265625 83.867188 86.832031 84.304688 C 85.402344 84.738281 83.992188 85.242188 82.609375 85.816406 C 81.226562 86.390625 79.875 87.03125 78.554688 87.738281 C 77.234375 88.445312 75.953125 89.214844 74.707031 90.046875 C 73.464844 90.878906 72.261719 91.769531 71.105469 92.71875 C 69.945312 93.667969 68.839844 94.671875 67.78125 95.734375 C 66.722656 96.792969 65.71875 97.898438 64.765625 99.058594 C 63.816406 100.214844 62.925781 101.414062 62.09375 102.660156 C 61.261719 103.90625 60.492188 105.1875 59.785156 106.507812 C 59.078125 107.828125 58.4375 109.179688 57.863281 110.5625 C 57.292969 111.945312 56.785156 113.355469 56.351562 114.785156 C 55.914062 116.21875 55.550781 117.667969 55.257812 119.136719 C 54.964844 120.605469 54.742188 122.085938 54.59375 123.574219 C 54.445312 125.066406 54.371094 126.558594 54.371094 128.054688 L 54.371094 204.292969 L 58.183594 204.292969 L 58.183594 175.695312 L 98.199219 175.695312 L 98.199219 204.292969 L 102.003906 204.292969 L 102.003906 175.695312 L 142.023438 175.695312 L 142.023438 204.292969 L 145.832031 204.292969 L 145.832031 128.054688 C 145.832031 126.558594 145.757812 125.066406 145.609375 123.574219 C 145.460938 122.085938 145.238281 120.605469 144.945312 119.136719 C 144.652344 117.671875 144.289062 116.21875 143.851562 114.785156 C 143.417969 113.355469 142.914062 111.945312 142.339844 110.5625 C 141.765625 109.179688 141.125 107.828125 140.417969 106.507812 C 139.710938 105.1875 138.941406 103.90625 138.109375 102.660156 C 137.277344 101.417969 136.386719 100.214844 135.4375 99.058594 C 134.488281 97.902344 133.484375 96.792969 132.425781 95.734375 C 131.367188 94.675781 130.257812 93.671875 129.101562 92.722656 C 127.945312 91.769531 126.742188 90.878906 125.496094 90.046875 C 124.253906 89.214844 122.972656 88.445312 121.652344 87.738281 C 120.332031 87.03125 118.980469 86.394531 117.597656 85.820312 C 116.214844 85.246094 114.804688 84.738281 113.375 84.304688 C 111.941406 83.867188 110.492188 83.503906 109.023438 83.210938 C 107.554688 82.917969 106.074219 82.695312 104.585938 82.546875 C 103.09375 82.398438 101.601562 82.324219 100.105469 82.324219 Z M 100.105469 86.136719 C 101.210938 86.136719 102.320312 86.183594 103.425781 86.273438 C 104.53125 86.359375 105.628906 86.492188 106.722656 86.667969 C 107.816406 86.84375 108.902344 87.0625 109.980469 87.324219 C 111.058594 87.589844 112.125 87.890625 113.175781 88.238281 C 114.230469 88.585938 115.265625 88.972656 116.289062 89.402344 C 117.3125 89.828125 118.316406 90.296875 119.300781 90.804688 C 120.285156 91.3125 121.25 91.859375 122.191406 92.445312 C 123.132812 93.027344 124.050781 93.648438 124.945312 94.304688 C 125.835938 94.964844 126.703125 95.65625 127.542969 96.378906 C 128.378906 97.105469 129.1875 97.863281 129.964844 98.652344 C 130.742188 99.441406 131.488281 100.261719 132.203125 101.109375 C 132.917969 101.957031 133.59375 102.835938 134.238281 103.738281 C 134.882812 104.640625 135.488281 105.566406 136.0625 106.515625 C 136.632812 107.464844 137.164062 108.4375 137.65625 109.429688 C 138.152344 110.421875 138.605469 111.433594 139.019531 112.460938 C 139.433594 113.492188 139.804688 114.535156 140.136719 115.589844 L 58.183594 170.226562 L 58.183594 128.054688 C 58.183594 126.683594 58.253906 125.316406 58.390625 123.949219 C 58.527344 122.582031 58.726562 121.226562 58.996094 119.882812 C 59.265625 118.535156 59.601562 117.207031 60 115.894531 C 60.398438 114.578125 60.859375 113.289062 61.386719 112.019531 C 61.914062 110.753906 62.5 109.515625 63.148438 108.304688 C 63.792969 107.09375 64.5 105.917969 65.261719 104.777344 C 66.027344 103.636719 66.84375 102.535156 67.714844 101.476562 C 68.585938 100.414062 69.503906 99.398438 70.476562 98.425781 C 71.445312 97.457031 72.460938 96.535156 73.523438 95.664062 C 74.582031 94.792969 75.683594 93.976562 76.824219 93.214844 C 77.964844 92.453125 79.140625 91.746094 80.351562 91.097656 C 81.5625 90.453125 82.800781 89.867188 84.070312 89.339844 C 85.335938 88.8125 86.628906 88.351562 87.941406 87.953125 C 89.253906 87.550781 90.582031 87.21875 91.929688 86.949219 C 93.273438 86.679688 94.628906 86.476562 95.996094 86.34375 C 97.363281 86.207031 98.730469 86.136719 100.105469 86.136719 Z M 62.574219 171.878906 L 98.214844 148.132812 L 98.214844 171.878906 Z M 102.007812 171.878906 L 102.007812 145.59375 L 141.144531 119.503906 C 141.730469 122.324219 142.023438 125.175781 142.023438 128.054688 L 142.023438 171.878906 Z M 102.007812 171.878906 " fill-opacity="1" fill-rule="nonzero"/></g><g clip-path="url(#46321903a9)"><path fill="#ffffff" d="M 100.105469 70.890625 C 98.230469 70.894531 96.367188 70.988281 94.503906 71.171875 C 92.640625 71.359375 90.792969 71.632812 88.957031 72 C 87.121094 72.367188 85.308594 72.820312 83.515625 73.367188 C 81.726562 73.910156 79.964844 74.542969 78.238281 75.257812 C 76.507812 75.976562 74.820312 76.777344 73.167969 77.660156 C 71.519531 78.542969 69.914062 79.503906 68.359375 80.542969 C 66.804688 81.585938 65.300781 82.699219 63.855469 83.886719 C 62.410156 85.074219 61.023438 86.328125 59.699219 87.652344 C 58.375 88.976562 57.121094 90.359375 55.933594 91.808594 C 54.746094 93.253906 53.632812 94.753906 52.59375 96.3125 C 51.550781 97.867188 50.589844 99.472656 49.707031 101.121094 C 48.824219 102.769531 48.023438 104.460938 47.308594 106.191406 C 46.589844 107.917969 45.957031 109.679688 45.414062 111.46875 C 44.871094 113.261719 44.414062 115.074219 44.046875 116.910156 C 43.679688 118.742188 43.40625 120.59375 43.21875 122.457031 C 43.035156 124.316406 42.941406 126.183594 42.9375 128.054688 L 42.9375 204.292969 L 46.746094 204.292969 L 46.746094 128.054688 C 46.730469 126.296875 46.800781 124.542969 46.957031 122.792969 C 47.113281 121.039062 47.355469 119.300781 47.683594 117.574219 C 48.011719 115.847656 48.425781 114.140625 48.921875 112.453125 C 49.417969 110.765625 49.996094 109.109375 50.660156 107.476562 C 51.320312 105.847656 52.058594 104.257812 52.878906 102.699219 C 53.695312 101.144531 54.589844 99.632812 55.558594 98.164062 C 56.523438 96.695312 57.5625 95.277344 58.671875 93.914062 C 59.78125 92.546875 60.953125 91.242188 62.1875 89.992188 C 63.425781 88.742188 64.722656 87.558594 66.078125 86.433594 C 67.429688 85.3125 68.835938 84.261719 70.296875 83.28125 C 71.753906 82.296875 73.257812 81.390625 74.804688 80.554688 C 76.355469 79.722656 77.941406 78.96875 79.5625 78.289062 C 81.1875 77.613281 82.835938 77.019531 84.519531 76.503906 C 86.203125 75.992188 87.902344 75.5625 89.628906 75.21875 C 91.351562 74.871094 93.089844 74.613281 94.839844 74.4375 C 96.589844 74.265625 98.34375 74.179688 100.101562 74.179688 C 101.859375 74.179688 103.613281 74.265625 105.363281 74.4375 C 107.113281 74.613281 108.851562 74.871094 110.574219 75.21875 C 112.296875 75.5625 114 75.992188 115.683594 76.503906 C 117.363281 77.019531 119.015625 77.613281 120.640625 78.289062 C 122.261719 78.96875 123.847656 79.722656 125.398438 80.554688 C 126.945312 81.390625 128.449219 82.296875 129.90625 83.28125 C 131.367188 84.261719 132.773438 85.3125 134.125 86.433594 C 135.480469 87.558594 136.777344 88.742188 138.015625 89.992188 C 139.25 91.242188 140.421875 92.546875 141.53125 93.914062 C 142.640625 95.277344 143.675781 96.695312 144.644531 98.164062 C 145.613281 99.632812 146.507812 101.144531 147.324219 102.699219 C 148.144531 104.257812 148.882812 105.847656 149.542969 107.476562 C 150.207031 109.109375 150.785156 110.765625 151.28125 112.453125 C 151.777344 114.140625 152.191406 115.847656 152.519531 117.574219 C 152.847656 119.300781 153.089844 121.039062 153.246094 122.792969 C 153.402344 124.542969 153.472656 126.296875 153.457031 128.054688 L 153.457031 204.292969 L 157.269531 204.292969 L 157.269531 128.054688 C 157.265625 126.183594 157.171875 124.316406 156.988281 122.457031 C 156.800781 120.59375 156.527344 118.742188 156.160156 116.910156 C 155.792969 115.074219 155.335938 113.261719 154.792969 111.46875 C 154.246094 109.679688 153.617188 107.917969 152.898438 106.191406 C 152.183594 104.460938 151.382812 102.773438 150.5 101.121094 C 149.617188 99.472656 148.65625 97.867188 147.613281 96.3125 C 146.574219 94.757812 145.460938 93.253906 144.273438 91.808594 C 143.085938 90.363281 141.828125 88.976562 140.507812 87.652344 C 139.183594 86.332031 137.796875 85.074219 136.351562 83.886719 C 134.90625 82.699219 133.402344 81.585938 131.847656 80.546875 C 130.292969 79.503906 128.6875 78.542969 127.039062 77.660156 C 125.386719 76.777344 123.699219 75.976562 121.96875 75.261719 C 120.242188 74.542969 118.480469 73.914062 116.691406 73.367188 C 114.898438 72.824219 113.085938 72.367188 111.25 72 C 109.417969 71.632812 107.566406 71.359375 105.707031 71.171875 C 103.84375 70.988281 101.976562 70.894531 100.105469 70.890625 Z M 100.105469 70.890625 " fill-opacity="1" fill-rule="nonzero"/></g></svg>