<svg xmlns="http://www.w3.org/2000/svg" xmlns:xlink="http://www.w3.org/1999/xlink" width="250" zoomAndPan="magnify" viewBox="0 0 187.5 112.499997" height="150" preserveAspectRatio="xMidYMid meet" version="1.0"><defs><g/><clipPath id="897bee2a34"><path d="M 0.164062 0 L 186.835938 0 L 186.835938 112.003906 L 0.164062 112.003906 Z M 0.164062 0 " clip-rule="nonzero"/></clipPath><clipPath id="dadc31ae9d"><path d="M 70 12 L 117 12 L 117 74.851562 L 70 74.851562 Z M 70 12 " clip-rule="nonzero"/></clipPath><clipPath id="4dc8fcf36c"><path d="M 64.355469 6.902344 L 122.597656 6.902344 L 122.597656 74.851562 L 64.355469 74.851562 Z M 64.355469 6.902344 " clip-rule="nonzero"/></clipPath></defs><g clip-path="url(#897bee2a34)"><path fill="#ffffff" d="M 0.164062 0 L 186.835938 0 L 186.835938 112.003906 L 0.164062 112.003906 Z M 0.164062 0 " fill-opacity="1" fill-rule="nonzero"/><path fill="#000000" d="M 0.164062 0 L 186.835938 0 L 186.835938 112.003906 L 0.164062 112.003906 Z M 0.164062 0 " fill-opacity="1" fill-rule="nonzero"/></g><g fill="#ffffff" fill-opacity="1"><g transform="translate(52.303592, 89.489702)"><g><path d="M 3.78125 0.125 C 3.4375 0.125 3.054688 0.0976562 2.640625 0.046875 C 2.222656 -0.00390625 1.8125 -0.078125 1.40625 -0.171875 C 1 -0.265625 0.640625 -0.375 0.328125 -0.5 L 0.390625 -1.890625 C 0.847656 -1.597656 1.363281 -1.378906 1.9375 -1.234375 C 2.519531 -1.085938 3.125 -1.015625 3.75 -1.015625 C 4.3125 -1.015625 4.765625 -1.066406 5.109375 -1.171875 C 5.453125 -1.285156 5.625 -1.476562 5.625 -1.75 C 5.625 -1.90625 5.550781 -2.03125 5.40625 -2.125 C 5.257812 -2.21875 5.0625 -2.289062 4.8125 -2.34375 C 4.570312 -2.40625 4.296875 -2.453125 3.984375 -2.484375 C 3.671875 -2.523438 3.351562 -2.566406 3.03125 -2.609375 C 2.707031 -2.660156 2.390625 -2.722656 2.078125 -2.796875 C 1.773438 -2.878906 1.5 -2.988281 1.25 -3.125 C 1 -3.257812 0.800781 -3.429688 0.65625 -3.640625 C 0.507812 -3.847656 0.4375 -4.109375 0.4375 -4.421875 C 0.4375 -4.816406 0.582031 -5.144531 0.875 -5.40625 C 1.164062 -5.675781 1.550781 -5.878906 2.03125 -6.015625 C 2.519531 -6.148438 3.0625 -6.21875 3.65625 -6.21875 C 3.988281 -6.21875 4.320312 -6.195312 4.65625 -6.15625 C 5 -6.125 5.320312 -6.070312 5.625 -6 C 5.925781 -5.925781 6.191406 -5.835938 6.421875 -5.734375 L 6.421875 -4.453125 C 6.109375 -4.628906 5.707031 -4.773438 5.21875 -4.890625 C 4.726562 -5.015625 4.222656 -5.078125 3.703125 -5.078125 C 3.378906 -5.078125 3.070312 -5.054688 2.78125 -5.015625 C 2.5 -4.984375 2.269531 -4.914062 2.09375 -4.8125 C 1.925781 -4.71875 1.84375 -4.582031 1.84375 -4.40625 C 1.84375 -4.25 1.914062 -4.117188 2.0625 -4.015625 C 2.207031 -3.921875 2.40625 -3.84375 2.65625 -3.78125 C 2.90625 -3.726562 3.179688 -3.679688 3.484375 -3.640625 C 3.796875 -3.597656 4.113281 -3.554688 4.4375 -3.515625 C 4.769531 -3.472656 5.085938 -3.410156 5.390625 -3.328125 C 5.703125 -3.253906 5.976562 -3.15625 6.21875 -3.03125 C 6.46875 -2.90625 6.664062 -2.738281 6.8125 -2.53125 C 6.957031 -2.320312 7.03125 -2.0625 7.03125 -1.75 C 7.03125 -1.363281 6.894531 -1.03125 6.625 -0.75 C 6.363281 -0.46875 5.988281 -0.25 5.5 -0.09375 C 5.019531 0.0507812 4.445312 0.125 3.78125 0.125 Z M 3.78125 0.125 "/></g></g></g><g fill="#ffffff" fill-opacity="1"><g transform="translate(62.809556, 89.489702)"><g><path d="M 0.703125 0 C 0.816406 -0.363281 0.875 -0.851562 0.875 -1.46875 L 0.875 -4.640625 C 0.875 -4.929688 0.859375 -5.203125 0.828125 -5.453125 C 0.796875 -5.710938 0.753906 -5.929688 0.703125 -6.109375 L 6.671875 -6.109375 L 6.890625 -4.78125 C 6.796875 -4.832031 6.648438 -4.867188 6.453125 -4.890625 C 6.265625 -4.921875 6.015625 -4.9375 5.703125 -4.9375 L 2.21875 -4.9375 L 2.21875 -3.625 L 5.03125 -3.625 C 5.425781 -3.625 5.734375 -3.640625 5.953125 -3.671875 L 5.953125 -2.4375 C 5.734375 -2.476562 5.425781 -2.5 5.03125 -2.5 L 2.21875 -2.5 L 2.21875 -1.15625 L 5.765625 -1.15625 C 6.109375 -1.15625 6.382812 -1.175781 6.59375 -1.21875 C 6.800781 -1.257812 6.972656 -1.316406 7.109375 -1.390625 L 6.859375 0 Z M 0.703125 0 "/></g></g></g><g fill="#ffffff" fill-opacity="1"><g transform="translate(73.42005, 89.489702)"><g><path d="M -0.109375 0 C 0.00390625 -0.164062 0.140625 -0.378906 0.296875 -0.640625 C 0.460938 -0.910156 0.617188 -1.1875 0.765625 -1.46875 L 2.421875 -4.640625 C 2.566406 -4.929688 2.675781 -5.203125 2.75 -5.453125 C 2.832031 -5.710938 2.890625 -5.929688 2.921875 -6.109375 L 5.0625 -6.109375 C 5.101562 -5.910156 5.160156 -5.675781 5.234375 -5.40625 C 5.316406 -5.132812 5.414062 -4.878906 5.53125 -4.640625 L 7.203125 -1.46875 C 7.347656 -1.175781 7.5 -0.898438 7.65625 -0.640625 C 7.8125 -0.378906 7.945312 -0.164062 8.0625 0 L 6.359375 0 C 6.335938 -0.113281 6.296875 -0.242188 6.234375 -0.390625 C 6.179688 -0.546875 6.09375 -0.738281 5.96875 -0.96875 L 5.703125 -1.4375 L 2.25 -1.4375 L 2 -0.953125 C 1.894531 -0.734375 1.804688 -0.546875 1.734375 -0.390625 C 1.660156 -0.242188 1.617188 -0.113281 1.609375 0 Z M 2.75 -2.46875 L 5.203125 -2.46875 L 4.390625 -4.03125 C 4.316406 -4.1875 4.25 -4.34375 4.1875 -4.5 C 4.132812 -4.65625 4.078125 -4.816406 4.015625 -4.984375 L 3.9375 -4.984375 C 3.882812 -4.804688 3.828125 -4.640625 3.765625 -4.484375 C 3.703125 -4.335938 3.632812 -4.179688 3.5625 -4.015625 Z M 2.75 -2.46875 "/></g></g></g><g fill="#ffffff" fill-opacity="1"><g transform="translate(84.509637, 89.489702)"><g><path d="M 4.296875 0.125 C 3.523438 0.125 2.84375 -0.00390625 2.25 -0.265625 C 1.664062 -0.523438 1.207031 -0.890625 0.875 -1.359375 C 0.550781 -1.828125 0.390625 -2.382812 0.390625 -3.03125 C 0.390625 -3.6875 0.554688 -4.25 0.890625 -4.71875 C 1.222656 -5.195312 1.6875 -5.566406 2.28125 -5.828125 C 2.875 -6.085938 3.550781 -6.21875 4.3125 -6.21875 C 4.8125 -6.21875 5.28125 -6.175781 5.71875 -6.09375 C 6.15625 -6.007812 6.550781 -5.898438 6.90625 -5.765625 L 6.828125 -4.546875 C 6.648438 -4.660156 6.429688 -4.753906 6.171875 -4.828125 C 5.910156 -4.898438 5.628906 -4.957031 5.328125 -5 C 5.035156 -5.039062 4.742188 -5.0625 4.453125 -5.0625 C 3.921875 -5.0625 3.453125 -4.976562 3.046875 -4.8125 C 2.640625 -4.65625 2.316406 -4.421875 2.078125 -4.109375 C 1.847656 -3.804688 1.734375 -3.445312 1.734375 -3.03125 C 1.734375 -2.625 1.84375 -2.269531 2.0625 -1.96875 C 2.28125 -1.675781 2.582031 -1.445312 2.96875 -1.28125 C 3.363281 -1.125 3.816406 -1.046875 4.328125 -1.046875 C 4.722656 -1.046875 5.097656 -1.101562 5.453125 -1.21875 C 5.816406 -1.34375 6.101562 -1.515625 6.3125 -1.734375 L 6.3125 -2.46875 L 4.84375 -2.46875 C 4.707031 -2.46875 4.554688 -2.457031 4.390625 -2.4375 C 4.234375 -2.425781 4.113281 -2.40625 4.03125 -2.375 L 4.09375 -3.5625 L 7.609375 -3.5625 L 7.609375 -1.0625 C 7.273438 -0.695312 6.816406 -0.40625 6.234375 -0.1875 C 5.648438 0.0195312 5.003906 0.125 4.296875 0.125 Z M 4.296875 0.125 "/></g></g></g><g fill="#ffffff" fill-opacity="1"><g transform="translate(95.668907, 89.489702)"><g><path d="M 5.296875 0.125 C 4.960938 0.125 4.65625 0.101562 4.375 0.0625 C 4.101562 0.0195312 3.828125 -0.0195312 3.546875 -0.0625 C 3.265625 -0.101562 2.941406 -0.125 2.578125 -0.125 C 2.179688 -0.125 1.820312 -0.09375 1.5 -0.03125 C 1.175781 0.0195312 0.910156 0.0703125 0.703125 0.125 C 0.753906 -0.0390625 0.796875 -0.269531 0.828125 -0.5625 C 0.859375 -0.863281 0.875 -1.164062 0.875 -1.46875 L 0.875 -4.640625 C 0.875 -4.929688 0.859375 -5.203125 0.828125 -5.453125 C 0.796875 -5.710938 0.753906 -5.929688 0.703125 -6.109375 L 2.375 -6.109375 C 2.332031 -5.929688 2.296875 -5.691406 2.265625 -5.390625 C 2.234375 -5.085938 2.21875 -4.789062 2.21875 -4.5 L 2.21875 -1.15625 L 4.875 -1.15625 C 5.257812 -1.15625 5.613281 -1.175781 5.9375 -1.21875 C 6.257812 -1.269531 6.507812 -1.332031 6.6875 -1.40625 L 6.609375 -0.0625 C 6.492188 -0.0390625 6.3125 -0.00390625 6.0625 0.046875 C 5.820312 0.0976562 5.566406 0.125 5.296875 0.125 Z M 5.296875 0.125 "/></g></g></g><g fill="#ffffff" fill-opacity="1"><g transform="translate(105.730622, 89.489702)"><g><path d="M -0.109375 0 C 0.00390625 -0.164062 0.140625 -0.378906 0.296875 -0.640625 C 0.460938 -0.910156 0.617188 -1.1875 0.765625 -1.46875 L 2.421875 -4.640625 C 2.566406 -4.929688 2.675781 -5.203125 2.75 -5.453125 C 2.832031 -5.710938 2.890625 -5.929688 2.921875 -6.109375 L 5.0625 -6.109375 C 5.101562 -5.910156 5.160156 -5.675781 5.234375 -5.40625 C 5.316406 -5.132812 5.414062 -4.878906 5.53125 -4.640625 L 7.203125 -1.46875 C 7.347656 -1.175781 7.5 -0.898438 7.65625 -0.640625 C 7.8125 -0.378906 7.945312 -0.164062 8.0625 0 L 6.359375 0 C 6.335938 -0.113281 6.296875 -0.242188 6.234375 -0.390625 C 6.179688 -0.546875 6.09375 -0.738281 5.96875 -0.96875 L 5.703125 -1.4375 L 2.25 -1.4375 L 2 -0.953125 C 1.894531 -0.734375 1.804688 -0.546875 1.734375 -0.390625 C 1.660156 -0.242188 1.617188 -0.113281 1.609375 0 Z M 2.75 -2.46875 L 5.203125 -2.46875 L 4.390625 -4.03125 C 4.316406 -4.1875 4.25 -4.34375 4.1875 -4.5 C 4.132812 -4.65625 4.078125 -4.816406 4.015625 -4.984375 L 3.9375 -4.984375 C 3.882812 -4.804688 3.828125 -4.640625 3.765625 -4.484375 C 3.703125 -4.335938 3.632812 -4.179688 3.5625 -4.015625 Z M 2.75 -2.46875 "/></g></g></g><g fill="#ffffff" fill-opacity="1"><g transform="translate(116.82021, 89.489702)"><g><path d="M 3.78125 0.125 C 3.4375 0.125 3.054688 0.0976562 2.640625 0.046875 C 2.222656 -0.00390625 1.8125 -0.078125 1.40625 -0.171875 C 1 -0.265625 0.640625 -0.375 0.328125 -0.5 L 0.390625 -1.890625 C 0.847656 -1.597656 1.363281 -1.378906 1.9375 -1.234375 C 2.519531 -1.085938 3.125 -1.015625 3.75 -1.015625 C 4.3125 -1.015625 4.765625 -1.066406 5.109375 -1.171875 C 5.453125 -1.285156 5.625 -1.476562 5.625 -1.75 C 5.625 -1.90625 5.550781 -2.03125 5.40625 -2.125 C 5.257812 -2.21875 5.0625 -2.289062 4.8125 -2.34375 C 4.570312 -2.40625 4.296875 -2.453125 3.984375 -2.484375 C 3.671875 -2.523438 3.351562 -2.566406 3.03125 -2.609375 C 2.707031 -2.660156 2.390625 -2.722656 2.078125 -2.796875 C 1.773438 -2.878906 1.5 -2.988281 1.25 -3.125 C 1 -3.257812 0.800781 -3.429688 0.65625 -3.640625 C 0.507812 -3.847656 0.4375 -4.109375 0.4375 -4.421875 C 0.4375 -4.816406 0.582031 -5.144531 0.875 -5.40625 C 1.164062 -5.675781 1.550781 -5.878906 2.03125 -6.015625 C 2.519531 -6.148438 3.0625 -6.21875 3.65625 -6.21875 C 3.988281 -6.21875 4.320312 -6.195312 4.65625 -6.15625 C 5 -6.125 5.320312 -6.070312 5.625 -6 C 5.925781 -5.925781 6.191406 -5.835938 6.421875 -5.734375 L 6.421875 -4.453125 C 6.109375 -4.628906 5.707031 -4.773438 5.21875 -4.890625 C 4.726562 -5.015625 4.222656 -5.078125 3.703125 -5.078125 C 3.378906 -5.078125 3.070312 -5.054688 2.78125 -5.015625 C 2.5 -4.984375 2.269531 -4.914062 2.09375 -4.8125 C 1.925781 -4.71875 1.84375 -4.582031 1.84375 -4.40625 C 1.84375 -4.25 1.914062 -4.117188 2.0625 -4.015625 C 2.207031 -3.921875 2.40625 -3.84375 2.65625 -3.78125 C 2.90625 -3.726562 3.179688 -3.679688 3.484375 -3.640625 C 3.796875 -3.597656 4.113281 -3.554688 4.4375 -3.515625 C 4.769531 -3.472656 5.085938 -3.410156 5.390625 -3.328125 C 5.703125 -3.253906 5.976562 -3.15625 6.21875 -3.03125 C 6.46875 -2.90625 6.664062 -2.738281 6.8125 -2.53125 C 6.957031 -2.320312 7.03125 -2.0625 7.03125 -1.75 C 7.03125 -1.363281 6.894531 -1.03125 6.625 -0.75 C 6.363281 -0.46875 5.988281 -0.25 5.5 -0.09375 C 5.019531 0.0507812 4.445312 0.125 3.78125 0.125 Z M 3.78125 0.125 "/></g></g></g><g fill="#ffffff" fill-opacity="1"><g transform="translate(127.326176, 89.489702)"><g><path d="M 3.78125 0.125 C 3.4375 0.125 3.054688 0.0976562 2.640625 0.046875 C 2.222656 -0.00390625 1.8125 -0.078125 1.40625 -0.171875 C 1 -0.265625 0.640625 -0.375 0.328125 -0.5 L 0.390625 -1.890625 C 0.847656 -1.597656 1.363281 -1.378906 1.9375 -1.234375 C 2.519531 -1.085938 3.125 -1.015625 3.75 -1.015625 C 4.3125 -1.015625 4.765625 -1.066406 5.109375 -1.171875 C 5.453125 -1.285156 5.625 -1.476562 5.625 -1.75 C 5.625 -1.90625 5.550781 -2.03125 5.40625 -2.125 C 5.257812 -2.21875 5.0625 -2.289062 4.8125 -2.34375 C 4.570312 -2.40625 4.296875 -2.453125 3.984375 -2.484375 C 3.671875 -2.523438 3.351562 -2.566406 3.03125 -2.609375 C 2.707031 -2.660156 2.390625 -2.722656 2.078125 -2.796875 C 1.773438 -2.878906 1.5 -2.988281 1.25 -3.125 C 1 -3.257812 0.800781 -3.429688 0.65625 -3.640625 C 0.507812 -3.847656 0.4375 -4.109375 0.4375 -4.421875 C 0.4375 -4.816406 0.582031 -5.144531 0.875 -5.40625 C 1.164062 -5.675781 1.550781 -5.878906 2.03125 -6.015625 C 2.519531 -6.148438 3.0625 -6.21875 3.65625 -6.21875 C 3.988281 -6.21875 4.320312 -6.195312 4.65625 -6.15625 C 5 -6.125 5.320312 -6.070312 5.625 -6 C 5.925781 -5.925781 6.191406 -5.835938 6.421875 -5.734375 L 6.421875 -4.453125 C 6.109375 -4.628906 5.707031 -4.773438 5.21875 -4.890625 C 4.726562 -5.015625 4.222656 -5.078125 3.703125 -5.078125 C 3.378906 -5.078125 3.070312 -5.054688 2.78125 -5.015625 C 2.5 -4.984375 2.269531 -4.914062 2.09375 -4.8125 C 1.925781 -4.71875 1.84375 -4.582031 1.84375 -4.40625 C 1.84375 -4.25 1.914062 -4.117188 2.0625 -4.015625 C 2.207031 -3.921875 2.40625 -3.84375 2.65625 -3.78125 C 2.90625 -3.726562 3.179688 -3.679688 3.484375 -3.640625 C 3.796875 -3.597656 4.113281 -3.554688 4.4375 -3.515625 C 4.769531 -3.472656 5.085938 -3.410156 5.390625 -3.328125 C 5.703125 -3.253906 5.976562 -3.15625 6.21875 -3.03125 C 6.46875 -2.90625 6.664062 -2.738281 6.8125 -2.53125 C 6.957031 -2.320312 7.03125 -2.0625 7.03125 -1.75 C 7.03125 -1.363281 6.894531 -1.03125 6.625 -0.75 C 6.363281 -0.46875 5.988281 -0.25 5.5 -0.09375 C 5.019531 0.0507812 4.445312 0.125 3.78125 0.125 Z M 3.78125 0.125 "/></g></g></g><g fill="#ffffff" fill-opacity="1"><g transform="translate(54.766857, 97.528369)"><g><path d="M 2.046875 0.0625 C 1.785156 0.0625 1.539062 0.03125 1.3125 -0.03125 C 1.09375 -0.101562 0.894531 -0.203125 0.71875 -0.328125 C 0.550781 -0.453125 0.421875 -0.601562 0.328125 -0.78125 C 0.234375 -0.957031 0.1875 -1.164062 0.1875 -1.40625 C 0.1875 -1.644531 0.234375 -1.851562 0.328125 -2.03125 C 0.421875 -2.21875 0.550781 -2.375 0.71875 -2.5 C 0.882812 -2.625 1.078125 -2.71875 1.296875 -2.78125 C 1.523438 -2.84375 1.769531 -2.875 2.03125 -2.875 C 2.257812 -2.875 2.472656 -2.847656 2.671875 -2.796875 C 2.878906 -2.753906 3.054688 -2.695312 3.203125 -2.625 L 3.140625 -2.03125 C 3.035156 -2.113281 2.890625 -2.179688 2.703125 -2.234375 C 2.515625 -2.296875 2.316406 -2.328125 2.109375 -2.328125 C 1.859375 -2.328125 1.632812 -2.289062 1.4375 -2.21875 C 1.25 -2.144531 1.097656 -2.039062 0.984375 -1.90625 C 0.867188 -1.769531 0.8125 -1.601562 0.8125 -1.40625 C 0.8125 -1.207031 0.867188 -1.039062 0.984375 -0.90625 C 1.109375 -0.769531 1.269531 -0.664062 1.46875 -0.59375 C 1.675781 -0.519531 1.90625 -0.484375 2.15625 -0.484375 C 2.375 -0.484375 2.585938 -0.515625 2.796875 -0.578125 C 3.003906 -0.640625 3.175781 -0.726562 3.3125 -0.84375 L 3.3125 -0.1875 C 3.144531 -0.113281 2.953125 -0.0507812 2.734375 0 C 2.523438 0.0390625 2.296875 0.0625 2.046875 0.0625 Z M 2.046875 0.0625 "/></g></g></g><g fill="#ffffff" fill-opacity="1"><g transform="translate(59.671338, 97.528369)"><g><path d="M 2.453125 0.0625 C 2.296875 0.0625 2.148438 0.0507812 2.015625 0.03125 C 1.890625 0.0078125 1.757812 -0.0078125 1.625 -0.03125 C 1.5 -0.0507812 1.351562 -0.0625 1.1875 -0.0625 C 1.007812 -0.0625 0.84375 -0.046875 0.6875 -0.015625 C 0.539062 0.00390625 0.421875 0.03125 0.328125 0.0625 C 0.347656 -0.0195312 0.363281 -0.128906 0.375 -0.265625 C 0.394531 -0.398438 0.40625 -0.535156 0.40625 -0.671875 L 0.40625 -2.140625 C 0.40625 -2.273438 0.394531 -2.398438 0.375 -2.515625 C 0.363281 -2.640625 0.347656 -2.742188 0.328125 -2.828125 L 1.09375 -2.828125 C 1.082031 -2.742188 1.066406 -2.628906 1.046875 -2.484375 C 1.035156 -2.347656 1.03125 -2.210938 1.03125 -2.078125 L 1.03125 -0.53125 L 2.25 -0.53125 C 2.425781 -0.53125 2.585938 -0.539062 2.734375 -0.5625 C 2.890625 -0.582031 3.007812 -0.613281 3.09375 -0.65625 L 3.0625 -0.03125 C 3.007812 -0.0195312 2.925781 -0.00390625 2.8125 0.015625 C 2.695312 0.046875 2.578125 0.0625 2.453125 0.0625 Z M 2.453125 0.0625 "/></g></g></g><g fill="#ffffff" fill-opacity="1"><g transform="translate(64.33366, 97.528369)"><g><path d="M 0.328125 0 C 0.378906 -0.164062 0.40625 -0.390625 0.40625 -0.671875 L 0.40625 -2.140625 C 0.40625 -2.273438 0.394531 -2.398438 0.375 -2.515625 C 0.363281 -2.640625 0.347656 -2.742188 0.328125 -2.828125 L 3.09375 -2.828125 L 3.1875 -2.21875 C 3.144531 -2.238281 3.078125 -2.253906 2.984375 -2.265625 C 2.890625 -2.273438 2.773438 -2.28125 2.640625 -2.28125 L 1.03125 -2.28125 L 1.03125 -1.671875 L 2.328125 -1.671875 C 2.515625 -1.671875 2.65625 -1.679688 2.75 -1.703125 L 2.75 -1.125 C 2.65625 -1.144531 2.515625 -1.15625 2.328125 -1.15625 L 1.03125 -1.15625 L 1.03125 -0.53125 L 2.671875 -0.53125 C 2.828125 -0.53125 2.953125 -0.539062 3.046875 -0.5625 C 3.148438 -0.582031 3.226562 -0.609375 3.28125 -0.640625 L 3.171875 0 Z M 0.328125 0 "/></g></g></g><g fill="#ffffff" fill-opacity="1"><g transform="translate(69.25025, 97.528369)"><g><path d="M -0.046875 0 C 0.00390625 -0.0703125 0.0664062 -0.171875 0.140625 -0.296875 C 0.210938 -0.421875 0.285156 -0.546875 0.359375 -0.671875 L 1.125 -2.140625 C 1.1875 -2.273438 1.234375 -2.398438 1.265625 -2.515625 C 1.304688 -2.640625 1.332031 -2.742188 1.34375 -2.828125 L 2.34375 -2.828125 C 2.351562 -2.734375 2.375 -2.625 2.40625 -2.5 C 2.445312 -2.375 2.5 -2.257812 2.5625 -2.15625 L 3.328125 -0.671875 C 3.398438 -0.546875 3.46875 -0.421875 3.53125 -0.296875 C 3.601562 -0.171875 3.671875 -0.0703125 3.734375 0 L 2.9375 0 C 2.925781 -0.0507812 2.90625 -0.113281 2.875 -0.1875 C 2.851562 -0.257812 2.8125 -0.347656 2.75 -0.453125 L 2.640625 -0.65625 L 1.046875 -0.65625 L 0.921875 -0.4375 C 0.867188 -0.34375 0.828125 -0.257812 0.796875 -0.1875 C 0.765625 -0.113281 0.742188 -0.0507812 0.734375 0 Z M 1.28125 -1.140625 L 2.40625 -1.140625 L 2.03125 -1.859375 C 2 -1.929688 1.96875 -2.003906 1.9375 -2.078125 C 1.914062 -2.148438 1.890625 -2.226562 1.859375 -2.3125 L 1.828125 -2.3125 C 1.796875 -2.226562 1.765625 -2.148438 1.734375 -2.078125 C 1.710938 -2.003906 1.679688 -1.929688 1.640625 -1.859375 Z M 1.28125 -1.140625 "/></g></g></g><g fill="#ffffff" fill-opacity="1"><g transform="translate(74.388821, 97.528369)"><g><path d="M 0.328125 0 C 0.347656 -0.0703125 0.363281 -0.164062 0.375 -0.28125 C 0.394531 -0.40625 0.40625 -0.535156 0.40625 -0.671875 L 0.40625 -2.140625 C 0.40625 -2.429688 0.378906 -2.660156 0.328125 -2.828125 L 1.0625 -2.828125 L 2.9375 -0.84375 L 2.984375 -0.84375 L 2.984375 -2.15625 C 2.984375 -2.289062 2.972656 -2.414062 2.953125 -2.53125 C 2.941406 -2.65625 2.925781 -2.753906 2.90625 -2.828125 L 3.6875 -2.828125 C 3.664062 -2.742188 3.644531 -2.640625 3.625 -2.515625 C 3.613281 -2.398438 3.609375 -2.273438 3.609375 -2.140625 L 3.609375 0 L 3.03125 0 L 1.078125 -2.046875 L 1.03125 -2.046875 L 1.03125 -0.71875 C 1.03125 -0.582031 1.035156 -0.445312 1.046875 -0.3125 C 1.066406 -0.175781 1.082031 -0.0703125 1.09375 0 Z M 0.328125 0 "/></g></g></g><g fill="#ffffff" fill-opacity="1"><g transform="translate(79.858348, 97.528369)"><g><path d="M 0.328125 0 C 0.347656 -0.0703125 0.363281 -0.164062 0.375 -0.28125 C 0.394531 -0.40625 0.40625 -0.535156 0.40625 -0.671875 L 0.40625 -2.140625 C 0.40625 -2.273438 0.394531 -2.398438 0.375 -2.515625 C 0.363281 -2.640625 0.347656 -2.742188 0.328125 -2.828125 L 1.09375 -2.828125 C 1.070312 -2.742188 1.054688 -2.640625 1.046875 -2.515625 C 1.035156 -2.398438 1.03125 -2.273438 1.03125 -2.140625 L 1.03125 -0.671875 C 1.03125 -0.535156 1.035156 -0.40625 1.046875 -0.28125 C 1.054688 -0.164062 1.070312 -0.0703125 1.09375 0 Z M 0.328125 0 "/></g></g></g><g fill="#ffffff" fill-opacity="1"><g transform="translate(82.744819, 97.528369)"><g><path d="M 0.328125 0 C 0.347656 -0.0703125 0.363281 -0.164062 0.375 -0.28125 C 0.394531 -0.40625 0.40625 -0.535156 0.40625 -0.671875 L 0.40625 -2.140625 C 0.40625 -2.429688 0.378906 -2.660156 0.328125 -2.828125 L 1.0625 -2.828125 L 2.9375 -0.84375 L 2.984375 -0.84375 L 2.984375 -2.15625 C 2.984375 -2.289062 2.972656 -2.414062 2.953125 -2.53125 C 2.941406 -2.65625 2.925781 -2.753906 2.90625 -2.828125 L 3.6875 -2.828125 C 3.664062 -2.742188 3.644531 -2.640625 3.625 -2.515625 C 3.613281 -2.398438 3.609375 -2.273438 3.609375 -2.140625 L 3.609375 0 L 3.03125 0 L 1.078125 -2.046875 L 1.03125 -2.046875 L 1.03125 -0.71875 C 1.03125 -0.582031 1.035156 -0.445312 1.046875 -0.3125 C 1.066406 -0.175781 1.082031 -0.0703125 1.09375 0 Z M 0.328125 0 "/></g></g></g><g fill="#ffffff" fill-opacity="1"><g transform="translate(88.214344, 97.528369)"><g><path d="M 1.984375 0.0625 C 1.628906 0.0625 1.316406 0.00390625 1.046875 -0.109375 C 0.773438 -0.234375 0.5625 -0.40625 0.40625 -0.625 C 0.257812 -0.84375 0.1875 -1.101562 0.1875 -1.40625 C 0.1875 -1.707031 0.257812 -1.96875 0.40625 -2.1875 C 0.5625 -2.40625 0.773438 -2.570312 1.046875 -2.6875 C 1.328125 -2.8125 1.640625 -2.875 1.984375 -2.875 C 2.222656 -2.875 2.441406 -2.851562 2.640625 -2.8125 C 2.847656 -2.78125 3.03125 -2.734375 3.1875 -2.671875 L 3.15625 -2.09375 C 3.070312 -2.15625 2.96875 -2.203125 2.84375 -2.234375 C 2.726562 -2.265625 2.601562 -2.289062 2.46875 -2.3125 C 2.332031 -2.332031 2.195312 -2.34375 2.0625 -2.34375 C 1.8125 -2.34375 1.59375 -2.300781 1.40625 -2.21875 C 1.21875 -2.144531 1.066406 -2.035156 0.953125 -1.890625 C 0.847656 -1.753906 0.796875 -1.59375 0.796875 -1.40625 C 0.796875 -1.21875 0.847656 -1.050781 0.953125 -0.90625 C 1.054688 -0.769531 1.195312 -0.664062 1.375 -0.59375 C 1.550781 -0.519531 1.757812 -0.484375 2 -0.484375 C 2.1875 -0.484375 2.363281 -0.507812 2.53125 -0.5625 C 2.695312 -0.625 2.828125 -0.703125 2.921875 -0.796875 L 2.921875 -1.140625 L 2.234375 -1.140625 C 2.179688 -1.140625 2.113281 -1.132812 2.03125 -1.125 C 1.957031 -1.125 1.898438 -1.113281 1.859375 -1.09375 L 1.890625 -1.65625 L 3.515625 -1.65625 L 3.515625 -0.484375 C 3.359375 -0.316406 3.144531 -0.179688 2.875 -0.078125 C 2.601562 0.015625 2.304688 0.0625 1.984375 0.0625 Z M 1.984375 0.0625 "/></g></g></g><g fill="#ffffff" fill-opacity="1"><g transform="translate(93.385204, 97.528369)"><g/></g></g><g fill="#ffffff" fill-opacity="1"><g transform="translate(95.973012, 97.528369)"><g><path d="M 1.75 0.0625 C 1.582031 0.0625 1.40625 0.046875 1.21875 0.015625 C 1.03125 -0.00390625 0.84375 -0.0351562 0.65625 -0.078125 C 0.46875 -0.117188 0.300781 -0.171875 0.15625 -0.234375 L 0.171875 -0.875 C 0.390625 -0.738281 0.628906 -0.632812 0.890625 -0.5625 C 1.160156 -0.5 1.441406 -0.46875 1.734375 -0.46875 C 1.992188 -0.46875 2.203125 -0.492188 2.359375 -0.546875 C 2.515625 -0.597656 2.59375 -0.6875 2.59375 -0.8125 C 2.59375 -0.882812 2.5625 -0.941406 2.5 -0.984375 C 2.4375 -1.023438 2.347656 -1.054688 2.234375 -1.078125 C 2.117188 -1.109375 1.988281 -1.128906 1.84375 -1.140625 C 1.695312 -1.160156 1.546875 -1.179688 1.390625 -1.203125 C 1.242188 -1.222656 1.097656 -1.25 0.953125 -1.28125 C 0.816406 -1.320312 0.691406 -1.375 0.578125 -1.4375 C 0.460938 -1.5 0.367188 -1.578125 0.296875 -1.671875 C 0.234375 -1.773438 0.203125 -1.898438 0.203125 -2.046875 C 0.203125 -2.234375 0.269531 -2.382812 0.40625 -2.5 C 0.539062 -2.625 0.71875 -2.71875 0.9375 -2.78125 C 1.164062 -2.84375 1.414062 -2.875 1.6875 -2.875 C 1.84375 -2.875 2 -2.863281 2.15625 -2.84375 C 2.3125 -2.832031 2.457031 -2.804688 2.59375 -2.765625 C 2.738281 -2.734375 2.863281 -2.695312 2.96875 -2.65625 L 2.96875 -2.0625 C 2.820312 -2.144531 2.632812 -2.210938 2.40625 -2.265625 C 2.1875 -2.316406 1.957031 -2.34375 1.71875 -2.34375 C 1.5625 -2.34375 1.414062 -2.332031 1.28125 -2.3125 C 1.15625 -2.300781 1.050781 -2.269531 0.96875 -2.21875 C 0.894531 -2.175781 0.859375 -2.117188 0.859375 -2.046875 C 0.859375 -1.960938 0.890625 -1.898438 0.953125 -1.859375 C 1.023438 -1.816406 1.117188 -1.78125 1.234375 -1.75 C 1.347656 -1.726562 1.472656 -1.707031 1.609375 -1.6875 C 1.753906 -1.664062 1.898438 -1.644531 2.046875 -1.625 C 2.203125 -1.601562 2.347656 -1.570312 2.484375 -1.53125 C 2.628906 -1.5 2.757812 -1.453125 2.875 -1.390625 C 2.988281 -1.335938 3.078125 -1.265625 3.140625 -1.171875 C 3.210938 -1.078125 3.25 -0.957031 3.25 -0.8125 C 3.25 -0.632812 3.1875 -0.476562 3.0625 -0.34375 C 2.9375 -0.21875 2.757812 -0.117188 2.53125 -0.046875 C 2.3125 0.0234375 2.050781 0.0625 1.75 0.0625 Z M 1.75 0.0625 "/></g></g></g><g fill="#ffffff" fill-opacity="1"><g transform="translate(100.841171, 97.528369)"><g><path d="M 0.328125 0 C 0.378906 -0.164062 0.40625 -0.390625 0.40625 -0.671875 L 0.40625 -2.140625 C 0.40625 -2.273438 0.394531 -2.398438 0.375 -2.515625 C 0.363281 -2.640625 0.347656 -2.742188 0.328125 -2.828125 L 3.09375 -2.828125 L 3.1875 -2.21875 C 3.144531 -2.238281 3.078125 -2.253906 2.984375 -2.265625 C 2.890625 -2.273438 2.773438 -2.28125 2.640625 -2.28125 L 1.03125 -2.28125 L 1.03125 -1.671875 L 2.328125 -1.671875 C 2.515625 -1.671875 2.65625 -1.679688 2.75 -1.703125 L 2.75 -1.125 C 2.65625 -1.144531 2.515625 -1.15625 2.328125 -1.15625 L 1.03125 -1.15625 L 1.03125 -0.53125 L 2.671875 -0.53125 C 2.828125 -0.53125 2.953125 -0.539062 3.046875 -0.5625 C 3.148438 -0.582031 3.226562 -0.609375 3.28125 -0.640625 L 3.171875 0 Z M 0.328125 0 "/></g></g></g><g fill="#ffffff" fill-opacity="1"><g transform="translate(105.757759, 97.528369)"><g><path d="M 3.234375 0.0625 C 3.085938 0.0625 2.96875 0.0390625 2.875 0 C 2.78125 -0.0390625 2.703125 -0.0976562 2.640625 -0.171875 C 2.585938 -0.242188 2.539062 -0.320312 2.5 -0.40625 C 2.457031 -0.488281 2.414062 -0.566406 2.375 -0.640625 C 2.332031 -0.722656 2.28125 -0.800781 2.21875 -0.875 C 2.15625 -0.945312 2.070312 -1.003906 1.96875 -1.046875 C 1.863281 -1.085938 1.726562 -1.109375 1.5625 -1.109375 C 1.519531 -1.109375 1.460938 -1.101562 1.390625 -1.09375 C 1.316406 -1.09375 1.242188 -1.085938 1.171875 -1.078125 C 1.109375 -1.078125 1.0625 -1.070312 1.03125 -1.0625 L 1.03125 -0.65625 C 1.03125 -0.375 1.054688 -0.15625 1.109375 0 L 0.328125 0 C 0.347656 -0.0820312 0.363281 -0.179688 0.375 -0.296875 C 0.394531 -0.410156 0.40625 -0.535156 0.40625 -0.671875 L 0.40625 -2.140625 C 0.40625 -2.273438 0.394531 -2.398438 0.375 -2.515625 C 0.363281 -2.640625 0.347656 -2.742188 0.328125 -2.828125 L 2.28125 -2.828125 C 2.507812 -2.828125 2.707031 -2.796875 2.875 -2.734375 C 3.050781 -2.679688 3.1875 -2.597656 3.28125 -2.484375 C 3.375 -2.378906 3.421875 -2.242188 3.421875 -2.078125 C 3.421875 -1.929688 3.375 -1.796875 3.28125 -1.671875 C 3.195312 -1.554688 3.070312 -1.46875 2.90625 -1.40625 C 2.75 -1.34375 2.5625 -1.3125 2.34375 -1.3125 L 2.09375 -1.3125 L 2.09375 -1.28125 L 2.125 -1.28125 C 2.269531 -1.28125 2.390625 -1.257812 2.484375 -1.21875 C 2.578125 -1.1875 2.65625 -1.144531 2.71875 -1.09375 C 2.78125 -1.039062 2.832031 -0.984375 2.875 -0.921875 C 2.914062 -0.859375 2.957031 -0.800781 3 -0.75 C 3.039062 -0.695312 3.082031 -0.648438 3.125 -0.609375 C 3.175781 -0.578125 3.238281 -0.5625 3.3125 -0.5625 C 3.425781 -0.5625 3.507812 -0.585938 3.5625 -0.640625 C 3.625 -0.691406 3.671875 -0.757812 3.703125 -0.84375 L 3.734375 -0.15625 C 3.691406 -0.09375 3.625 -0.0390625 3.53125 0 C 3.4375 0.0390625 3.335938 0.0625 3.234375 0.0625 Z M 1.03125 -1.546875 L 2.1875 -1.546875 C 2.375 -1.546875 2.519531 -1.578125 2.625 -1.640625 C 2.738281 -1.703125 2.796875 -1.796875 2.796875 -1.921875 C 2.796875 -2.023438 2.742188 -2.109375 2.640625 -2.171875 C 2.535156 -2.242188 2.394531 -2.28125 2.21875 -2.28125 L 1.03125 -2.28125 Z M 1.03125 -1.546875 "/></g></g></g><g fill="#ffffff" fill-opacity="1"><g transform="translate(110.993195, 97.528369)"><g><path d="M 1.34375 0 C 1.332031 -0.09375 1.304688 -0.203125 1.265625 -0.328125 C 1.222656 -0.453125 1.175781 -0.566406 1.125 -0.671875 L 0.359375 -2.140625 C 0.296875 -2.273438 0.234375 -2.398438 0.171875 -2.515625 C 0.109375 -2.640625 0.0507812 -2.742188 0 -2.828125 L 0.796875 -2.828125 C 0.804688 -2.765625 0.820312 -2.695312 0.84375 -2.625 C 0.863281 -2.550781 0.894531 -2.460938 0.9375 -2.359375 L 1.640625 -0.984375 C 1.671875 -0.898438 1.703125 -0.820312 1.734375 -0.75 C 1.765625 -0.6875 1.796875 -0.617188 1.828125 -0.546875 L 1.859375 -0.546875 C 1.890625 -0.628906 1.914062 -0.703125 1.9375 -0.765625 C 1.96875 -0.828125 2 -0.898438 2.03125 -0.984375 L 2.734375 -2.359375 C 2.785156 -2.460938 2.820312 -2.550781 2.84375 -2.625 C 2.863281 -2.695312 2.878906 -2.765625 2.890625 -2.828125 L 3.65625 -2.828125 C 3.601562 -2.742188 3.546875 -2.640625 3.484375 -2.515625 C 3.421875 -2.398438 3.359375 -2.273438 3.296875 -2.140625 L 2.53125 -0.671875 C 2.46875 -0.535156 2.414062 -0.410156 2.375 -0.296875 C 2.34375 -0.179688 2.320312 -0.0820312 2.3125 0 Z M 1.34375 0 "/></g></g></g><g fill="#ffffff" fill-opacity="1"><g transform="translate(116.111584, 97.528369)"><g><path d="M 0.328125 0 C 0.347656 -0.0703125 0.363281 -0.164062 0.375 -0.28125 C 0.394531 -0.40625 0.40625 -0.535156 0.40625 -0.671875 L 0.40625 -2.140625 C 0.40625 -2.273438 0.394531 -2.398438 0.375 -2.515625 C 0.363281 -2.640625 0.347656 -2.742188 0.328125 -2.828125 L 1.09375 -2.828125 C 1.070312 -2.742188 1.054688 -2.640625 1.046875 -2.515625 C 1.035156 -2.398438 1.03125 -2.273438 1.03125 -2.140625 L 1.03125 -0.671875 C 1.03125 -0.535156 1.035156 -0.40625 1.046875 -0.28125 C 1.054688 -0.164062 1.070312 -0.0703125 1.09375 0 Z M 0.328125 0 "/></g></g></g><g fill="#ffffff" fill-opacity="1"><g transform="translate(118.998056, 97.528369)"><g><path d="M 2.046875 0.0625 C 1.785156 0.0625 1.539062 0.03125 1.3125 -0.03125 C 1.09375 -0.101562 0.894531 -0.203125 0.71875 -0.328125 C 0.550781 -0.453125 0.421875 -0.601562 0.328125 -0.78125 C 0.234375 -0.957031 0.1875 -1.164062 0.1875 -1.40625 C 0.1875 -1.644531 0.234375 -1.851562 0.328125 -2.03125 C 0.421875 -2.21875 0.550781 -2.375 0.71875 -2.5 C 0.882812 -2.625 1.078125 -2.71875 1.296875 -2.78125 C 1.523438 -2.84375 1.769531 -2.875 2.03125 -2.875 C 2.257812 -2.875 2.472656 -2.847656 2.671875 -2.796875 C 2.878906 -2.753906 3.054688 -2.695312 3.203125 -2.625 L 3.140625 -2.03125 C 3.035156 -2.113281 2.890625 -2.179688 2.703125 -2.234375 C 2.515625 -2.296875 2.316406 -2.328125 2.109375 -2.328125 C 1.859375 -2.328125 1.632812 -2.289062 1.4375 -2.21875 C 1.25 -2.144531 1.097656 -2.039062 0.984375 -1.90625 C 0.867188 -1.769531 0.8125 -1.601562 0.8125 -1.40625 C 0.8125 -1.207031 0.867188 -1.039062 0.984375 -0.90625 C 1.109375 -0.769531 1.269531 -0.664062 1.46875 -0.59375 C 1.675781 -0.519531 1.90625 -0.484375 2.15625 -0.484375 C 2.375 -0.484375 2.585938 -0.515625 2.796875 -0.578125 C 3.003906 -0.640625 3.175781 -0.726562 3.3125 -0.84375 L 3.3125 -0.1875 C 3.144531 -0.113281 2.953125 -0.0507812 2.734375 0 C 2.523438 0.0390625 2.296875 0.0625 2.046875 0.0625 Z M 2.046875 0.0625 "/></g></g></g><g fill="#ffffff" fill-opacity="1"><g transform="translate(123.902536, 97.528369)"><g><path d="M 0.328125 0 C 0.378906 -0.164062 0.40625 -0.390625 0.40625 -0.671875 L 0.40625 -2.140625 C 0.40625 -2.273438 0.394531 -2.398438 0.375 -2.515625 C 0.363281 -2.640625 0.347656 -2.742188 0.328125 -2.828125 L 3.09375 -2.828125 L 3.1875 -2.21875 C 3.144531 -2.238281 3.078125 -2.253906 2.984375 -2.265625 C 2.890625 -2.273438 2.773438 -2.28125 2.640625 -2.28125 L 1.03125 -2.28125 L 1.03125 -1.671875 L 2.328125 -1.671875 C 2.515625 -1.671875 2.65625 -1.679688 2.75 -1.703125 L 2.75 -1.125 C 2.65625 -1.144531 2.515625 -1.15625 2.328125 -1.15625 L 1.03125 -1.15625 L 1.03125 -0.53125 L 2.671875 -0.53125 C 2.828125 -0.53125 2.953125 -0.539062 3.046875 -0.5625 C 3.148438 -0.582031 3.226562 -0.609375 3.28125 -0.640625 L 3.171875 0 Z M 0.328125 0 "/></g></g></g><g fill="#ffffff" fill-opacity="1"><g transform="translate(128.819129, 97.528369)"><g><path d="M 1.75 0.0625 C 1.582031 0.0625 1.40625 0.046875 1.21875 0.015625 C 1.03125 -0.00390625 0.84375 -0.0351562 0.65625 -0.078125 C 0.46875 -0.117188 0.300781 -0.171875 0.15625 -0.234375 L 0.171875 -0.875 C 0.390625 -0.738281 0.628906 -0.632812 0.890625 -0.5625 C 1.160156 -0.5 1.441406 -0.46875 1.734375 -0.46875 C 1.992188 -0.46875 2.203125 -0.492188 2.359375 -0.546875 C 2.515625 -0.597656 2.59375 -0.6875 2.59375 -0.8125 C 2.59375 -0.882812 2.5625 -0.941406 2.5 -0.984375 C 2.4375 -1.023438 2.347656 -1.054688 2.234375 -1.078125 C 2.117188 -1.109375 1.988281 -1.128906 1.84375 -1.140625 C 1.695312 -1.160156 1.546875 -1.179688 1.390625 -1.203125 C 1.242188 -1.222656 1.097656 -1.25 0.953125 -1.28125 C 0.816406 -1.320312 0.691406 -1.375 0.578125 -1.4375 C 0.460938 -1.5 0.367188 -1.578125 0.296875 -1.671875 C 0.234375 -1.773438 0.203125 -1.898438 0.203125 -2.046875 C 0.203125 -2.234375 0.269531 -2.382812 0.40625 -2.5 C 0.539062 -2.625 0.71875 -2.71875 0.9375 -2.78125 C 1.164062 -2.84375 1.414062 -2.875 1.6875 -2.875 C 1.84375 -2.875 2 -2.863281 2.15625 -2.84375 C 2.3125 -2.832031 2.457031 -2.804688 2.59375 -2.765625 C 2.738281 -2.734375 2.863281 -2.695312 2.96875 -2.65625 L 2.96875 -2.0625 C 2.820312 -2.144531 2.632812 -2.210938 2.40625 -2.265625 C 2.1875 -2.316406 1.957031 -2.34375 1.71875 -2.34375 C 1.5625 -2.34375 1.414062 -2.332031 1.28125 -2.3125 C 1.15625 -2.300781 1.050781 -2.269531 0.96875 -2.21875 C 0.894531 -2.175781 0.859375 -2.117188 0.859375 -2.046875 C 0.859375 -1.960938 0.890625 -1.898438 0.953125 -1.859375 C 1.023438 -1.816406 1.117188 -1.78125 1.234375 -1.75 C 1.347656 -1.726562 1.472656 -1.707031 1.609375 -1.6875 C 1.753906 -1.664062 1.898438 -1.644531 2.046875 -1.625 C 2.203125 -1.601562 2.347656 -1.570312 2.484375 -1.53125 C 2.628906 -1.5 2.757812 -1.453125 2.875 -1.390625 C 2.988281 -1.335938 3.078125 -1.265625 3.140625 -1.171875 C 3.210938 -1.078125 3.25 -0.957031 3.25 -0.8125 C 3.25 -0.632812 3.1875 -0.476562 3.0625 -0.34375 C 2.9375 -0.21875 2.757812 -0.117188 2.53125 -0.046875 C 2.3125 0.0234375 2.050781 0.0625 1.75 0.0625 Z M 1.75 0.0625 "/></g></g></g><g clip-path="url(#dadc31ae9d)"><path fill="#ffffff" d="M 93.5 12.722656 C 92.738281 12.722656 91.976562 12.761719 91.21875 12.835938 C 90.460938 12.914062 89.707031 13.023438 88.957031 13.175781 C 88.210938 13.324219 87.472656 13.507812 86.742188 13.730469 C 86.015625 13.953125 85.296875 14.210938 84.59375 14.503906 C 83.890625 14.792969 83.199219 15.121094 82.527344 15.480469 C 81.855469 15.839844 81.203125 16.230469 80.570312 16.65625 C 79.933594 17.078125 79.324219 17.53125 78.734375 18.015625 C 78.144531 18.5 77.582031 19.011719 77.042969 19.550781 C 76.503906 20.089844 75.992188 20.652344 75.507812 21.242188 C 75.023438 21.832031 74.570312 22.445312 74.144531 23.078125 C 73.722656 23.710938 73.332031 24.363281 72.972656 25.035156 C 72.613281 25.710938 72.285156 26.398438 71.992188 27.101562 C 71.703125 27.804688 71.445312 28.523438 71.222656 29.25 C 71 29.980469 70.816406 30.71875 70.664062 31.46875 C 70.515625 32.214844 70.402344 32.96875 70.328125 33.726562 C 70.253906 34.484375 70.214844 35.246094 70.214844 36.007812 L 70.214844 74.824219 L 72.15625 74.824219 L 72.15625 60.265625 L 92.53125 60.265625 L 92.53125 74.824219 L 94.46875 74.824219 L 94.46875 60.265625 L 114.84375 60.265625 L 114.84375 74.824219 L 116.78125 74.824219 L 116.78125 36.007812 C 116.78125 35.246094 116.746094 34.484375 116.667969 33.726562 C 116.59375 32.96875 116.480469 32.214844 116.332031 31.46875 C 116.183594 30.71875 115.996094 29.980469 115.773438 29.253906 C 115.554688 28.523438 115.296875 27.804688 115.003906 27.101562 C 114.710938 26.398438 114.386719 25.710938 114.027344 25.039062 C 113.667969 24.367188 113.273438 23.710938 112.851562 23.078125 C 112.425781 22.445312 111.972656 21.832031 111.492188 21.242188 C 111.007812 20.65625 110.496094 20.089844 109.957031 19.550781 C 109.417969 19.011719 108.851562 18.5 108.265625 18.015625 C 107.675781 17.535156 107.0625 17.078125 106.429688 16.65625 C 105.796875 16.230469 105.144531 15.839844 104.46875 15.480469 C 103.796875 15.121094 103.109375 14.796875 102.40625 14.503906 C 101.703125 14.210938 100.984375 13.953125 100.257812 13.730469 C 99.527344 13.511719 98.789062 13.324219 98.039062 13.175781 C 97.292969 13.027344 96.539062 12.914062 95.78125 12.835938 C 95.023438 12.761719 94.261719 12.722656 93.5 12.722656 Z M 93.5 14.664062 C 94.628906 14.664062 95.753906 14.757812 96.871094 14.9375 C 97.988281 15.117188 99.082031 15.382812 100.15625 15.734375 C 101.230469 16.089844 102.269531 16.523438 103.273438 17.042969 C 104.277344 17.558594 105.238281 18.15625 106.148438 18.824219 C 107.058594 19.496094 107.910156 20.230469 108.703125 21.039062 C 109.496094 21.84375 110.222656 22.707031 110.878906 23.625 C 111.535156 24.546875 112.117188 25.511719 112.621094 26.523438 C 113.125 27.539062 113.542969 28.582031 113.882812 29.660156 L 72.15625 57.480469 L 72.15625 36.007812 C 72.15625 35.308594 72.191406 34.613281 72.261719 33.917969 C 72.328125 33.222656 72.433594 32.53125 72.570312 31.847656 C 72.707031 31.160156 72.875 30.484375 73.082031 29.816406 C 73.285156 29.148438 73.519531 28.488281 73.785156 27.84375 C 74.054688 27.199219 74.351562 26.566406 74.683594 25.953125 C 75.011719 25.335938 75.371094 24.738281 75.761719 24.15625 C 76.148438 23.574219 76.566406 23.015625 77.007812 22.472656 C 77.453125 21.933594 77.921875 21.417969 78.414062 20.921875 C 78.910156 20.429688 79.425781 19.960938 79.964844 19.515625 C 80.507812 19.074219 81.066406 18.65625 81.648438 18.269531 C 82.226562 17.878906 82.828125 17.519531 83.441406 17.191406 C 84.058594 16.863281 84.691406 16.5625 85.335938 16.296875 C 85.980469 16.027344 86.636719 15.792969 87.308594 15.589844 C 87.976562 15.386719 88.652344 15.214844 89.335938 15.078125 C 90.023438 14.941406 90.714844 14.839844 91.410156 14.769531 C 92.105469 14.699219 92.800781 14.664062 93.5 14.664062 Z M 74.390625 58.320312 L 92.539062 46.230469 L 92.539062 58.320312 Z M 94.46875 58.320312 L 94.46875 44.9375 L 114.394531 31.652344 C 114.695312 33.089844 114.84375 34.542969 114.84375 36.007812 L 114.84375 58.320312 Z M 94.46875 58.320312 " fill-opacity="1" fill-rule="nonzero"/></g><g clip-path="url(#4dc8fcf36c)"><path fill="#ffffff" d="M 93.5 6.902344 C 92.546875 6.902344 91.597656 6.953125 90.648438 7.046875 C 89.699219 7.140625 88.757812 7.28125 87.824219 7.46875 C 86.890625 7.652344 85.964844 7.886719 85.054688 8.164062 C 84.144531 8.441406 83.246094 8.761719 82.367188 9.125 C 81.484375 9.492188 80.625 9.898438 79.785156 10.347656 C 78.945312 10.796875 78.128906 11.289062 77.335938 11.816406 C 76.542969 12.347656 75.78125 12.914062 75.042969 13.519531 C 74.308594 14.125 73.601562 14.761719 72.929688 15.4375 C 72.253906 16.109375 71.613281 16.816406 71.011719 17.550781 C 70.40625 18.289062 69.839844 19.054688 69.308594 19.84375 C 68.777344 20.636719 68.289062 21.453125 67.839844 22.292969 C 67.390625 23.132812 66.984375 23.996094 66.617188 24.875 C 66.253906 25.753906 65.929688 26.652344 65.652344 27.5625 C 65.378906 28.476562 65.144531 29.398438 64.957031 30.332031 C 64.773438 31.265625 64.632812 32.207031 64.535156 33.15625 C 64.441406 34.105469 64.394531 35.054688 64.394531 36.007812 L 64.394531 74.824219 L 66.332031 74.824219 L 66.332031 36.007812 C 66.324219 35.113281 66.359375 34.21875 66.441406 33.328125 C 66.519531 32.4375 66.640625 31.550781 66.808594 30.671875 C 66.976562 29.792969 67.1875 28.921875 67.441406 28.0625 C 67.691406 27.203125 67.988281 26.359375 68.324219 25.53125 C 68.660156 24.703125 69.039062 23.890625 69.453125 23.097656 C 69.871094 22.304688 70.324219 21.535156 70.820312 20.789062 C 71.3125 20.039062 71.839844 19.320312 72.402344 18.625 C 72.96875 17.929688 73.566406 17.261719 74.195312 16.628906 C 74.824219 15.992188 75.484375 15.386719 76.175781 14.816406 C 76.863281 14.246094 77.582031 13.710938 78.324219 13.210938 C 79.066406 12.710938 79.832031 12.246094 80.621094 11.824219 C 81.40625 11.398438 82.214844 11.015625 83.042969 10.667969 C 83.867188 10.324219 84.707031 10.023438 85.566406 9.761719 C 86.421875 9.5 87.289062 9.28125 88.167969 9.105469 C 89.042969 8.929688 89.929688 8.796875 90.820312 8.707031 C 91.710938 8.621094 92.601562 8.578125 93.5 8.578125 C 94.394531 8.578125 95.285156 8.621094 96.179688 8.707031 C 97.070312 8.796875 97.953125 8.929688 98.832031 9.105469 C 99.710938 9.28125 100.574219 9.5 101.433594 9.761719 C 102.289062 10.023438 103.128906 10.324219 103.957031 10.667969 C 104.78125 11.015625 105.589844 11.398438 106.378906 11.824219 C 107.167969 12.246094 107.933594 12.710938 108.675781 13.210938 C 109.417969 13.710938 110.132812 14.246094 110.824219 14.816406 C 111.511719 15.386719 112.171875 15.992188 112.800781 16.628906 C 113.433594 17.261719 114.027344 17.929688 114.59375 18.625 C 115.15625 19.320312 115.6875 20.039062 116.179688 20.789062 C 116.671875 21.535156 117.125 22.304688 117.542969 23.097656 C 117.960938 23.890625 118.335938 24.703125 118.671875 25.53125 C 119.007812 26.359375 119.304688 27.203125 119.558594 28.0625 C 119.808594 28.921875 120.019531 29.792969 120.1875 30.671875 C 120.355469 31.550781 120.476562 32.4375 120.558594 33.328125 C 120.636719 34.21875 120.671875 35.113281 120.664062 36.007812 L 120.664062 74.824219 L 122.605469 74.824219 L 122.605469 36.007812 C 122.605469 35.054688 122.558594 34.105469 122.460938 33.15625 C 122.367188 32.207031 122.226562 31.265625 122.042969 30.332031 C 121.855469 29.398438 121.621094 28.476562 121.34375 27.5625 C 121.066406 26.652344 120.746094 25.753906 120.382812 24.875 C 120.015625 23.996094 119.609375 23.136719 119.160156 22.292969 C 118.710938 21.453125 118.21875 20.636719 117.691406 19.847656 C 117.160156 19.054688 116.59375 18.289062 115.988281 17.554688 C 115.382812 16.816406 114.746094 16.109375 114.070312 15.4375 C 113.398438 14.761719 112.691406 14.125 111.957031 13.519531 C 111.21875 12.914062 110.453125 12.347656 109.664062 11.816406 C 108.871094 11.289062 108.054688 10.800781 107.214844 10.347656 C 106.375 9.898438 105.511719 9.492188 104.632812 9.128906 C 103.753906 8.761719 102.855469 8.441406 101.945312 8.164062 C 101.035156 7.886719 100.109375 7.652344 99.175781 7.46875 C 98.242188 7.28125 97.300781 7.140625 96.351562 7.046875 C 95.402344 6.953125 94.453125 6.902344 93.5 6.902344 Z M 93.5 6.902344 " fill-opacity="1" fill-rule="nonzero"/></g></svg>
