<svg xmlns="http://www.w3.org/2000/svg" xmlns:xlink="http://www.w3.org/1999/xlink" width="6912" zoomAndPan="magnify" viewBox="0 0 5184 2592.000001" height="3456" preserveAspectRatio="xMidYMid meet" version="1.0"><defs><g/><clipPath id="db947dc3c4"><path d="M 391 665 L 1434 665 L 1434 2055.640625 L 391 2055.640625 Z M 391 665 " clip-rule="nonzero"/></clipPath><clipPath id="c4985a956b"><path d="M 260.101562 535.230469 L 1565 535.230469 L 1565 2055.640625 L 260.101562 2055.640625 Z M 260.101562 535.230469 " clip-rule="nonzero"/></clipPath></defs><g fill="#ffffff" fill-opacity="1"><g transform="translate(1854.087474, 1263.331333)"><g><path d="M 137.6875 4.4375 C 125 4.4375 111.09375 3.484375 95.96875 1.578125 C 80.84375 -0.316406 65.929688 -2.957031 51.234375 -6.34375 C 36.535156 -9.726562 23.367188 -13.640625 11.734375 -18.078125 L 13.953125 -68.53125 C 30.660156 -57.945312 49.585938 -50.066406 70.734375 -44.890625 C 91.890625 -39.710938 113.890625 -37.125 136.734375 -37.125 C 156.828125 -37.125 173.164062 -39.078125 185.75 -42.984375 C 198.332031 -46.898438 204.625 -53.722656 204.625 -63.453125 C 204.625 -69.160156 201.976562 -73.757812 196.6875 -77.25 C 191.40625 -80.738281 184.269531 -83.488281 175.28125 -85.5 C 166.289062 -87.507812 156.191406 -89.203125 144.984375 -90.578125 C 133.773438 -91.953125 122.25 -93.484375 110.40625 -95.171875 C 98.5625 -96.867188 87.035156 -99.144531 75.828125 -102 C 64.617188 -104.851562 54.519531 -108.710938 45.53125 -113.578125 C 36.539062 -118.441406 29.398438 -124.734375 24.109375 -132.453125 C 18.828125 -140.171875 16.1875 -149.738281 16.1875 -161.15625 C 16.1875 -175.539062 21.421875 -187.546875 31.890625 -197.171875 C 42.359375 -206.796875 56.472656 -214.09375 74.234375 -219.0625 C 92.003906 -224.03125 111.566406 -226.515625 132.921875 -226.515625 C 144.984375 -226.515625 157.195312 -225.773438 169.5625 -224.296875 C 181.9375 -222.816406 193.675781 -220.753906 204.78125 -218.109375 C 215.882812 -215.460938 225.5625 -212.34375 233.8125 -208.75 L 233.8125 -161.796875 C 222.175781 -168.566406 207.472656 -174.066406 189.703125 -178.296875 C 171.941406 -182.523438 153.648438 -184.640625 134.828125 -184.640625 C 122.984375 -184.640625 111.878906 -183.953125 101.515625 -182.578125 C 91.148438 -181.203125 82.847656 -178.769531 76.609375 -175.28125 C 70.367188 -171.789062 67.25 -166.875 67.25 -160.53125 C 67.25 -154.601562 69.894531 -149.84375 75.1875 -146.25 C 80.476562 -142.65625 87.613281 -139.851562 96.59375 -137.84375 C 105.582031 -135.832031 115.679688 -134.085938 126.890625 -132.609375 C 138.109375 -131.128906 149.691406 -129.59375 161.640625 -128 C 173.585938 -126.414062 185.164062 -124.25 196.375 -121.5 C 207.582031 -118.75 217.679688 -115.046875 226.671875 -110.390625 C 235.660156 -105.742188 242.796875 -99.664062 248.078125 -92.15625 C 253.367188 -84.65625 256.015625 -75.191406 256.015625 -63.765625 C 256.015625 -49.597656 251.148438 -37.4375 241.421875 -27.28125 C 231.691406 -17.132812 218 -9.3125 200.34375 -3.8125 C 182.6875 1.6875 161.800781 4.4375 137.6875 4.4375 Z M 137.6875 4.4375 "/></g></g></g><g fill="#ffffff" fill-opacity="1"><g transform="translate(2236.693269, 1263.331333)"><g><path d="M 25.703125 0 C 29.710938 -13.113281 31.71875 -30.878906 31.71875 -53.296875 L 31.71875 -168.78125 C 31.71875 -179.5625 31.132812 -189.601562 29.96875 -198.90625 C 28.8125 -208.21875 27.390625 -215.941406 25.703125 -222.078125 L 243.015625 -222.078125 L 250.9375 -174.171875 C 247.34375 -175.859375 242.003906 -177.226562 234.921875 -178.28125 C 227.835938 -179.34375 218.796875 -179.875 207.796875 -179.875 L 80.90625 -179.875 L 80.90625 -131.96875 L 183.046875 -131.96875 C 197.640625 -131.96875 208.742188 -132.601562 216.359375 -133.875 L 216.359375 -88.828125 C 208.742188 -90.097656 197.640625 -90.734375 183.046875 -90.734375 L 80.90625 -90.734375 L 80.90625 -42.1875 L 210.015625 -42.1875 C 222.492188 -42.1875 232.539062 -42.925781 240.15625 -44.40625 C 247.769531 -45.894531 253.90625 -47.90625 258.5625 -50.4375 L 249.359375 0 Z M 25.703125 0 "/></g></g></g><g fill="#ffffff" fill-opacity="1"><g transform="translate(2623.106013, 1263.331333)"><g><path d="M -3.8125 0 C 0.414062 -6.132812 5.4375 -14.007812 11.25 -23.625 C 17.070312 -33.25 22.628906 -43.140625 27.921875 -53.296875 L 88.203125 -168.78125 C 93.484375 -179.351562 97.550781 -189.34375 100.40625 -198.75 C 103.257812 -208.164062 105.21875 -215.941406 106.28125 -222.078125 L 184 -222.078125 C 185.476562 -214.878906 187.644531 -206.414062 190.5 -196.6875 C 193.363281 -186.957031 196.910156 -177.757812 201.140625 -169.09375 L 262.046875 -53.296875 C 267.335938 -42.929688 272.835938 -32.988281 278.546875 -23.46875 C 284.253906 -13.957031 289.222656 -6.132812 293.453125 0 L 231.28125 0 C 230.644531 -4.226562 229.269531 -9.09375 227.15625 -14.59375 C 225.039062 -20.09375 221.65625 -26.96875 217 -35.21875 L 207.796875 -52.03125 L 81.84375 -52.03125 L 72.65625 -34.890625 C 68.84375 -26.859375 65.664062 -20.09375 63.125 -14.59375 C 60.59375 -9.09375 59.007812 -4.226562 58.375 0 Z M 100.25 -89.78125 L 189.390625 -89.78125 L 159.890625 -146.5625 C 157.140625 -152.488281 154.707031 -158.253906 152.59375 -163.859375 C 150.476562 -169.460938 148.363281 -175.332031 146.25 -181.46875 L 143.390625 -181.46875 C 141.273438 -175.125 139.160156 -169.203125 137.046875 -163.703125 C 134.929688 -158.203125 132.394531 -152.382812 129.4375 -146.25 Z M 100.25 -89.78125 "/></g></g></g><g fill="#ffffff" fill-opacity="1"><g transform="translate(3026.967229, 1263.331333)"><g><path d="M 156.09375 4.4375 C 128.164062 4.4375 103.519531 -0.265625 82.15625 -9.671875 C 60.800781 -19.085938 44.148438 -32.359375 32.203125 -49.484375 C 20.253906 -66.617188 14.28125 -86.925781 14.28125 -110.40625 C 14.28125 -134.09375 20.359375 -154.609375 32.515625 -171.953125 C 44.679688 -189.296875 61.492188 -202.722656 82.953125 -212.234375 C 104.421875 -221.753906 129.007812 -226.515625 156.71875 -226.515625 C 175.125 -226.515625 192.253906 -224.976562 208.109375 -221.90625 C 223.972656 -218.84375 238.359375 -214.878906 251.265625 -210.015625 L 248.71875 -165.28125 C 241.957031 -169.507812 233.867188 -173 224.453125 -175.75 C 215.046875 -178.5 204.945312 -180.613281 194.15625 -182.09375 C 183.375 -183.582031 172.691406 -184.328125 162.109375 -184.328125 C 142.867188 -184.328125 125.789062 -181.363281 110.875 -175.4375 C 95.96875 -169.519531 84.28125 -161.007812 75.8125 -149.90625 C 67.351562 -138.800781 63.125 -125.632812 63.125 -110.40625 C 63.125 -95.601562 67.085938 -82.753906 75.015625 -71.859375 C 82.953125 -60.960938 94.003906 -52.601562 108.171875 -46.78125 C 122.347656 -40.96875 138.742188 -38.0625 157.359375 -38.0625 C 171.734375 -38.0625 185.53125 -40.28125 198.75 -44.71875 C 211.96875 -49.164062 222.28125 -55.300781 229.6875 -63.125 L 229.6875 -89.78125 L 176.078125 -89.78125 C 171.421875 -89.78125 166.128906 -89.515625 160.203125 -88.984375 C 154.285156 -88.460938 149.847656 -87.671875 146.890625 -86.609375 L 149.109375 -129.75 L 276.640625 -129.75 L 276.640625 -38.390625 C 264.585938 -25.484375 247.929688 -15.117188 226.671875 -7.296875 C 205.421875 0.523438 181.894531 4.4375 156.09375 4.4375 Z M 156.09375 4.4375 "/></g></g></g><g fill="#ffffff" fill-opacity="1"><g transform="translate(3433.366382, 1263.331333)"><g><path d="M 192.890625 4.765625 C 180.835938 4.765625 169.734375 3.96875 159.578125 2.375 C 149.421875 0.789062 139.210938 -0.738281 128.953125 -2.21875 C 118.703125 -3.695312 107.019531 -4.4375 93.90625 -4.4375 C 79.3125 -4.4375 66.144531 -3.429688 54.40625 -1.421875 C 42.664062 0.585938 33.097656 2.648438 25.703125 4.765625 C 27.597656 -1.585938 29.070312 -10.15625 30.125 -20.9375 C 31.1875 -31.726562 31.71875 -42.515625 31.71875 -53.296875 L 31.71875 -168.78125 C 31.71875 -179.5625 31.132812 -189.601562 29.96875 -198.90625 C 28.8125 -208.21875 27.390625 -215.941406 25.703125 -222.078125 L 86.609375 -222.078125 C 85.128906 -215.941406 83.804688 -207.375 82.640625 -196.375 C 81.484375 -185.375 80.90625 -174.484375 80.90625 -163.703125 L 80.90625 -41.875 L 177.65625 -41.875 C 191.40625 -41.875 204.148438 -42.71875 215.890625 -44.40625 C 227.628906 -46.101562 236.773438 -48.328125 243.328125 -51.078125 L 240.46875 -2.21875 C 236.457031 -1.375 230.007812 0 221.125 1.90625 C 212.238281 3.8125 202.828125 4.765625 192.890625 4.765625 Z M 192.890625 4.765625 "/></g></g></g><g fill="#ffffff" fill-opacity="1"><g transform="translate(3799.792714, 1263.331333)"><g><path d="M -3.8125 0 C 0.414062 -6.132812 5.4375 -14.007812 11.25 -23.625 C 17.070312 -33.25 22.628906 -43.140625 27.921875 -53.296875 L 88.203125 -168.78125 C 93.484375 -179.351562 97.550781 -189.34375 100.40625 -198.75 C 103.257812 -208.164062 105.21875 -215.941406 106.28125 -222.078125 L 184 -222.078125 C 185.476562 -214.878906 187.644531 -206.414062 190.5 -196.6875 C 193.363281 -186.957031 196.910156 -177.757812 201.140625 -169.09375 L 262.046875 -53.296875 C 267.335938 -42.929688 272.835938 -32.988281 278.546875 -23.46875 C 284.253906 -13.957031 289.222656 -6.132812 293.453125 0 L 231.28125 0 C 230.644531 -4.226562 229.269531 -9.09375 227.15625 -14.59375 C 225.039062 -20.09375 221.65625 -26.96875 217 -35.21875 L 207.796875 -52.03125 L 81.84375 -52.03125 L 72.65625 -34.890625 C 68.84375 -26.859375 65.664062 -20.09375 63.125 -14.59375 C 60.59375 -9.09375 59.007812 -4.226562 58.375 0 Z M 100.25 -89.78125 L 189.390625 -89.78125 L 159.890625 -146.5625 C 157.140625 -152.488281 154.707031 -158.253906 152.59375 -163.859375 C 150.476562 -169.460938 148.363281 -175.332031 146.25 -181.46875 L 143.390625 -181.46875 C 141.273438 -175.125 139.160156 -169.203125 137.046875 -163.703125 C 134.929688 -158.203125 132.394531 -152.382812 129.4375 -146.25 Z M 100.25 -89.78125 "/></g></g></g><g fill="#ffffff" fill-opacity="1"><g transform="translate(4203.654009, 1263.331333)"><g><path d="M 137.6875 4.4375 C 125 4.4375 111.09375 3.484375 95.96875 1.578125 C 80.84375 -0.316406 65.929688 -2.957031 51.234375 -6.34375 C 36.535156 -9.726562 23.367188 -13.640625 11.734375 -18.078125 L 13.953125 -68.53125 C 30.660156 -57.945312 49.585938 -50.066406 70.734375 -44.890625 C 91.890625 -39.710938 113.890625 -37.125 136.734375 -37.125 C 156.828125 -37.125 173.164062 -39.078125 185.75 -42.984375 C 198.332031 -46.898438 204.625 -53.722656 204.625 -63.453125 C 204.625 -69.160156 201.976562 -73.757812 196.6875 -77.25 C 191.40625 -80.738281 184.269531 -83.488281 175.28125 -85.5 C 166.289062 -87.507812 156.191406 -89.203125 144.984375 -90.578125 C 133.773438 -91.953125 122.25 -93.484375 110.40625 -95.171875 C 98.5625 -96.867188 87.035156 -99.144531 75.828125 -102 C 64.617188 -104.851562 54.519531 -108.710938 45.53125 -113.578125 C 36.539062 -118.441406 29.398438 -124.734375 24.109375 -132.453125 C 18.828125 -140.171875 16.1875 -149.738281 16.1875 -161.15625 C 16.1875 -175.539062 21.421875 -187.546875 31.890625 -197.171875 C 42.359375 -206.796875 56.472656 -214.09375 74.234375 -219.0625 C 92.003906 -224.03125 111.566406 -226.515625 132.921875 -226.515625 C 144.984375 -226.515625 157.195312 -225.773438 169.5625 -224.296875 C 181.9375 -222.816406 193.675781 -220.753906 204.78125 -218.109375 C 215.882812 -215.460938 225.5625 -212.34375 233.8125 -208.75 L 233.8125 -161.796875 C 222.175781 -168.566406 207.472656 -174.066406 189.703125 -178.296875 C 171.941406 -182.523438 153.648438 -184.640625 134.828125 -184.640625 C 122.984375 -184.640625 111.878906 -183.953125 101.515625 -182.578125 C 91.148438 -181.203125 82.847656 -178.769531 76.609375 -175.28125 C 70.367188 -171.789062 67.25 -166.875 67.25 -160.53125 C 67.25 -154.601562 69.894531 -149.84375 75.1875 -146.25 C 80.476562 -142.65625 87.613281 -139.851562 96.59375 -137.84375 C 105.582031 -135.832031 115.679688 -134.085938 126.890625 -132.609375 C 138.109375 -131.128906 149.691406 -129.59375 161.640625 -128 C 173.585938 -126.414062 185.164062 -124.25 196.375 -121.5 C 207.582031 -118.75 217.679688 -115.046875 226.671875 -110.390625 C 235.660156 -105.742188 242.796875 -99.664062 248.078125 -92.15625 C 253.367188 -84.65625 256.015625 -75.191406 256.015625 -63.765625 C 256.015625 -49.597656 251.148438 -37.4375 241.421875 -27.28125 C 231.691406 -17.132812 218 -9.3125 200.34375 -3.8125 C 182.6875 1.6875 161.800781 4.4375 137.6875 4.4375 Z M 137.6875 4.4375 "/></g></g></g><g fill="#ffffff" fill-opacity="1"><g transform="translate(4586.259886, 1263.331333)"><g><path d="M 137.6875 4.4375 C 125 4.4375 111.09375 3.484375 95.96875 1.578125 C 80.84375 -0.316406 65.929688 -2.957031 51.234375 -6.34375 C 36.535156 -9.726562 23.367188 -13.640625 11.734375 -18.078125 L 13.953125 -68.53125 C 30.660156 -57.945312 49.585938 -50.066406 70.734375 -44.890625 C 91.890625 -39.710938 113.890625 -37.125 136.734375 -37.125 C 156.828125 -37.125 173.164062 -39.078125 185.75 -42.984375 C 198.332031 -46.898438 204.625 -53.722656 204.625 -63.453125 C 204.625 -69.160156 201.976562 -73.757812 196.6875 -77.25 C 191.40625 -80.738281 184.269531 -83.488281 175.28125 -85.5 C 166.289062 -87.507812 156.191406 -89.203125 144.984375 -90.578125 C 133.773438 -91.953125 122.25 -93.484375 110.40625 -95.171875 C 98.5625 -96.867188 87.035156 -99.144531 75.828125 -102 C 64.617188 -104.851562 54.519531 -108.710938 45.53125 -113.578125 C 36.539062 -118.441406 29.398438 -124.734375 24.109375 -132.453125 C 18.828125 -140.171875 16.1875 -149.738281 16.1875 -161.15625 C 16.1875 -175.539062 21.421875 -187.546875 31.890625 -197.171875 C 42.359375 -206.796875 56.472656 -214.09375 74.234375 -219.0625 C 92.003906 -224.03125 111.566406 -226.515625 132.921875 -226.515625 C 144.984375 -226.515625 157.195312 -225.773438 169.5625 -224.296875 C 181.9375 -222.816406 193.675781 -220.753906 204.78125 -218.109375 C 215.882812 -215.460938 225.5625 -212.34375 233.8125 -208.75 L 233.8125 -161.796875 C 222.175781 -168.566406 207.472656 -174.066406 189.703125 -178.296875 C 171.941406 -182.523438 153.648438 -184.640625 134.828125 -184.640625 C 122.984375 -184.640625 111.878906 -183.953125 101.515625 -182.578125 C 91.148438 -181.203125 82.847656 -178.769531 76.609375 -175.28125 C 70.367188 -171.789062 67.25 -166.875 67.25 -160.53125 C 67.25 -154.601562 69.894531 -149.84375 75.1875 -146.25 C 80.476562 -142.65625 87.613281 -139.851562 96.59375 -137.84375 C 105.582031 -135.832031 115.679688 -134.085938 126.890625 -132.609375 C 138.109375 -131.128906 149.691406 -129.59375 161.640625 -128 C 173.585938 -126.414062 185.164062 -124.25 196.375 -121.5 C 207.582031 -118.75 217.679688 -115.046875 226.671875 -110.390625 C 235.660156 -105.742188 242.796875 -99.664062 248.078125 -92.15625 C 253.367188 -84.65625 256.015625 -75.191406 256.015625 -63.765625 C 256.015625 -49.597656 251.148438 -37.4375 241.421875 -27.28125 C 231.691406 -17.132812 218 -9.3125 200.34375 -3.8125 C 182.6875 1.6875 161.800781 4.4375 137.6875 4.4375 Z M 137.6875 4.4375 "/></g></g></g><g fill="#ffffff" fill-opacity="1"><g transform="translate(1984.968267, 1543.942376)"><g><path d="M 73.84375 2.046875 C 64.601562 2.046875 55.921875 0.90625 47.796875 -1.375 C 39.671875 -3.664062 32.519531 -7.070312 26.34375 -11.59375 C 20.164062 -16.125 15.320312 -21.671875 11.8125 -28.234375 C 8.3125 -34.804688 6.5625 -42.375 6.5625 -50.9375 C 6.5625 -59.5 8.285156 -67.085938 11.734375 -73.703125 C 15.191406 -80.316406 19.960938 -85.882812 26.046875 -90.40625 C 32.128906 -94.925781 39.207031 -98.351562 47.28125 -100.6875 C 55.351562 -103.03125 64.0625 -104.203125 73.40625 -104.203125 C 81.769531 -104.203125 89.671875 -103.375 97.109375 -101.71875 C 104.554688 -100.0625 110.8125 -97.921875 115.875 -95.296875 L 113.984375 -73.40625 C 109.890625 -76.519531 104.507812 -79.125 97.84375 -81.21875 C 91.1875 -83.3125 83.960938 -84.359375 76.171875 -84.359375 C 67.421875 -84.359375 59.519531 -83.019531 52.46875 -80.34375 C 45.414062 -77.664062 39.820312 -73.84375 35.6875 -68.875 C 31.550781 -63.914062 29.484375 -57.9375 29.484375 -50.9375 C 29.484375 -43.832031 31.625 -37.820312 35.90625 -32.90625 C 40.1875 -27.988281 45.972656 -24.238281 53.265625 -21.65625 C 60.566406 -19.082031 68.789062 -17.796875 77.9375 -17.796875 C 86.101562 -17.796875 93.90625 -18.914062 101.34375 -21.15625 C 108.789062 -23.394531 114.992188 -26.460938 119.953125 -30.359375 L 119.953125 -6.859375 C 114.023438 -4.128906 107.164062 -1.960938 99.375 -0.359375 C 91.59375 1.242188 83.082031 2.046875 73.84375 2.046875 Z M 73.84375 2.046875 "/></g></g></g><g fill="#ffffff" fill-opacity="1"><g transform="translate(2162.270088, 1543.942376)"><g><path d="M 88.734375 2.1875 C 83.179688 2.1875 78.070312 1.820312 73.40625 1.09375 C 68.738281 0.363281 64.046875 -0.335938 59.328125 -1.015625 C 54.609375 -1.703125 49.234375 -2.046875 43.203125 -2.046875 C 36.484375 -2.046875 30.421875 -1.582031 25.015625 -0.65625 C 19.617188 0.269531 15.222656 1.21875 11.828125 2.1875 C 12.703125 -0.726562 13.378906 -4.664062 13.859375 -9.625 C 14.347656 -14.59375 14.59375 -19.554688 14.59375 -24.515625 L 14.59375 -77.640625 C 14.59375 -82.597656 14.320312 -87.21875 13.78125 -91.5 C 13.25 -95.78125 12.597656 -99.332031 11.828125 -102.15625 L 39.84375 -102.15625 C 39.15625 -99.332031 38.546875 -95.390625 38.015625 -90.328125 C 37.484375 -85.273438 37.21875 -80.265625 37.21875 -75.296875 L 37.21875 -19.265625 L 81.71875 -19.265625 C 88.039062 -19.265625 93.898438 -19.648438 99.296875 -20.421875 C 104.703125 -21.203125 108.914062 -22.226562 111.9375 -23.5 L 110.625 -1.015625 C 108.769531 -0.628906 105.800781 0 101.71875 0.875 C 97.632812 1.75 93.304688 2.1875 88.734375 2.1875 Z M 88.734375 2.1875 "/></g></g></g><g fill="#ffffff" fill-opacity="1"><g transform="translate(2330.816741, 1543.942376)"><g><path d="M 11.828125 0 C 13.671875 -6.03125 14.59375 -14.203125 14.59375 -24.515625 L 14.59375 -77.640625 C 14.59375 -82.597656 14.320312 -87.21875 13.78125 -91.5 C 13.25 -95.78125 12.597656 -99.332031 11.828125 -102.15625 L 111.78125 -102.15625 L 115.4375 -80.125 C 113.78125 -80.894531 111.320312 -81.523438 108.0625 -82.015625 C 104.800781 -82.503906 100.644531 -82.75 95.59375 -82.75 L 37.21875 -82.75 L 37.21875 -60.703125 L 84.203125 -60.703125 C 90.921875 -60.703125 96.03125 -60.992188 99.53125 -61.578125 L 99.53125 -40.859375 C 96.03125 -41.441406 90.921875 -41.734375 84.203125 -41.734375 L 37.21875 -41.734375 L 37.21875 -19.40625 L 96.609375 -19.40625 C 102.347656 -19.40625 106.96875 -19.742188 110.46875 -20.421875 C 113.976562 -21.109375 116.800781 -22.035156 118.9375 -23.203125 L 114.703125 0 Z M 11.828125 0 "/></g></g></g><g fill="#ffffff" fill-opacity="1"><g transform="translate(2508.556305, 1543.942376)"><g><path d="M -1.75 0 C 0.195312 -2.820312 2.503906 -6.445312 5.171875 -10.875 C 7.847656 -15.300781 10.40625 -19.847656 12.84375 -24.515625 L 40.578125 -77.640625 C 43.003906 -82.503906 44.875 -87.097656 46.1875 -91.421875 C 47.5 -95.753906 48.398438 -99.332031 48.890625 -102.15625 L 84.640625 -102.15625 C 85.328125 -98.84375 86.328125 -94.945312 87.640625 -90.46875 C 88.953125 -86 90.582031 -81.769531 92.53125 -77.78125 L 120.546875 -24.515625 C 122.972656 -19.742188 125.5 -15.171875 128.125 -10.796875 C 130.757812 -6.421875 133.046875 -2.820312 134.984375 0 L 106.390625 0 C 106.097656 -1.945312 105.460938 -4.179688 104.484375 -6.703125 C 103.515625 -9.234375 101.960938 -12.398438 99.828125 -16.203125 L 95.59375 -23.9375 L 37.65625 -23.9375 L 33.421875 -16.046875 C 31.671875 -12.347656 30.210938 -9.234375 29.046875 -6.703125 C 27.878906 -4.179688 27.148438 -1.945312 26.859375 0 Z M 46.109375 -41.296875 L 87.125 -41.296875 L 73.546875 -67.421875 C 72.285156 -70.148438 71.164062 -72.800781 70.1875 -75.375 C 69.21875 -77.957031 68.25 -80.65625 67.28125 -83.46875 L 65.96875 -83.46875 C 64.988281 -80.550781 64.007812 -77.828125 63.03125 -75.296875 C 62.0625 -72.773438 60.898438 -70.101562 59.546875 -67.28125 Z M 46.109375 -41.296875 "/></g></g></g><g fill="#ffffff" fill-opacity="1"><g transform="translate(2694.321455, 1543.942376)"><g><path d="M 11.828125 0 C 12.597656 -2.820312 13.25 -6.375 13.78125 -10.65625 C 14.320312 -14.9375 14.59375 -19.554688 14.59375 -24.515625 L 14.59375 -77.640625 C 14.59375 -87.953125 13.671875 -96.125 11.828125 -102.15625 L 38.234375 -102.15625 L 106.09375 -30.5 L 108 -30.5 L 108 -78.078125 C 108 -83.140625 107.726562 -87.832031 107.1875 -92.15625 C 106.65625 -96.488281 106.046875 -99.820312 105.359375 -102.15625 L 133.390625 -102.15625 C 132.609375 -99.332031 131.972656 -95.78125 131.484375 -91.5 C 131.003906 -87.21875 130.765625 -82.597656 130.765625 -77.640625 L 130.765625 0 L 109.890625 0 L 38.96875 -73.984375 L 37.21875 -73.984375 L 37.21875 -26.125 C 37.21875 -21.0625 37.484375 -16.070312 38.015625 -11.15625 C 38.546875 -6.25 39.15625 -2.53125 39.84375 0 Z M 11.828125 0 "/></g></g></g><g fill="#ffffff" fill-opacity="1"><g transform="translate(2892.051952, 1543.942376)"><g><path d="M 11.828125 0 C 12.703125 -2.820312 13.359375 -6.375 13.796875 -10.65625 C 14.234375 -14.9375 14.453125 -19.554688 14.453125 -24.515625 L 14.453125 -77.640625 C 14.453125 -82.597656 14.207031 -87.21875 13.71875 -91.5 C 13.226562 -95.78125 12.597656 -99.332031 11.828125 -102.15625 L 39.84375 -102.15625 C 39.0625 -99.332031 38.425781 -95.78125 37.9375 -91.5 C 37.457031 -87.21875 37.21875 -82.597656 37.21875 -77.640625 L 37.21875 -24.515625 C 37.21875 -19.554688 37.457031 -14.9375 37.9375 -10.65625 C 38.425781 -6.375 39.0625 -2.820312 39.84375 0 Z M 11.828125 0 "/></g></g></g><g fill="#ffffff" fill-opacity="1"><g transform="translate(2996.394003, 1543.942376)"><g><path d="M 11.828125 0 C 12.597656 -2.820312 13.25 -6.375 13.78125 -10.65625 C 14.320312 -14.9375 14.59375 -19.554688 14.59375 -24.515625 L 14.59375 -77.640625 C 14.59375 -87.953125 13.671875 -96.125 11.828125 -102.15625 L 38.234375 -102.15625 L 106.09375 -30.5 L 108 -30.5 L 108 -78.078125 C 108 -83.140625 107.726562 -87.832031 107.1875 -92.15625 C 106.65625 -96.488281 106.046875 -99.820312 105.359375 -102.15625 L 133.390625 -102.15625 C 132.609375 -99.332031 131.972656 -95.78125 131.484375 -91.5 C 131.003906 -87.21875 130.765625 -82.597656 130.765625 -77.640625 L 130.765625 0 L 109.890625 0 L 38.96875 -73.984375 L 37.21875 -73.984375 L 37.21875 -26.125 C 37.21875 -21.0625 37.484375 -16.070312 38.015625 -11.15625 C 38.546875 -6.25 39.15625 -2.53125 39.84375 0 Z M 11.828125 0 "/></g></g></g><g fill="#ffffff" fill-opacity="1"><g transform="translate(3194.124582, 1543.942376)"><g><path d="M 71.796875 2.046875 C 58.953125 2.046875 47.617188 -0.113281 37.796875 -4.4375 C 27.972656 -8.769531 20.3125 -14.878906 14.8125 -22.765625 C 9.3125 -30.648438 6.5625 -39.988281 6.5625 -50.78125 C 6.5625 -61.675781 9.359375 -71.113281 14.953125 -79.09375 C 20.546875 -87.070312 28.28125 -93.25 38.15625 -97.625 C 48.03125 -102.007812 59.34375 -104.203125 72.09375 -104.203125 C 80.5625 -104.203125 88.441406 -103.492188 95.734375 -102.078125 C 103.035156 -100.671875 109.648438 -98.847656 115.578125 -96.609375 L 114.421875 -76.03125 C 111.304688 -77.976562 107.582031 -79.582031 103.25 -80.84375 C 98.914062 -82.113281 94.269531 -83.085938 89.3125 -83.765625 C 84.351562 -84.453125 79.441406 -84.796875 74.578125 -84.796875 C 65.722656 -84.796875 57.863281 -83.429688 51 -80.703125 C 44.144531 -77.972656 38.769531 -74.054688 34.875 -68.953125 C 30.988281 -63.847656 29.046875 -57.789062 29.046875 -50.78125 C 29.046875 -43.976562 30.867188 -38.066406 34.515625 -33.046875 C 38.160156 -28.035156 43.242188 -24.191406 49.765625 -21.515625 C 56.285156 -18.847656 63.828125 -17.515625 72.390625 -17.515625 C 79.003906 -17.515625 85.347656 -18.535156 91.421875 -20.578125 C 97.503906 -22.617188 102.25 -25.441406 105.65625 -29.046875 L 105.65625 -41.296875 L 81 -41.296875 C 78.851562 -41.296875 76.414062 -41.175781 73.6875 -40.9375 C 70.96875 -40.695312 68.925781 -40.332031 67.5625 -39.84375 L 68.59375 -59.6875 L 127.25 -59.6875 L 127.25 -17.65625 C 121.707031 -11.71875 114.046875 -6.945312 104.265625 -3.34375 C 94.492188 0.25 83.671875 2.046875 71.796875 2.046875 Z M 71.796875 2.046875 "/></g></g></g><g fill="#ffffff" fill-opacity="1"><g transform="translate(3381.057058, 1543.942376)"><g/></g></g><g fill="#ffffff" fill-opacity="1"><g transform="translate(3474.60101, 1543.942376)"><g><path d="M 63.34375 2.046875 C 57.5 2.046875 51.097656 1.609375 44.140625 0.734375 C 37.191406 -0.140625 30.332031 -1.351562 23.5625 -2.90625 C 16.800781 -4.46875 10.75 -6.269531 5.40625 -8.3125 L 6.421875 -31.515625 C 14.109375 -26.648438 22.816406 -23.023438 32.546875 -20.640625 C 42.273438 -18.265625 52.394531 -17.078125 62.90625 -17.078125 C 72.144531 -17.078125 79.65625 -17.972656 85.4375 -19.765625 C 91.226562 -21.566406 94.125 -24.707031 94.125 -29.1875 C 94.125 -31.8125 92.90625 -33.925781 90.46875 -35.53125 C 88.039062 -37.132812 84.757812 -38.398438 80.625 -39.328125 C 76.488281 -40.253906 71.84375 -41.03125 66.6875 -41.65625 C 61.53125 -42.289062 56.226562 -43 50.78125 -43.78125 C 45.332031 -44.5625 40.03125 -45.609375 34.875 -46.921875 C 29.71875 -48.234375 25.070312 -50.007812 20.9375 -52.25 C 16.800781 -54.488281 13.515625 -57.378906 11.078125 -60.921875 C 8.648438 -64.472656 7.4375 -68.878906 7.4375 -74.140625 C 7.4375 -80.753906 9.84375 -86.273438 14.65625 -90.703125 C 19.476562 -95.128906 25.972656 -98.484375 34.140625 -100.765625 C 42.316406 -103.054688 51.316406 -104.203125 61.140625 -104.203125 C 66.691406 -104.203125 72.3125 -103.859375 78 -103.171875 C 83.695312 -102.492188 89.097656 -101.546875 94.203125 -100.328125 C 99.304688 -99.109375 103.757812 -97.675781 107.5625 -96.03125 L 107.5625 -74.421875 C 102.207031 -77.535156 95.441406 -80.066406 87.265625 -82.015625 C 79.097656 -83.960938 70.679688 -84.9375 62.015625 -84.9375 C 56.566406 -84.9375 51.457031 -84.617188 46.6875 -83.984375 C 41.925781 -83.347656 38.109375 -82.226562 35.234375 -80.625 C 32.367188 -79.019531 30.9375 -76.757812 30.9375 -73.84375 C 30.9375 -71.125 32.148438 -68.9375 34.578125 -67.28125 C 37.015625 -65.625 40.300781 -64.332031 44.4375 -63.40625 C 48.570312 -62.476562 53.21875 -61.675781 58.375 -61 C 63.53125 -60.320312 68.851562 -59.617188 74.34375 -58.890625 C 79.84375 -58.160156 85.171875 -57.160156 90.328125 -55.890625 C 95.484375 -54.628906 100.128906 -52.925781 104.265625 -50.78125 C 108.398438 -48.644531 111.679688 -45.847656 114.109375 -42.390625 C 116.546875 -38.941406 117.765625 -34.585938 117.765625 -29.328125 C 117.765625 -22.816406 115.523438 -17.222656 111.046875 -12.546875 C 106.578125 -7.878906 100.28125 -4.28125 92.15625 -1.75 C 84.03125 0.78125 74.425781 2.046875 63.34375 2.046875 Z M 63.34375 2.046875 "/></g></g></g><g fill="#ffffff" fill-opacity="1"><g transform="translate(3650.589564, 1543.942376)"><g><path d="M 11.828125 0 C 13.671875 -6.03125 14.59375 -14.203125 14.59375 -24.515625 L 14.59375 -77.640625 C 14.59375 -82.597656 14.320312 -87.21875 13.78125 -91.5 C 13.25 -95.78125 12.597656 -99.332031 11.828125 -102.15625 L 111.78125 -102.15625 L 115.4375 -80.125 C 113.78125 -80.894531 111.320312 -81.523438 108.0625 -82.015625 C 104.800781 -82.503906 100.644531 -82.75 95.59375 -82.75 L 37.21875 -82.75 L 37.21875 -60.703125 L 84.203125 -60.703125 C 90.921875 -60.703125 96.03125 -60.992188 99.53125 -61.578125 L 99.53125 -40.859375 C 96.03125 -41.441406 90.921875 -41.734375 84.203125 -41.734375 L 37.21875 -41.734375 L 37.21875 -19.40625 L 96.609375 -19.40625 C 102.347656 -19.40625 106.96875 -19.742188 110.46875 -20.421875 C 113.976562 -21.109375 116.800781 -22.035156 118.9375 -23.203125 L 114.703125 0 Z M 11.828125 0 "/></g></g></g><g fill="#ffffff" fill-opacity="1"><g transform="translate(3828.329089, 1543.942376)"><g><path d="M 117.328125 2.1875 C 111.878906 2.1875 107.476562 1.4375 104.125 -0.0625 C 100.769531 -1.570312 98.046875 -3.59375 95.953125 -6.125 C 93.859375 -8.65625 92.054688 -11.425781 90.546875 -14.4375 C 89.046875 -17.457031 87.539062 -20.453125 86.03125 -23.421875 C 84.519531 -26.390625 82.597656 -29.140625 80.265625 -31.671875 C 77.929688 -34.203125 74.890625 -36.21875 71.140625 -37.71875 C 67.398438 -39.226562 62.515625 -39.984375 56.484375 -39.984375 C 55.117188 -39.984375 53.117188 -39.929688 50.484375 -39.828125 C 47.859375 -39.734375 45.304688 -39.613281 42.828125 -39.46875 C 40.347656 -39.320312 38.523438 -39.054688 37.359375 -38.671875 L 37.359375 -23.5 C 37.359375 -13.664062 38.234375 -5.832031 39.984375 0 L 11.96875 0 C 12.75 -2.914062 13.378906 -6.488281 13.859375 -10.71875 C 14.347656 -14.957031 14.59375 -19.554688 14.59375 -24.515625 L 14.59375 -77.640625 C 14.59375 -82.597656 14.347656 -87.21875 13.859375 -91.5 C 13.378906 -95.78125 12.75 -99.332031 11.96875 -102.15625 L 82.59375 -102.15625 C 90.769531 -102.15625 97.972656 -101.132812 104.203125 -99.09375 C 110.429688 -97.050781 115.296875 -94.035156 118.796875 -90.046875 C 122.296875 -86.054688 124.046875 -81.191406 124.046875 -75.453125 C 124.046875 -70.003906 122.390625 -65.160156 119.078125 -60.921875 C 115.773438 -56.691406 111.179688 -53.382812 105.296875 -51 C 99.410156 -48.613281 92.523438 -47.421875 84.640625 -47.421875 L 75.734375 -47.421875 L 75.734375 -46.265625 L 76.90625 -46.265625 C 82.0625 -46.265625 86.34375 -45.628906 89.75 -44.359375 C 93.15625 -43.097656 95.976562 -41.492188 98.21875 -39.546875 C 100.457031 -37.597656 102.378906 -35.53125 103.984375 -33.34375 C 105.585938 -31.15625 107.117188 -29.085938 108.578125 -27.140625 C 110.035156 -25.191406 111.664062 -23.585938 113.46875 -22.328125 C 115.269531 -21.066406 117.484375 -20.4375 120.109375 -20.4375 C 124.097656 -20.4375 127.113281 -21.359375 129.15625 -23.203125 C 131.195312 -25.054688 132.847656 -27.535156 134.109375 -30.640625 L 135.140625 -5.40625 C 133.484375 -3.164062 131.023438 -1.34375 127.765625 0.0625 C 124.503906 1.476562 121.023438 2.1875 117.328125 2.1875 Z M 37.359375 -56.1875 L 79.25 -56.1875 C 85.957031 -56.1875 91.304688 -57.328125 95.296875 -59.609375 C 99.285156 -61.898438 101.28125 -65.132812 101.28125 -69.3125 C 101.28125 -73.40625 99.359375 -76.617188 95.515625 -78.953125 C 91.671875 -81.285156 86.585938 -82.453125 80.265625 -82.453125 L 37.359375 -82.453125 Z M 37.359375 -56.1875 "/></g></g></g><g fill="#ffffff" fill-opacity="1"><g transform="translate(4017.596299, 1543.942376)"><g><path d="M 48.890625 0 C 48.210938 -3.5 47.117188 -7.4375 45.609375 -11.8125 C 44.097656 -16.195312 42.515625 -20.382812 40.859375 -24.375 L 12.984375 -77.640625 C 10.847656 -82.597656 8.632812 -87.21875 6.34375 -91.5 C 4.0625 -95.78125 1.945312 -99.332031 0 -102.15625 L 28.890625 -102.15625 C 29.179688 -100.113281 29.691406 -97.773438 30.421875 -95.140625 C 31.148438 -92.515625 32.394531 -89.257812 34.15625 -85.375 L 59.546875 -35.46875 C 60.710938 -32.738281 61.851562 -30.132812 62.96875 -27.65625 C 64.09375 -25.175781 65.140625 -22.570312 66.109375 -19.84375 L 67.28125 -19.84375 C 68.34375 -22.664062 69.359375 -25.289062 70.328125 -27.71875 C 71.304688 -30.15625 72.429688 -32.738281 73.703125 -35.46875 L 99.09375 -85.375 C 100.75 -89.257812 101.960938 -92.515625 102.734375 -95.140625 C 103.515625 -97.773438 104.097656 -100.113281 104.484375 -102.15625 L 132.515625 -102.15625 C 130.472656 -99.332031 128.351562 -95.78125 126.15625 -91.5 C 123.96875 -87.21875 121.753906 -82.597656 119.515625 -77.640625 L 91.65625 -24.515625 C 89.507812 -19.648438 87.726562 -15.078125 86.3125 -10.796875 C 84.90625 -6.515625 83.957031 -2.914062 83.46875 0 Z M 48.890625 0 "/></g></g></g><g fill="#ffffff" fill-opacity="1"><g transform="translate(4202.631824, 1543.942376)"><g><path d="M 11.828125 0 C 12.703125 -2.820312 13.359375 -6.375 13.796875 -10.65625 C 14.234375 -14.9375 14.453125 -19.554688 14.453125 -24.515625 L 14.453125 -77.640625 C 14.453125 -82.597656 14.207031 -87.21875 13.71875 -91.5 C 13.226562 -95.78125 12.597656 -99.332031 11.828125 -102.15625 L 39.84375 -102.15625 C 39.0625 -99.332031 38.425781 -95.78125 37.9375 -91.5 C 37.457031 -87.21875 37.21875 -82.597656 37.21875 -77.640625 L 37.21875 -24.515625 C 37.21875 -19.554688 37.457031 -14.9375 37.9375 -10.65625 C 38.425781 -6.375 39.0625 -2.820312 39.84375 0 Z M 11.828125 0 "/></g></g></g><g fill="#ffffff" fill-opacity="1"><g transform="translate(4306.973875, 1543.942376)"><g><path d="M 73.84375 2.046875 C 64.601562 2.046875 55.921875 0.90625 47.796875 -1.375 C 39.671875 -3.664062 32.519531 -7.070312 26.34375 -11.59375 C 20.164062 -16.125 15.320312 -21.671875 11.8125 -28.234375 C 8.3125 -34.804688 6.5625 -42.375 6.5625 -50.9375 C 6.5625 -59.5 8.285156 -67.085938 11.734375 -73.703125 C 15.191406 -80.316406 19.960938 -85.882812 26.046875 -90.40625 C 32.128906 -94.925781 39.207031 -98.351562 47.28125 -100.6875 C 55.351562 -103.03125 64.0625 -104.203125 73.40625 -104.203125 C 81.769531 -104.203125 89.671875 -103.375 97.109375 -101.71875 C 104.554688 -100.0625 110.8125 -97.921875 115.875 -95.296875 L 113.984375 -73.40625 C 109.890625 -76.519531 104.507812 -79.125 97.84375 -81.21875 C 91.1875 -83.3125 83.960938 -84.359375 76.171875 -84.359375 C 67.421875 -84.359375 59.519531 -83.019531 52.46875 -80.34375 C 45.414062 -77.664062 39.820312 -73.84375 35.6875 -68.875 C 31.550781 -63.914062 29.484375 -57.9375 29.484375 -50.9375 C 29.484375 -43.832031 31.625 -37.820312 35.90625 -32.90625 C 40.1875 -27.988281 45.972656 -24.238281 53.265625 -21.65625 C 60.566406 -19.082031 68.789062 -17.796875 77.9375 -17.796875 C 86.101562 -17.796875 93.90625 -18.914062 101.34375 -21.15625 C 108.789062 -23.394531 114.992188 -26.460938 119.953125 -30.359375 L 119.953125 -6.859375 C 114.023438 -4.128906 107.164062 -1.960938 99.375 -0.359375 C 91.59375 1.242188 83.082031 2.046875 73.84375 2.046875 Z M 73.84375 2.046875 "/></g></g></g><g fill="#ffffff" fill-opacity="1"><g transform="translate(4484.275618, 1543.942376)"><g><path d="M 11.828125 0 C 13.671875 -6.03125 14.59375 -14.203125 14.59375 -24.515625 L 14.59375 -77.640625 C 14.59375 -82.597656 14.320312 -87.21875 13.78125 -91.5 C 13.25 -95.78125 12.597656 -99.332031 11.828125 -102.15625 L 111.78125 -102.15625 L 115.4375 -80.125 C 113.78125 -80.894531 111.320312 -81.523438 108.0625 -82.015625 C 104.800781 -82.503906 100.644531 -82.75 95.59375 -82.75 L 37.21875 -82.75 L 37.21875 -60.703125 L 84.203125 -60.703125 C 90.921875 -60.703125 96.03125 -60.992188 99.53125 -61.578125 L 99.53125 -40.859375 C 96.03125 -41.441406 90.921875 -41.734375 84.203125 -41.734375 L 37.21875 -41.734375 L 37.21875 -19.40625 L 96.609375 -19.40625 C 102.347656 -19.40625 106.96875 -19.742188 110.46875 -20.421875 C 113.976562 -21.109375 116.800781 -22.035156 118.9375 -23.203125 L 114.703125 0 Z M 11.828125 0 "/></g></g></g><g fill="#ffffff" fill-opacity="1"><g transform="translate(4662.015143, 1543.942376)"><g><path d="M 63.34375 2.046875 C 57.5 2.046875 51.097656 1.609375 44.140625 0.734375 C 37.191406 -0.140625 30.332031 -1.351562 23.5625 -2.90625 C 16.800781 -4.46875 10.75 -6.269531 5.40625 -8.3125 L 6.421875 -31.515625 C 14.109375 -26.648438 22.816406 -23.023438 32.546875 -20.640625 C 42.273438 -18.265625 52.394531 -17.078125 62.90625 -17.078125 C 72.144531 -17.078125 79.65625 -17.972656 85.4375 -19.765625 C 91.226562 -21.566406 94.125 -24.707031 94.125 -29.1875 C 94.125 -31.8125 92.90625 -33.925781 90.46875 -35.53125 C 88.039062 -37.132812 84.757812 -38.398438 80.625 -39.328125 C 76.488281 -40.253906 71.84375 -41.03125 66.6875 -41.65625 C 61.53125 -42.289062 56.226562 -43 50.78125 -43.78125 C 45.332031 -44.5625 40.03125 -45.609375 34.875 -46.921875 C 29.71875 -48.234375 25.070312 -50.007812 20.9375 -52.25 C 16.800781 -54.488281 13.515625 -57.378906 11.078125 -60.921875 C 8.648438 -64.472656 7.4375 -68.878906 7.4375 -74.140625 C 7.4375 -80.753906 9.84375 -86.273438 14.65625 -90.703125 C 19.476562 -95.128906 25.972656 -98.484375 34.140625 -100.765625 C 42.316406 -103.054688 51.316406 -104.203125 61.140625 -104.203125 C 66.691406 -104.203125 72.3125 -103.859375 78 -103.171875 C 83.695312 -102.492188 89.097656 -101.546875 94.203125 -100.328125 C 99.304688 -99.109375 103.757812 -97.675781 107.5625 -96.03125 L 107.5625 -74.421875 C 102.207031 -77.535156 95.441406 -80.066406 87.265625 -82.015625 C 79.097656 -83.960938 70.679688 -84.9375 62.015625 -84.9375 C 56.566406 -84.9375 51.457031 -84.617188 46.6875 -83.984375 C 41.925781 -83.347656 38.109375 -82.226562 35.234375 -80.625 C 32.367188 -79.019531 30.9375 -76.757812 30.9375 -73.84375 C 30.9375 -71.125 32.148438 -68.9375 34.578125 -67.28125 C 37.015625 -65.625 40.300781 -64.332031 44.4375 -63.40625 C 48.570312 -62.476562 53.21875 -61.675781 58.375 -61 C 63.53125 -60.320312 68.851562 -59.617188 74.34375 -58.890625 C 79.84375 -58.160156 85.171875 -57.160156 90.328125 -55.890625 C 95.484375 -54.628906 100.128906 -52.925781 104.265625 -50.78125 C 108.398438 -48.644531 111.679688 -45.847656 114.109375 -42.390625 C 116.546875 -38.941406 117.765625 -34.585938 117.765625 -29.328125 C 117.765625 -22.816406 115.523438 -17.222656 111.046875 -12.546875 C 106.578125 -7.878906 100.28125 -4.28125 92.15625 -1.75 C 84.03125 0.78125 74.425781 2.046875 63.34375 2.046875 Z M 63.34375 2.046875 "/></g></g></g><g clip-path="url(#db947dc3c4)"><path fill="#ffffff" d="M 912.546875 665.539062 C 904.015625 665.550781 895.492188 665.769531 886.972656 666.195312 C 878.453125 666.621094 869.949219 667.257812 861.464844 668.101562 C 852.976562 668.945312 844.511719 670 836.078125 671.257812 C 827.640625 672.515625 819.238281 673.980469 810.875 675.652344 C 802.511719 677.324219 794.191406 679.199219 785.917969 681.277344 C 777.648438 683.355469 769.429688 685.636719 761.269531 688.121094 C 753.109375 690.601562 745.011719 693.28125 736.984375 696.160156 C 728.953125 699.039062 721 702.113281 713.121094 705.378906 C 705.242188 708.648438 697.449219 712.109375 689.738281 715.757812 C 682.03125 719.410156 674.414062 723.246094 666.894531 727.273438 C 659.375 731.296875 651.957031 735.5 644.640625 739.890625 C 637.328125 744.277344 630.125 748.839844 623.03125 753.582031 C 615.941406 758.324219 608.972656 763.234375 602.121094 768.316406 C 595.269531 773.402344 588.550781 778.648438 581.957031 784.058594 C 575.363281 789.472656 568.90625 795.042969 562.585938 800.769531 C 556.269531 806.5 550.09375 812.378906 544.0625 818.410156 C 538.027344 824.441406 532.148438 830.617188 526.421875 836.9375 C 520.691406 843.257812 515.121094 849.714844 509.707031 856.308594 C 504.296875 862.902344 499.050781 869.621094 493.964844 876.472656 C 488.882812 883.324219 483.972656 890.292969 479.230469 897.382812 C 474.492188 904.476562 469.925781 911.679688 465.539062 918.992188 C 461.152344 926.308594 456.945312 933.726562 452.921875 941.246094 C 448.898438 948.765625 445.058594 956.382812 441.410156 964.089844 C 437.757812 971.800781 434.296875 979.59375 431.03125 987.472656 C 427.761719 995.351562 424.6875 1003.304688 421.808594 1011.335938 C 418.929688 1019.363281 416.25 1027.460938 413.769531 1035.621094 C 411.285156 1043.78125 409.007812 1052 406.925781 1060.269531 C 404.847656 1068.542969 402.972656 1076.863281 401.300781 1085.226562 C 399.632812 1093.589844 398.164062 1101.992188 396.90625 1110.429688 C 395.648438 1118.863281 394.597656 1127.328125 393.75 1135.8125 C 392.90625 1144.300781 392.269531 1152.804688 391.84375 1161.324219 C 391.417969 1169.84375 391.199219 1178.367188 391.1875 1186.898438 L 391.1875 2056.003906 L 434.664062 2056.003906 L 434.664062 1729.964844 L 890.839844 1729.964844 L 890.839844 2056.003906 L 934.199219 2056.003906 L 934.199219 1729.964844 L 1390.429688 1729.964844 L 1390.429688 2056.003906 L 1433.847656 2056.003906 L 1433.847656 1186.898438 C 1433.839844 1178.367188 1433.621094 1169.84375 1433.191406 1161.328125 C 1432.765625 1152.808594 1432.128906 1144.304688 1431.285156 1135.816406 C 1430.441406 1127.332031 1429.390625 1118.867188 1428.128906 1110.433594 C 1426.871094 1101.996094 1425.40625 1093.597656 1423.734375 1085.234375 C 1422.066406 1076.871094 1420.191406 1068.550781 1418.109375 1060.28125 C 1416.03125 1052.007812 1413.753906 1043.792969 1411.269531 1035.632812 C 1408.789062 1027.46875 1406.109375 1019.375 1403.230469 1011.347656 C 1400.351562 1003.316406 1397.28125 995.363281 1394.011719 987.488281 C 1390.742188 979.609375 1387.285156 971.816406 1383.632812 964.105469 C 1379.984375 956.398438 1376.148438 948.78125 1372.125 941.261719 C 1368.101562 933.742188 1363.894531 926.324219 1359.507812 919.007812 C 1355.121094 911.695312 1350.558594 904.492188 1345.816406 897.402344 C 1341.078125 890.3125 1336.164062 883.339844 1331.082031 876.492188 C 1326 869.640625 1320.753906 862.921875 1315.34375 856.328125 C 1309.933594 849.734375 1304.363281 843.277344 1298.632812 836.957031 C 1292.90625 830.640625 1287.027344 824.464844 1280.996094 818.433594 C 1274.964844 812.402344 1268.789062 806.519531 1262.472656 800.792969 C 1256.152344 795.0625 1249.695312 789.492188 1243.105469 784.082031 C 1236.511719 778.667969 1229.792969 773.421875 1222.941406 768.339844 C 1216.09375 763.253906 1209.125 758.34375 1202.035156 753.601562 C 1194.941406 748.863281 1187.742188 744.296875 1180.425781 739.910156 C 1173.113281 735.519531 1165.695312 731.316406 1158.175781 727.289062 C 1150.65625 723.265625 1143.042969 719.429688 1135.332031 715.777344 C 1127.625 712.125 1119.832031 708.667969 1111.953125 705.398438 C 1104.078125 702.128906 1096.125 699.054688 1088.09375 696.175781 C 1080.066406 693.296875 1071.972656 690.613281 1063.8125 688.132812 C 1055.652344 685.652344 1047.4375 683.371094 1039.164062 681.289062 C 1030.890625 679.210938 1022.574219 677.335938 1014.210938 675.664062 C 1005.847656 673.992188 997.445312 672.527344 989.011719 671.265625 C 980.574219 670.003906 972.113281 668.953125 963.628906 668.109375 C 955.140625 667.261719 946.636719 666.625 938.117188 666.199219 C 929.601562 665.769531 921.078125 665.550781 912.546875 665.539062 Z M 912.546875 709.015625 C 918.863281 709.023438 925.175781 709.15625 931.488281 709.414062 C 937.800781 709.667969 944.101562 710.050781 950.398438 710.558594 C 956.695312 711.066406 962.976562 711.695312 969.25 712.453125 C 975.519531 713.207031 981.773438 714.085938 988.007812 715.089844 C 994.246094 716.09375 1000.460938 717.21875 1006.652344 718.46875 C 1012.84375 719.714844 1019.007812 721.085938 1025.144531 722.582031 C 1031.28125 724.074219 1037.386719 725.6875 1043.460938 727.421875 C 1049.535156 729.15625 1055.570312 731.011719 1061.570312 732.984375 C 1067.570312 734.957031 1073.53125 737.046875 1079.445312 739.257812 C 1085.363281 741.46875 1091.234375 743.792969 1097.0625 746.234375 C 1102.886719 748.675781 1108.660156 751.230469 1114.382812 753.902344 C 1120.109375 756.574219 1125.777344 759.355469 1131.390625 762.25 C 1137.003906 765.144531 1142.558594 768.148438 1148.054688 771.261719 C 1153.550781 774.378906 1158.980469 777.601562 1164.347656 780.929688 C 1169.714844 784.257812 1175.015625 787.695312 1180.246094 791.234375 C 1185.480469 794.773438 1190.636719 798.414062 1195.726562 802.15625 C 1200.8125 805.898438 1205.824219 809.742188 1210.761719 813.683594 C 1215.695312 817.625 1220.550781 821.664062 1225.328125 825.796875 C 1230.101562 829.933594 1234.792969 834.160156 1239.402344 838.476562 C 1244.011719 842.796875 1248.53125 847.207031 1252.964844 851.707031 C 1257.398438 856.203125 1261.742188 860.789062 1265.996094 865.460938 C 1270.246094 870.128906 1274.40625 874.882812 1278.46875 879.71875 C 1282.535156 884.554688 1286.5 889.464844 1290.371094 894.457031 C 1294.238281 899.449219 1298.007812 904.515625 1301.679688 909.660156 C 1305.347656 914.800781 1308.914062 920.011719 1312.375 925.292969 C 1315.839844 930.578125 1319.195312 935.925781 1322.449219 941.339844 C 1325.699219 946.757812 1328.839844 952.234375 1331.875 957.773438 C 1334.910156 963.3125 1337.832031 968.910156 1340.644531 974.566406 C 1343.460938 980.222656 1346.160156 985.929688 1348.746094 991.691406 C 1351.332031 997.453125 1353.804688 1003.265625 1356.160156 1009.125 C 1358.519531 1014.984375 1360.757812 1020.890625 1362.882812 1026.839844 C 1365.003906 1032.789062 1367.007812 1038.777344 1368.894531 1044.804688 L 434.664062 1667.625 L 434.664062 1186.898438 C 434.671875 1179.078125 434.871094 1171.265625 435.265625 1163.457031 C 435.65625 1155.648438 436.238281 1147.855469 437.011719 1140.074219 C 437.785156 1132.292969 438.75 1124.535156 439.902344 1116.804688 C 441.058594 1109.070312 442.402344 1101.371094 443.933594 1093.703125 C 445.464844 1086.035156 447.183594 1078.410156 449.089844 1070.828125 C 450.992188 1063.246094 453.082031 1055.714844 455.359375 1048.234375 C 457.632812 1040.753906 460.089844 1033.332031 462.726562 1025.972656 C 465.367188 1018.613281 468.183594 1011.324219 471.179688 1004.101562 C 474.175781 996.878906 477.347656 989.734375 480.695312 982.667969 C 484.039062 975.601562 487.558594 968.621094 491.246094 961.730469 C 494.933594 954.835938 498.789062 948.035156 502.8125 941.332031 C 506.832031 934.625 511.015625 928.023438 515.363281 921.523438 C 519.707031 915.023438 524.210938 908.636719 528.867188 902.355469 C 533.527344 896.078125 538.335938 889.914062 543.296875 883.871094 C 548.257812 877.828125 553.363281 871.910156 558.617188 866.117188 C 563.867188 860.324219 569.257812 854.664062 574.785156 849.136719 C 580.3125 843.609375 585.976562 838.21875 591.765625 832.96875 C 597.558594 827.714844 603.476562 822.609375 609.523438 817.648438 C 615.566406 812.6875 621.726562 807.878906 628.003906 803.21875 C 634.285156 798.5625 640.671875 794.058594 647.171875 789.714844 C 653.671875 785.367188 660.273438 781.183594 666.980469 777.164062 C 673.683594 773.140625 680.484375 769.285156 687.378906 765.597656 C 694.273438 761.910156 701.25 758.390625 708.316406 755.042969 C 715.382812 751.699219 722.527344 748.527344 729.75 745.53125 C 736.972656 742.535156 744.261719 739.71875 751.621094 737.078125 C 758.984375 734.441406 766.402344 731.984375 773.882812 729.710938 C 781.363281 727.433594 788.894531 725.34375 796.476562 723.441406 C 804.0625 721.535156 811.6875 719.816406 819.351562 718.285156 C 827.019531 716.753906 834.71875 715.410156 842.453125 714.253906 C 850.1875 713.101562 857.941406 712.136719 865.722656 711.363281 C 873.503906 710.589844 881.296875 710.007812 889.105469 709.617188 C 896.914062 709.222656 904.726562 709.023438 912.546875 709.015625 Z M 484.699219 1686.488281 L 891.011719 1415.769531 L 891.011719 1686.488281 Z M 934.253906 1686.488281 L 934.253906 1386.804688 L 1380.386719 1089.382812 C 1387.089844 1121.542969 1390.4375 1154.046875 1390.429688 1186.898438 L 1390.429688 1686.488281 Z M 934.253906 1686.488281 " fill-opacity="1" fill-rule="nonzero"/></g><g clip-path="url(#c4985a956b)"><path fill="#ffffff" d="M 912.546875 535.230469 C 901.886719 535.242188 891.230469 535.511719 880.582031 536.046875 C 869.933594 536.582031 859.304688 537.375 848.695312 538.429688 C 838.085938 539.484375 827.507812 540.800781 816.960938 542.371094 C 806.417969 543.945312 795.917969 545.777344 785.460938 547.867188 C 775.003906 549.953125 764.609375 552.296875 754.265625 554.894531 C 743.925781 557.492188 733.65625 560.34375 723.457031 563.445312 C 713.253906 566.546875 703.136719 569.898438 693.097656 573.496094 C 683.0625 577.09375 673.121094 580.933594 663.273438 585.019531 C 653.425781 589.105469 643.683594 593.429688 634.046875 597.992188 C 624.410156 602.554688 614.890625 607.351562 605.488281 612.382812 C 596.089844 617.410156 586.816406 622.667969 577.671875 628.152344 C 568.53125 633.636719 559.527344 639.34375 550.664062 645.269531 C 541.800781 651.195312 533.085938 657.335938 524.523438 663.6875 C 515.960938 670.039062 507.558594 676.597656 499.320312 683.363281 C 491.078125 690.128906 483.007812 697.09375 475.109375 704.253906 C 467.210938 711.414062 459.488281 718.761719 451.949219 726.300781 C 444.410156 733.839844 437.0625 741.5625 429.902344 749.460938 C 422.742188 757.359375 415.777344 765.429688 409.011719 773.671875 C 402.246094 781.910156 395.6875 790.3125 389.335938 798.875 C 382.984375 807.4375 376.84375 816.152344 370.917969 825.015625 C 364.992188 833.878906 359.285156 842.882812 353.800781 852.023438 C 348.316406 861.167969 343.0625 870.441406 338.03125 879.839844 C 333 889.242188 328.203125 898.761719 323.640625 908.398438 C 319.078125 918.03125 314.753906 927.773438 310.667969 937.625 C 306.582031 947.472656 302.742188 957.414062 299.144531 967.449219 C 295.546875 977.488281 292.195312 987.605469 289.09375 997.804688 C 285.992188 1008.007812 283.144531 1018.277344 280.542969 1028.617188 C 277.945312 1038.957031 275.601562 1049.355469 273.515625 1059.8125 C 271.425781 1070.265625 269.59375 1080.769531 268.023438 1091.3125 C 266.449219 1101.859375 265.132812 1112.4375 264.078125 1123.046875 C 263.023438 1133.65625 262.230469 1144.285156 261.695312 1154.933594 C 261.160156 1165.582031 260.890625 1176.234375 260.878906 1186.898438 L 260.878906 2056.003906 L 304.296875 2056.003906 L 304.296875 1186.898438 C 304.199219 1176.882812 304.347656 1166.871094 304.742188 1156.863281 C 305.140625 1146.851562 305.785156 1136.859375 306.675781 1126.882812 C 307.566406 1116.90625 308.703125 1106.957031 310.082031 1097.039062 C 311.464844 1087.117188 313.089844 1077.238281 314.960938 1067.394531 C 316.832031 1057.554688 318.945312 1047.769531 321.296875 1038.03125 C 323.652344 1028.296875 326.242188 1018.625 329.074219 1009.015625 C 331.90625 999.410156 334.972656 989.875 338.277344 980.417969 C 341.578125 970.964844 345.113281 961.59375 348.878906 952.3125 C 352.640625 943.03125 356.632812 933.847656 360.851562 924.761719 C 365.070312 915.679688 369.511719 906.703125 374.175781 897.839844 C 378.835938 888.972656 383.714844 880.230469 388.808594 871.605469 C 393.902344 862.980469 399.207031 854.488281 404.722656 846.125 C 410.234375 837.761719 415.953125 829.542969 421.875 821.460938 C 427.792969 813.382812 433.910156 805.453125 440.21875 797.675781 C 446.53125 789.898438 453.03125 782.28125 459.71875 774.824219 C 466.410156 767.367188 473.277344 760.082031 480.324219 752.964844 C 487.371094 745.847656 494.589844 738.910156 501.984375 732.148438 C 509.375 725.386719 516.925781 718.8125 524.640625 712.425781 C 532.359375 706.039062 540.226562 699.847656 548.246094 693.847656 C 556.269531 687.847656 564.433594 682.050781 572.742188 676.457031 C 581.050781 670.863281 589.492188 665.472656 598.066406 660.296875 C 606.640625 655.117188 615.335938 650.15625 624.15625 645.40625 C 632.972656 640.65625 641.90625 636.128906 650.949219 631.820312 C 659.992188 627.515625 669.132812 623.433594 678.378906 619.578125 C 687.625 615.722656 696.957031 612.097656 706.382812 608.703125 C 715.804688 605.308594 725.308594 602.148438 734.886719 599.222656 C 744.464844 596.296875 754.113281 593.609375 763.824219 591.160156 C 773.539062 588.714844 783.304688 586.503906 793.125 584.539062 C 802.949219 582.574219 812.8125 580.851562 822.71875 579.371094 C 832.625 577.894531 842.5625 576.660156 852.53125 575.671875 C 862.496094 574.683594 872.484375 573.941406 882.488281 573.449219 C 892.492188 572.953125 902.5 572.707031 912.519531 572.707031 C 922.535156 572.707031 932.542969 572.953125 942.550781 573.449219 C 952.554688 573.941406 962.539062 574.683594 972.507812 575.671875 C 982.472656 576.660156 992.410156 577.894531 1002.316406 579.371094 C 1012.222656 580.851562 1022.089844 582.574219 1031.910156 584.539062 C 1041.730469 586.503906 1051.5 588.714844 1061.210938 591.160156 C 1070.921875 593.609375 1080.570312 596.296875 1090.148438 599.222656 C 1099.730469 602.148438 1109.230469 605.308594 1118.65625 608.703125 C 1128.078125 612.097656 1137.414062 615.722656 1146.65625 619.578125 C 1155.902344 623.433594 1165.046875 627.515625 1174.089844 631.820312 C 1183.132812 636.128906 1192.0625 640.65625 1200.882812 645.40625 C 1209.699219 650.15625 1218.398438 655.117188 1226.972656 660.296875 C 1235.546875 665.472656 1243.988281 670.863281 1252.292969 676.457031 C 1260.601562 682.050781 1268.765625 687.847656 1276.789062 693.847656 C 1284.808594 699.847656 1292.679688 706.039062 1300.394531 712.425781 C 1308.109375 718.8125 1315.664062 725.386719 1323.054688 732.148438 C 1330.445312 738.910156 1337.664062 745.847656 1344.710938 752.964844 C 1351.761719 760.082031 1358.628906 767.367188 1365.316406 774.824219 C 1372.003906 782.28125 1378.503906 789.898438 1384.816406 797.675781 C 1391.128906 805.453125 1397.242188 813.382812 1403.164062 821.460938 C 1409.082031 829.542969 1414.800781 837.761719 1420.3125 846.125 C 1425.828125 854.488281 1431.132812 862.980469 1436.226562 871.605469 C 1441.320312 880.230469 1446.199219 888.972656 1450.859375 897.839844 C 1455.523438 906.703125 1459.964844 915.679688 1464.183594 924.761719 C 1468.402344 933.847656 1472.394531 943.03125 1476.160156 952.3125 C 1479.925781 961.59375 1483.457031 970.964844 1486.761719 980.417969 C 1490.0625 989.875 1493.128906 999.410156 1495.960938 1009.015625 C 1498.792969 1018.625 1501.386719 1028.296875 1503.738281 1038.03125 C 1506.09375 1047.769531 1508.203125 1057.554688 1510.074219 1067.394531 C 1511.945312 1077.238281 1513.570312 1087.117188 1514.953125 1097.039062 C 1516.335938 1106.957031 1517.472656 1116.90625 1518.359375 1126.882812 C 1519.25 1136.859375 1519.894531 1146.851562 1520.292969 1156.863281 C 1520.6875 1166.871094 1520.839844 1176.882812 1520.742188 1186.898438 L 1520.742188 2056.003906 L 1564.214844 2056.003906 L 1564.214844 1186.898438 C 1564.203125 1176.238281 1563.929688 1165.582031 1563.394531 1154.933594 C 1562.859375 1144.285156 1562.066406 1133.65625 1561.011719 1123.046875 C 1559.953125 1112.4375 1558.640625 1101.859375 1557.066406 1091.316406 C 1555.492188 1080.769531 1553.660156 1070.269531 1551.570312 1059.816406 C 1549.480469 1049.359375 1547.136719 1038.964844 1544.539062 1028.625 C 1541.9375 1018.285156 1539.089844 1008.011719 1535.988281 997.8125 C 1532.882812 987.613281 1529.535156 977.496094 1525.933594 967.457031 C 1522.335938 957.421875 1518.496094 947.480469 1514.410156 937.632812 C 1510.324219 927.785156 1506 918.042969 1501.4375 908.40625 C 1496.871094 898.769531 1492.074219 889.253906 1487.046875 879.851562 C 1482.015625 870.453125 1476.757812 861.179688 1471.273438 852.039062 C 1465.789062 842.894531 1460.085938 833.890625 1454.160156 825.027344 C 1448.234375 816.164062 1442.09375 807.453125 1435.742188 798.890625 C 1429.386719 790.328125 1422.828125 781.925781 1416.0625 773.6875 C 1409.296875 765.445312 1402.335938 757.375 1395.175781 749.476562 C 1388.015625 741.578125 1380.664062 733.859375 1373.125 726.320312 C 1365.585938 718.78125 1357.867188 711.429688 1349.96875 704.269531 C 1342.070312 697.109375 1334 690.148438 1325.757812 683.382812 C 1317.519531 676.617188 1309.117188 670.058594 1300.554688 663.703125 C 1291.992188 657.351562 1283.28125 651.210938 1274.417969 645.285156 C 1265.554688 639.359375 1256.550781 633.65625 1247.40625 628.171875 C 1238.265625 622.6875 1228.992188 617.429688 1219.59375 612.398438 C 1210.191406 607.371094 1200.675781 602.574219 1191.039062 598.007812 C 1181.402344 593.445312 1171.660156 589.121094 1161.8125 585.035156 C 1151.964844 580.949219 1142.023438 577.109375 1131.988281 573.507812 C 1121.949219 569.910156 1111.832031 566.5625 1101.632812 563.457031 C 1091.433594 560.355469 1081.160156 557.507812 1070.820312 554.90625 C 1060.480469 552.308594 1050.085938 549.964844 1039.628906 547.875 C 1029.175781 545.785156 1018.675781 543.953125 1008.128906 542.378906 C 997.585938 540.804688 987.007812 539.492188 976.398438 538.433594 C 965.789062 537.378906 955.160156 536.585938 944.511719 536.050781 C 933.863281 535.515625 923.207031 535.242188 912.546875 535.230469 Z M 912.546875 535.230469 " fill-opacity="1" fill-rule="nonzero"/></g></svg>