<svg xmlns="http://www.w3.org/2000/svg" xmlns:xlink="http://www.w3.org/1999/xlink" width="160" zoomAndPan="magnify" viewBox="0 0 120 119.999999" height="160" preserveAspectRatio="xMidYMid meet" version="1.0"><defs><clipPath id="d973577d60"><path d="M 25 18 L 95 18 L 95 110.730469 L 25 110.730469 Z M 25 18 " clip-rule="nonzero"/></clipPath><clipPath id="aef2c7a473"><path d="M 16.644531 9.480469 L 103.644531 9.480469 L 103.644531 110.730469 L 16.644531 110.730469 Z M 16.644531 9.480469 " clip-rule="nonzero"/></clipPath></defs><g clip-path="url(#d973577d60)"><path fill="#000000" d="M 60.144531 18.15625 C 59.007812 18.160156 57.871094 18.214844 56.738281 18.328125 C 55.605469 18.441406 54.480469 18.609375 53.367188 18.832031 C 52.25 19.054688 51.148438 19.328125 50.058594 19.660156 C 48.96875 19.992188 47.898438 20.375 46.847656 20.808594 C 45.796875 21.246094 44.769531 21.730469 43.765625 22.269531 C 42.761719 22.804688 41.789062 23.386719 40.839844 24.019531 C 39.894531 24.652344 38.984375 25.328125 38.101562 26.050781 C 37.222656 26.769531 36.382812 27.53125 35.574219 28.335938 C 34.769531 29.140625 34.007812 29.980469 33.285156 30.859375 C 32.5625 31.738281 31.886719 32.648438 31.253906 33.59375 C 30.621094 34.539062 30.035156 35.511719 29.5 36.515625 C 28.960938 37.519531 28.476562 38.542969 28.039062 39.59375 C 27.605469 40.644531 27.21875 41.710938 26.890625 42.800781 C 26.558594 43.886719 26.28125 44.988281 26.058594 46.101562 C 25.835938 47.21875 25.667969 48.339844 25.554688 49.472656 C 25.441406 50.601562 25.386719 51.738281 25.382812 52.875 L 25.382812 110.746094 L 28.28125 110.746094 L 28.28125 89.035156 L 58.695312 89.035156 L 58.695312 110.746094 L 61.589844 110.746094 L 61.589844 89.035156 L 92.007812 89.035156 L 92.007812 110.746094 L 94.902344 110.746094 L 94.902344 52.875 C 94.902344 51.738281 94.84375 50.601562 94.730469 49.472656 C 94.617188 48.339844 94.449219 47.21875 94.226562 46.105469 C 94.003906 44.988281 93.726562 43.886719 93.394531 42.800781 C 93.066406 41.714844 92.683594 40.644531 92.246094 39.59375 C 91.808594 38.546875 91.324219 37.519531 90.785156 36.515625 C 90.25 35.515625 89.664062 34.542969 89.03125 33.597656 C 88.398438 32.652344 87.722656 31.738281 87 30.859375 C 86.277344 29.984375 85.515625 29.140625 84.710938 28.335938 C 83.90625 27.535156 83.0625 26.773438 82.183594 26.050781 C 81.304688 25.328125 80.390625 24.652344 79.445312 24.019531 C 78.5 23.390625 77.523438 22.804688 76.523438 22.269531 C 75.519531 21.734375 74.492188 21.246094 73.441406 20.8125 C 72.386719 20.375 71.320312 19.992188 70.230469 19.660156 C 69.140625 19.332031 68.039062 19.054688 66.921875 18.832031 C 65.808594 18.609375 64.683594 18.441406 63.550781 18.328125 C 62.417969 18.214844 61.28125 18.160156 60.144531 18.15625 Z M 60.144531 21.050781 C 61.832031 21.054688 63.507812 21.1875 65.175781 21.457031 C 66.84375 21.722656 68.476562 22.121094 70.082031 22.648438 C 71.683594 23.175781 73.234375 23.824219 74.734375 24.597656 C 76.234375 25.371094 77.664062 26.253906 79.023438 27.253906 C 80.382812 28.253906 81.65625 29.351562 82.839844 30.554688 C 84.027344 31.753906 85.109375 33.039062 86.089844 34.414062 C 87.070312 35.785156 87.9375 37.226562 88.6875 38.734375 C 89.4375 40.242188 90.066406 41.804688 90.570312 43.410156 L 28.28125 84.882812 L 28.28125 52.875 C 28.285156 51.832031 28.335938 50.792969 28.4375 49.753906 C 28.542969 48.71875 28.695312 47.6875 28.898438 46.667969 C 29.105469 45.644531 29.359375 44.636719 29.660156 43.640625 C 29.964844 42.644531 30.316406 41.664062 30.71875 40.703125 C 31.117188 39.738281 31.5625 38.796875 32.054688 37.878906 C 32.546875 36.960938 33.082031 36.070312 33.664062 35.203125 C 34.242188 34.335938 34.863281 33.5 35.523438 32.695312 C 36.1875 31.890625 36.886719 31.117188 37.625 30.382812 C 38.363281 29.644531 39.132812 28.945312 39.941406 28.285156 C 40.746094 27.625 41.582031 27.003906 42.449219 26.425781 C 43.316406 25.847656 44.210938 25.3125 45.132812 24.820312 C 46.050781 24.328125 46.992188 23.882812 47.957031 23.484375 C 48.921875 23.085938 49.902344 22.734375 50.898438 22.429688 C 51.898438 22.125 52.90625 21.875 53.929688 21.667969 C 54.953125 21.464844 55.984375 21.3125 57.023438 21.207031 C 58.0625 21.105469 59.101562 21.054688 60.144531 21.050781 Z M 31.617188 86.140625 L 58.707031 68.113281 L 58.707031 86.140625 Z M 61.59375 86.140625 L 61.59375 66.183594 L 91.335938 46.378906 C 91.785156 48.519531 92.007812 50.6875 92.007812 52.875 L 92.007812 86.140625 Z M 61.59375 86.140625 " fill-opacity="1" fill-rule="nonzero"/></g><g clip-path="url(#aef2c7a473)"><path fill="#000000" d="M 60.144531 9.480469 C 58.722656 9.480469 57.304688 9.550781 55.886719 9.691406 C 54.472656 9.832031 53.066406 10.042969 51.671875 10.320312 C 50.277344 10.601562 48.898438 10.945312 47.535156 11.359375 C 46.175781 11.773438 44.839844 12.25 43.523438 12.796875 C 42.210938 13.339844 40.925781 13.945312 39.671875 14.617188 C 38.417969 15.289062 37.199219 16.015625 36.015625 16.808594 C 34.832031 17.597656 33.691406 18.441406 32.59375 19.34375 C 31.492188 20.246094 30.441406 21.199219 29.433594 22.203125 C 28.429688 23.207031 27.472656 24.257812 26.570312 25.355469 C 25.667969 26.457031 24.824219 27.59375 24.03125 28.777344 C 23.242188 29.957031 22.511719 31.175781 21.839844 32.425781 C 21.167969 33.679688 20.558594 34.960938 20.015625 36.273438 C 19.46875 37.585938 18.992188 38.921875 18.578125 40.28125 C 18.164062 41.640625 17.816406 43.019531 17.539062 44.410156 C 17.257812 45.804688 17.050781 47.207031 16.910156 48.621094 C 16.769531 50.035156 16.695312 51.453125 16.695312 52.875 L 16.695312 110.746094 L 19.589844 110.746094 L 19.589844 52.875 C 19.578125 51.539062 19.628906 50.207031 19.75 48.878906 C 19.867188 47.546875 20.050781 46.226562 20.300781 44.914062 C 20.550781 43.605469 20.863281 42.308594 21.242188 41.027344 C 21.621094 39.75 22.058594 38.488281 22.5625 37.253906 C 23.066406 36.015625 23.628906 34.808594 24.25 33.625 C 24.871094 32.445312 25.550781 31.296875 26.285156 30.183594 C 27.023438 29.066406 27.808594 27.992188 28.652344 26.957031 C 29.496094 25.917969 30.386719 24.925781 31.328125 23.976562 C 32.265625 23.03125 33.25 22.128906 34.28125 21.277344 C 35.3125 20.429688 36.378906 19.628906 37.488281 18.882812 C 38.597656 18.136719 39.738281 17.449219 40.917969 16.816406 C 42.09375 16.183594 43.296875 15.609375 44.53125 15.097656 C 45.765625 14.582031 47.019531 14.128906 48.300781 13.742188 C 49.578125 13.351562 50.871094 13.023438 52.183594 12.761719 C 53.492188 12.5 54.8125 12.304688 56.144531 12.171875 C 57.472656 12.042969 58.804688 11.976562 60.144531 11.976562 C 61.480469 11.976562 62.8125 12.042969 64.140625 12.171875 C 65.472656 12.304688 66.792969 12.5 68.101562 12.761719 C 69.414062 13.023438 70.707031 13.351562 71.984375 13.742188 C 73.265625 14.128906 74.519531 14.582031 75.753906 15.097656 C 76.988281 15.609375 78.191406 16.183594 79.367188 16.816406 C 80.546875 17.449219 81.6875 18.136719 82.796875 18.882812 C 83.90625 19.628906 84.972656 20.429688 86.003906 21.277344 C 87.035156 22.128906 88.019531 23.03125 88.957031 23.976562 C 89.898438 24.925781 90.789062 25.917969 91.632812 26.957031 C 92.476562 27.992188 93.261719 29.066406 94 30.183594 C 94.734375 31.296875 95.414062 32.445312 96.035156 33.625 C 96.65625 34.808594 97.21875 36.015625 97.722656 37.253906 C 98.226562 38.488281 98.664062 39.75 99.042969 41.027344 C 99.421875 42.308594 99.734375 43.605469 99.984375 44.914062 C 100.234375 46.226562 100.417969 47.546875 100.535156 48.878906 C 100.65625 50.207031 100.707031 51.539062 100.695312 52.875 L 100.695312 110.746094 L 103.59375 110.746094 L 103.59375 52.875 C 103.59375 51.453125 103.519531 50.035156 103.378906 48.621094 C 103.238281 47.207031 103.03125 45.804688 102.75 44.410156 C 102.472656 43.019531 102.125 41.640625 101.710938 40.28125 C 101.296875 38.921875 100.816406 37.585938 100.273438 36.273438 C 99.726562 34.960938 99.121094 33.679688 98.449219 32.425781 C 97.777344 31.175781 97.046875 29.957031 96.257812 28.777344 C 95.464844 27.597656 94.617188 26.457031 93.714844 25.359375 C 92.8125 24.261719 91.859375 23.207031 90.851562 22.203125 C 89.847656 21.199219 88.792969 20.246094 87.695312 19.34375 C 86.59375 18.445312 85.453125 17.597656 84.273438 16.808594 C 83.089844 16.019531 81.871094 15.289062 80.617188 14.617188 C 79.363281 13.949219 78.078125 13.339844 76.765625 12.796875 C 75.449219 12.25 74.113281 11.773438 72.75 11.359375 C 71.390625 10.945312 70.011719 10.601562 68.617188 10.320312 C 67.222656 10.042969 65.816406 9.835938 64.402344 9.695312 C 62.984375 9.550781 61.566406 9.480469 60.144531 9.480469 Z M 60.144531 9.480469 " fill-opacity="1" fill-rule="nonzero"/></g></svg>