<svg xmlns="http://www.w3.org/2000/svg" xmlns:xlink="http://www.w3.org/1999/xlink" width="500" zoomAndPan="magnify" viewBox="0 0 375 374.999991" height="500" preserveAspectRatio="xMidYMid meet" version="1.0"><defs><clipPath id="222310481e"><path d="M 109 92 L 266 92 L 266 301.359375 L 109 301.359375 Z M 109 92 " clip-rule="nonzero"/></clipPath><clipPath id="d265690c2f"><path d="M 89.546875 73.359375 L 285.296875 73.359375 L 285.296875 301.359375 L 89.546875 301.359375 Z M 89.546875 73.359375 " clip-rule="nonzero"/></clipPath></defs><g clip-path="url(#222310481e)"><path fill="#ffffff" d="M 187.496094 92.921875 C 186.214844 92.921875 184.9375 92.957031 183.65625 93.019531 C 182.378906 93.085938 181.101562 93.179688 179.828125 93.308594 C 178.554688 93.433594 177.28125 93.589844 176.015625 93.78125 C 174.75 93.96875 173.488281 94.191406 172.234375 94.441406 C 170.976562 94.691406 169.726562 94.972656 168.484375 95.285156 C 167.246094 95.597656 166.011719 95.941406 164.785156 96.3125 C 163.558594 96.683594 162.34375 97.085938 161.140625 97.519531 C 159.933594 97.953125 158.738281 98.414062 157.558594 98.902344 C 156.375 99.394531 155.203125 99.914062 154.046875 100.460938 C 152.890625 101.011719 151.746094 101.585938 150.617188 102.191406 C 149.488281 102.792969 148.375 103.425781 147.277344 104.085938 C 146.175781 104.742188 145.097656 105.429688 144.03125 106.140625 C 142.96875 106.851562 141.921875 107.589844 140.890625 108.351562 C 139.863281 109.117188 138.855469 109.902344 137.863281 110.714844 C 136.875 111.527344 135.90625 112.363281 134.957031 113.226562 C 134.007812 114.085938 133.082031 114.96875 132.175781 115.875 C 131.269531 116.777344 130.386719 117.707031 129.527344 118.65625 C 128.667969 119.601562 127.832031 120.574219 127.019531 121.5625 C 126.207031 122.550781 125.417969 123.5625 124.65625 124.589844 C 123.890625 125.617188 123.15625 126.664062 122.441406 127.730469 C 121.730469 128.792969 121.046875 129.875 120.386719 130.972656 C 119.726562 132.070312 119.097656 133.183594 118.492188 134.3125 C 117.886719 135.445312 117.3125 136.585938 116.765625 137.746094 C 116.214844 138.902344 115.695312 140.070312 115.207031 141.253906 C 114.714844 142.4375 114.253906 143.632812 113.820312 144.835938 C 113.390625 146.042969 112.988281 147.257812 112.613281 148.484375 C 112.242188 149.707031 111.898438 150.941406 111.585938 152.183594 C 111.273438 153.425781 110.992188 154.675781 110.742188 155.929688 C 110.492188 157.1875 110.273438 158.449219 110.082031 159.714844 C 109.894531 160.980469 109.734375 162.25 109.609375 163.523438 C 109.484375 164.800781 109.386719 166.074219 109.324219 167.355469 C 109.257812 168.632812 109.226562 169.914062 109.226562 171.195312 L 109.226562 301.675781 L 115.75 301.675781 L 115.75 252.726562 L 184.238281 252.726562 L 184.238281 301.675781 L 190.746094 301.675781 L 190.746094 252.726562 L 259.242188 252.726562 L 259.242188 301.675781 L 265.761719 301.675781 L 265.761719 171.195312 C 265.757812 169.914062 265.726562 168.632812 265.664062 167.355469 C 265.597656 166.078125 265.503906 164.800781 265.375 163.527344 C 265.25 162.25 265.089844 160.980469 264.902344 159.714844 C 264.714844 158.449219 264.492188 157.1875 264.242188 155.929688 C 263.992188 154.675781 263.710938 153.425781 263.398438 152.183594 C 263.085938 150.941406 262.742188 149.710938 262.371094 148.484375 C 262 147.257812 261.597656 146.042969 261.164062 144.839844 C 260.730469 143.632812 260.269531 142.4375 259.78125 141.257812 C 259.289062 140.074219 258.769531 138.902344 258.222656 137.746094 C 257.675781 136.589844 257.097656 135.445312 256.492188 134.316406 C 255.890625 133.1875 255.257812 132.074219 254.601562 130.976562 C 253.941406 129.878906 253.257812 128.796875 252.542969 127.730469 C 251.832031 126.667969 251.09375 125.621094 250.332031 124.59375 C 249.570312 123.5625 248.78125 122.554688 247.96875 121.566406 C 247.15625 120.574219 246.320312 119.605469 245.460938 118.65625 C 244.601562 117.707031 243.71875 116.78125 242.8125 115.875 C 241.90625 114.96875 240.980469 114.085938 240.03125 113.226562 C 239.082031 112.367188 238.113281 111.53125 237.125 110.71875 C 236.132812 109.90625 235.125 109.117188 234.097656 108.355469 C 233.070312 107.59375 232.023438 106.855469 230.957031 106.144531 C 229.894531 105.429688 228.8125 104.746094 227.714844 104.085938 C 226.617188 103.429688 225.503906 102.796875 224.375 102.191406 C 223.246094 101.589844 222.101562 101.011719 220.945312 100.464844 C 219.785156 99.917969 218.617188 99.398438 217.433594 98.90625 C 216.25 98.414062 215.058594 97.953125 213.851562 97.523438 C 212.648438 97.089844 211.433594 96.6875 210.207031 96.3125 C 208.980469 95.941406 207.746094 95.597656 206.507812 95.285156 C 205.265625 94.972656 204.015625 94.691406 202.761719 94.441406 C 201.503906 94.191406 200.242188 93.972656 198.976562 93.78125 C 197.710938 93.59375 196.441406 93.433594 195.164062 93.308594 C 193.890625 93.179688 192.613281 93.085938 191.335938 93.019531 C 190.058594 92.957031 188.777344 92.921875 187.496094 92.921875 Z M 187.496094 99.449219 C 189.394531 99.453125 191.289062 99.527344 193.179688 99.679688 C 195.070312 99.832031 196.953125 100.058594 198.828125 100.359375 C 200.699219 100.664062 202.558594 101.039062 204.402344 101.484375 C 206.246094 101.933594 208.066406 102.453125 209.871094 103.046875 C 211.671875 103.640625 213.449219 104.304688 215.199219 105.035156 C 216.949219 105.769531 218.667969 106.570312 220.351562 107.441406 C 222.039062 108.3125 223.6875 109.246094 225.300781 110.246094 C 226.914062 111.246094 228.484375 112.308594 230.011719 113.433594 C 231.539062 114.558594 233.019531 115.742188 234.453125 116.980469 C 235.890625 118.222656 237.273438 119.519531 238.605469 120.871094 C 239.9375 122.222656 241.210938 123.625 242.433594 125.078125 C 243.652344 126.53125 244.816406 128.027344 245.917969 129.570312 C 247.019531 131.117188 248.058594 132.703125 249.035156 134.328125 C 250.011719 135.957031 250.921875 137.617188 251.769531 139.316406 C 252.613281 141.015625 253.390625 142.746094 254.097656 144.503906 C 254.804688 146.265625 255.441406 148.050781 256.007812 149.863281 L 115.75 243.367188 L 115.75 171.195312 C 115.753906 170.019531 115.78125 168.847656 115.84375 167.675781 C 115.902344 166.503906 115.988281 165.332031 116.105469 164.164062 C 116.21875 162.996094 116.363281 161.832031 116.539062 160.671875 C 116.710938 159.511719 116.914062 158.355469 117.144531 157.203125 C 117.375 156.050781 117.632812 154.90625 117.917969 153.769531 C 118.203125 152.628906 118.515625 151.5 118.859375 150.375 C 119.199219 149.253906 119.570312 148.140625 119.964844 147.035156 C 120.359375 145.929688 120.785156 144.835938 121.234375 143.75 C 121.683594 142.667969 122.160156 141.59375 122.664062 140.535156 C 123.164062 139.472656 123.691406 138.425781 124.246094 137.390625 C 124.800781 136.355469 125.378906 135.332031 125.984375 134.328125 C 126.585938 133.320312 127.214844 132.328125 127.867188 131.351562 C 128.519531 130.378906 129.195312 129.417969 129.894531 128.476562 C 130.59375 127.53125 131.316406 126.609375 132.0625 125.699219 C 132.804688 124.792969 133.574219 123.90625 134.359375 123.035156 C 135.148438 122.164062 135.957031 121.316406 136.789062 120.484375 C 137.617188 119.65625 138.46875 118.847656 139.335938 118.058594 C 140.207031 117.269531 141.097656 116.503906 142.003906 115.757812 C 142.910156 115.015625 143.835938 114.292969 144.777344 113.59375 C 145.722656 112.894531 146.679688 112.21875 147.65625 111.566406 C 148.632812 110.914062 149.621094 110.285156 150.628906 109.679688 C 151.636719 109.078125 152.65625 108.496094 153.691406 107.945312 C 154.726562 107.390625 155.773438 106.863281 156.835938 106.359375 C 157.898438 105.855469 158.96875 105.382812 160.054688 104.929688 C 161.136719 104.480469 162.230469 104.058594 163.335938 103.664062 C 164.441406 103.265625 165.554688 102.898438 166.679688 102.554688 C 167.800781 102.214844 168.933594 101.902344 170.070312 101.613281 C 171.210938 101.328125 172.355469 101.070312 173.503906 100.839844 C 174.65625 100.609375 175.8125 100.410156 176.972656 100.234375 C 178.132812 100.0625 179.300781 99.917969 180.46875 99.800781 C 181.636719 99.6875 182.804688 99.597656 183.976562 99.539062 C 185.148438 99.480469 186.324219 99.449219 187.496094 99.449219 Z M 123.261719 246.199219 L 184.265625 205.554688 L 184.265625 246.199219 Z M 190.757812 246.199219 L 190.757812 201.207031 L 257.734375 156.554688 C 258.742188 161.382812 259.242188 166.261719 259.242188 171.195312 L 259.242188 246.199219 Z M 190.757812 246.199219 " fill-opacity="1" fill-rule="nonzero"/></g><g clip-path="url(#d265690c2f)"><path fill="#ffffff" d="M 187.496094 73.359375 C 185.894531 73.359375 184.296875 73.402344 182.699219 73.480469 C 181.097656 73.5625 179.503906 73.679688 177.910156 73.839844 C 176.316406 73.996094 174.730469 74.195312 173.148438 74.429688 C 171.5625 74.667969 169.988281 74.941406 168.417969 75.253906 C 166.847656 75.570312 165.285156 75.921875 163.734375 76.3125 C 162.183594 76.699219 160.640625 77.128906 159.109375 77.59375 C 157.578125 78.058594 156.058594 78.5625 154.550781 79.101562 C 153.042969 79.644531 151.550781 80.21875 150.074219 80.832031 C 148.59375 81.445312 147.132812 82.097656 145.683594 82.78125 C 144.238281 83.464844 142.808594 84.1875 141.398438 84.941406 C 139.988281 85.695312 138.59375 86.484375 137.222656 87.308594 C 135.847656 88.132812 134.496094 88.988281 133.167969 89.878906 C 131.835938 90.769531 130.527344 91.691406 129.242188 92.644531 C 127.957031 93.597656 126.695312 94.582031 125.457031 95.597656 C 124.222656 96.613281 123.007812 97.660156 121.824219 98.734375 C 120.636719 99.808594 119.480469 100.914062 118.347656 102.042969 C 117.214844 103.175781 116.113281 104.335938 115.035156 105.519531 C 113.960938 106.707031 112.917969 107.917969 111.902344 109.15625 C 110.886719 110.394531 109.898438 111.65625 108.945312 112.941406 C 107.992188 114.226562 107.070312 115.535156 106.179688 116.863281 C 105.292969 118.195312 104.433594 119.546875 103.613281 120.917969 C 102.789062 122.292969 102 123.683594 101.242188 125.09375 C 100.488281 126.507812 99.769531 127.9375 99.082031 129.382812 C 98.398438 130.828125 97.75 132.292969 97.136719 133.769531 C 96.523438 135.25 95.945312 136.742188 95.40625 138.25 C 94.867188 139.753906 94.363281 141.273438 93.898438 142.804688 C 93.429688 144.335938 93.003906 145.878906 92.613281 147.433594 C 92.222656 148.984375 91.871094 150.546875 91.558594 152.113281 C 91.246094 153.683594 90.96875 155.261719 90.734375 156.84375 C 90.496094 158.425781 90.300781 160.015625 90.140625 161.609375 C 89.984375 163.199219 89.863281 164.796875 89.785156 166.394531 C 89.703125 167.992188 89.664062 169.59375 89.660156 171.195312 L 89.660156 301.675781 L 96.179688 301.675781 L 96.179688 171.195312 C 96.164062 169.691406 96.1875 168.1875 96.246094 166.683594 C 96.304688 165.183594 96.402344 163.683594 96.535156 162.183594 C 96.671875 160.6875 96.839844 159.191406 97.046875 157.703125 C 97.253906 156.214844 97.5 154.730469 97.78125 153.253906 C 98.0625 151.777344 98.378906 150.308594 98.730469 148.84375 C 99.085938 147.382812 99.472656 145.929688 99.898438 144.488281 C 100.324219 143.046875 100.785156 141.617188 101.28125 140.195312 C 101.777344 138.777344 102.308594 137.371094 102.871094 135.976562 C 103.4375 134.582031 104.035156 133.203125 104.671875 131.839844 C 105.304688 130.476562 105.96875 129.128906 106.671875 127.796875 C 107.371094 126.464844 108.101562 125.152344 108.867188 123.859375 C 109.632812 122.5625 110.429688 121.289062 111.257812 120.035156 C 112.085938 118.777344 112.941406 117.542969 113.832031 116.332031 C 114.71875 115.117188 115.636719 113.925781 116.585938 112.761719 C 117.535156 111.59375 118.507812 110.449219 119.511719 109.328125 C 120.515625 108.210938 121.546875 107.117188 122.605469 106.046875 C 123.664062 104.980469 124.75 103.9375 125.859375 102.921875 C 126.96875 101.90625 128.101562 100.921875 129.261719 99.960938 C 130.417969 99.003906 131.601562 98.074219 132.804688 97.171875 C 134.007812 96.273438 135.234375 95.402344 136.480469 94.5625 C 137.730469 93.722656 138.996094 92.914062 140.285156 92.136719 C 141.570312 91.359375 142.875 90.613281 144.199219 89.898438 C 145.523438 89.1875 146.863281 88.507812 148.222656 87.859375 C 149.582031 87.214844 150.953125 86.601562 152.339844 86.023438 C 153.730469 85.441406 155.128906 84.898438 156.546875 84.390625 C 157.960938 83.878906 159.386719 83.40625 160.824219 82.964844 C 162.261719 82.527344 163.710938 82.125 165.167969 81.753906 C 166.628906 81.386719 168.09375 81.058594 169.566406 80.761719 C 171.042969 80.464844 172.523438 80.207031 174.011719 79.984375 C 175.5 79.765625 176.988281 79.578125 178.488281 79.429688 C 179.984375 79.28125 181.480469 79.171875 182.984375 79.097656 C 184.484375 79.023438 185.988281 78.984375 187.492188 78.984375 C 188.996094 78.984375 190.5 79.023438 192 79.097656 C 193.503906 79.171875 195.003906 79.28125 196.5 79.429688 C 197.996094 79.578125 199.488281 79.765625 200.972656 79.984375 C 202.460938 80.207031 203.941406 80.464844 205.417969 80.761719 C 206.890625 81.058594 208.359375 81.386719 209.816406 81.753906 C 211.273438 82.125 212.722656 82.527344 214.160156 82.964844 C 215.597656 83.40625 217.027344 83.878906 218.441406 84.390625 C 219.855469 84.898438 221.257812 85.441406 222.644531 86.023438 C 224.03125 86.601562 225.40625 87.214844 226.761719 87.859375 C 228.121094 88.507812 229.460938 89.1875 230.785156 89.898438 C 232.109375 90.613281 233.414062 91.359375 234.703125 92.136719 C 235.988281 92.914062 237.257812 93.722656 238.503906 94.5625 C 239.75 95.402344 240.976562 96.269531 242.179688 97.171875 C 243.386719 98.074219 244.566406 99.003906 245.726562 99.960938 C 246.882812 100.921875 248.015625 101.90625 249.125 102.921875 C 250.238281 103.9375 251.320312 104.980469 252.378906 106.046875 C 253.4375 107.117188 254.46875 108.210938 255.472656 109.328125 C 256.476562 110.449219 257.453125 111.59375 258.398438 112.761719 C 259.347656 113.925781 260.265625 115.117188 261.152344 116.332031 C 262.042969 117.542969 262.902344 118.777344 263.730469 120.035156 C 264.554688 121.289062 265.351562 122.5625 266.117188 123.859375 C 266.882812 125.152344 267.613281 126.464844 268.316406 127.796875 C 269.015625 129.128906 269.679688 130.476562 270.316406 131.839844 C 270.949219 133.203125 271.546875 134.582031 272.113281 135.976562 C 272.679688 137.371094 273.207031 138.777344 273.703125 140.195312 C 274.199219 141.617188 274.660156 143.046875 275.085938 144.488281 C 275.511719 145.929688 275.898438 147.382812 276.253906 148.84375 C 276.605469 150.308594 276.925781 151.777344 277.203125 153.253906 C 277.484375 154.730469 277.730469 156.214844 277.9375 157.703125 C 278.144531 159.191406 278.316406 160.6875 278.449219 162.183594 C 278.582031 163.683594 278.679688 165.183594 278.738281 166.683594 C 278.796875 168.1875 278.820312 169.691406 278.804688 171.195312 L 278.804688 301.675781 L 285.332031 301.675781 L 285.332031 171.195312 C 285.332031 169.59375 285.289062 167.996094 285.210938 166.394531 C 285.128906 164.796875 285.011719 163.203125 284.851562 161.609375 C 284.691406 160.015625 284.496094 158.425781 284.257812 156.84375 C 284.023438 155.261719 283.75 153.683594 283.433594 152.117188 C 283.121094 150.546875 282.769531 148.984375 282.378906 147.433594 C 281.988281 145.878906 281.5625 144.339844 281.09375 142.808594 C 280.628906 141.277344 280.125 139.757812 279.585938 138.25 C 279.046875 136.742188 278.46875 135.25 277.855469 133.773438 C 277.242188 132.292969 276.59375 130.832031 275.90625 129.382812 C 275.222656 127.9375 274.503906 126.507812 273.746094 125.097656 C 272.992188 123.6875 272.203125 122.292969 271.378906 120.921875 C 270.554688 119.546875 269.699219 118.195312 268.808594 116.867188 C 267.921875 115.535156 267 114.226562 266.042969 112.941406 C 265.089844 111.65625 264.105469 110.394531 263.089844 109.160156 C 262.074219 107.921875 261.03125 106.710938 259.953125 105.523438 C 258.878906 104.335938 257.777344 103.179688 256.644531 102.046875 C 255.511719 100.914062 254.355469 99.8125 253.167969 98.738281 C 251.980469 97.660156 250.769531 96.617188 249.53125 95.601562 C 248.296875 94.585938 247.035156 93.601562 245.75 92.648438 C 244.464844 91.691406 243.15625 90.769531 241.824219 89.882812 C 240.496094 88.992188 239.144531 88.136719 237.769531 87.3125 C 236.398438 86.488281 235.003906 85.699219 233.59375 84.945312 C 232.183594 84.1875 230.753906 83.46875 229.308594 82.785156 C 227.859375 82.097656 226.398438 81.449219 224.917969 80.835938 C 223.441406 80.222656 221.949219 79.644531 220.441406 79.105469 C 218.933594 78.566406 217.417969 78.0625 215.882812 77.597656 C 214.351562 77.128906 212.8125 76.703125 211.257812 76.3125 C 209.707031 75.921875 208.144531 75.570312 206.574219 75.257812 C 205.007812 74.945312 203.429688 74.667969 201.847656 74.433594 C 200.265625 74.195312 198.675781 74 197.082031 73.839844 C 195.492188 73.679688 193.894531 73.5625 192.296875 73.480469 C 190.695312 73.402344 189.097656 73.359375 187.496094 73.359375 Z M 187.496094 73.359375 " fill-opacity="1" fill-rule="nonzero"/></g></svg>