<svg xmlns="http://www.w3.org/2000/svg" xmlns:xlink="http://www.w3.org/1999/xlink" width="150" zoomAndPan="magnify" viewBox="0 0 112.5 149.999998" height="200" preserveAspectRatio="xMidYMid meet" version="1.0"><defs><clipPath id="420cf99ab0"><path d="M 18 29 L 91 29 L 91 125.816406 L 18 125.816406 Z M 18 29 " clip-rule="nonzero"/></clipPath><clipPath id="b06d485de2"><path d="M 9.441406 20.535156 L 99.789062 20.535156 L 99.789062 125.816406 L 9.441406 125.816406 Z M 9.441406 20.535156 " clip-rule="nonzero"/></clipPath></defs><g clip-path="url(#420cf99ab0)"><path fill="#ffffff" d="M 54.738281 29.578125 C 53.550781 29.582031 52.371094 29.640625 51.191406 29.757812 C 50.011719 29.875 48.839844 30.050781 47.679688 30.28125 C 46.515625 30.515625 45.367188 30.804688 44.234375 31.148438 C 43.101562 31.492188 41.988281 31.890625 40.890625 32.347656 C 39.796875 32.800781 38.726562 33.308594 37.683594 33.867188 C 36.636719 34.425781 35.625 35.035156 34.636719 35.691406 C 33.652344 36.351562 32.703125 37.054688 31.785156 37.808594 C 30.871094 38.558594 29.992188 39.355469 29.15625 40.191406 C 28.316406 41.03125 27.523438 41.90625 26.769531 42.824219 C 26.019531 43.738281 25.3125 44.691406 24.65625 45.675781 C 23.996094 46.660156 23.386719 47.675781 22.828125 48.71875 C 22.269531 49.765625 21.761719 50.835938 21.308594 51.929688 C 20.855469 53.023438 20.453125 54.140625 20.109375 55.273438 C 19.765625 56.40625 19.476562 57.554688 19.246094 58.714844 C 19.011719 59.878906 18.835938 61.050781 18.71875 62.226562 C 18.601562 63.40625 18.542969 64.589844 18.542969 65.773438 L 18.542969 126.113281 L 21.5625 126.113281 L 21.5625 103.476562 L 53.230469 103.476562 L 53.230469 126.113281 L 56.242188 126.113281 L 56.242188 103.476562 L 87.914062 103.476562 L 87.914062 126.113281 L 90.929688 126.113281 L 90.929688 65.773438 C 90.925781 64.589844 90.867188 63.40625 90.75 62.230469 C 90.632812 61.050781 90.457031 59.878906 90.226562 58.71875 C 89.992188 57.554688 89.707031 56.40625 89.359375 55.273438 C 89.015625 54.140625 88.617188 53.027344 88.164062 51.929688 C 87.707031 50.835938 87.203125 49.765625 86.644531 48.722656 C 86.082031 47.675781 85.476562 46.660156 84.816406 45.675781 C 84.15625 44.691406 83.453125 43.742188 82.699219 42.824219 C 81.949219 41.910156 81.15625 41.03125 80.316406 40.195312 C 79.480469 39.355469 78.601562 38.5625 77.6875 37.808594 C 76.769531 37.058594 75.820312 36.351562 74.835938 35.695312 C 73.847656 35.035156 72.835938 34.425781 71.789062 33.867188 C 70.746094 33.308594 69.675781 32.800781 68.582031 32.347656 C 67.488281 31.894531 66.371094 31.492188 65.238281 31.148438 C 64.105469 30.804688 62.957031 30.515625 61.796875 30.28125 C 60.632812 30.050781 59.460938 29.875 58.285156 29.757812 C 57.105469 29.640625 55.921875 29.582031 54.738281 29.578125 Z M 54.738281 32.597656 C 56.496094 32.601562 58.242188 32.742188 59.976562 33.019531 C 61.710938 33.300781 63.414062 33.714844 65.082031 34.261719 C 66.753906 34.8125 68.367188 35.488281 69.929688 36.292969 C 71.492188 37.097656 72.980469 38.023438 74.398438 39.066406 C 75.8125 40.105469 77.136719 41.253906 78.371094 42.503906 C 79.605469 43.757812 80.730469 45.097656 81.753906 46.527344 C 82.773438 47.957031 83.675781 49.460938 84.457031 51.035156 C 85.242188 52.609375 85.894531 54.234375 86.417969 55.910156 L 21.5625 99.148438 L 21.5625 65.773438 C 21.5625 64.6875 21.617188 63.605469 21.722656 62.523438 C 21.832031 61.441406 21.992188 60.371094 22.203125 59.304688 C 22.417969 58.238281 22.679688 57.1875 22.996094 56.148438 C 23.3125 55.109375 23.679688 54.085938 24.097656 53.085938 C 24.511719 52.082031 24.976562 51.101562 25.488281 50.144531 C 26 49.183594 26.558594 48.253906 27.164062 47.351562 C 27.765625 46.449219 28.414062 45.578125 29.101562 44.738281 C 29.792969 43.898438 30.519531 43.09375 31.289062 42.324219 C 32.058594 41.558594 32.859375 40.828125 33.699219 40.140625 C 34.539062 39.449219 35.410156 38.804688 36.3125 38.199219 C 37.21875 37.597656 38.148438 37.039062 39.105469 36.527344 C 40.0625 36.015625 41.042969 35.550781 42.046875 35.132812 C 43.050781 34.71875 44.070312 34.351562 45.109375 34.035156 C 46.148438 33.71875 47.203125 33.453125 48.265625 33.242188 C 49.332031 33.027344 50.40625 32.867188 51.488281 32.761719 C 52.566406 32.652344 53.652344 32.597656 54.738281 32.597656 Z M 25.035156 100.457031 L 53.242188 81.664062 L 53.242188 100.457031 Z M 56.246094 100.457031 L 56.246094 79.652344 L 87.214844 59.003906 C 87.683594 61.238281 87.914062 63.496094 87.914062 65.773438 L 87.914062 100.457031 Z M 56.246094 100.457031 " fill-opacity="1" fill-rule="nonzero"/></g><g clip-path="url(#b06d485de2)"><path fill="#ffffff" d="M 54.738281 20.535156 C 53.257812 20.535156 51.777344 20.609375 50.304688 20.753906 C 48.832031 20.902344 47.367188 21.121094 45.914062 21.410156 C 44.460938 21.699219 43.027344 22.0625 41.609375 22.492188 C 40.191406 22.921875 38.800781 23.421875 37.433594 23.988281 C 36.0625 24.558594 34.726562 25.191406 33.421875 25.890625 C 32.113281 26.589844 30.84375 27.347656 29.613281 28.171875 C 28.382812 28.996094 27.195312 29.878906 26.050781 30.816406 C 24.90625 31.757812 23.808594 32.75 22.761719 33.796875 C 21.714844 34.847656 20.71875 35.941406 19.78125 37.085938 C 18.839844 38.230469 17.957031 39.421875 17.136719 40.652344 C 16.3125 41.882812 15.550781 43.152344 14.851562 44.457031 C 14.152344 45.765625 13.519531 47.101562 12.953125 48.46875 C 12.386719 49.835938 11.886719 51.230469 11.453125 52.648438 C 11.023438 54.066406 10.664062 55.5 10.375 56.953125 C 10.082031 58.40625 9.863281 59.867188 9.71875 61.34375 C 9.570312 62.816406 9.496094 64.292969 9.496094 65.773438 L 9.496094 126.113281 L 12.511719 126.113281 L 12.511719 65.773438 C 12.496094 64.382812 12.550781 62.996094 12.675781 61.609375 C 12.800781 60.222656 12.992188 58.84375 13.25 57.480469 C 13.511719 56.113281 13.835938 54.761719 14.230469 53.425781 C 14.625 52.089844 15.082031 50.777344 15.605469 49.488281 C 16.128906 48.199219 16.714844 46.9375 17.363281 45.707031 C 18.007812 44.476562 18.714844 43.277344 19.480469 42.117188 C 20.25 40.957031 21.070312 39.835938 21.945312 38.753906 C 22.824219 37.671875 23.75 36.636719 24.730469 35.648438 C 25.710938 34.660156 26.734375 33.722656 27.808594 32.835938 C 28.878906 31.949219 29.992188 31.117188 31.148438 30.339844 C 32.300781 29.5625 33.492188 28.84375 34.714844 28.183594 C 35.941406 27.523438 37.195312 26.925781 38.480469 26.390625 C 39.765625 25.851562 41.074219 25.382812 42.402344 24.976562 C 43.734375 24.570312 45.082031 24.230469 46.445312 23.957031 C 47.8125 23.683594 49.1875 23.476562 50.570312 23.339844 C 51.957031 23.203125 53.34375 23.136719 54.734375 23.136719 C 56.125 23.136719 57.515625 23.203125 58.898438 23.339844 C 60.285156 23.476562 61.660156 23.683594 63.023438 23.957031 C 64.386719 24.230469 65.734375 24.570312 67.066406 24.976562 C 68.398438 25.382812 69.707031 25.851562 70.988281 26.390625 C 72.273438 26.925781 73.53125 27.523438 74.753906 28.183594 C 75.980469 28.84375 77.167969 29.5625 78.324219 30.339844 C 79.476562 31.117188 80.589844 31.949219 81.664062 32.835938 C 82.734375 33.722656 83.761719 34.660156 84.738281 35.648438 C 85.71875 36.636719 86.648438 37.671875 87.523438 38.753906 C 88.402344 39.835938 89.222656 40.957031 89.988281 42.117188 C 90.753906 43.277344 91.460938 44.476562 92.109375 45.707031 C 92.757812 46.9375 93.34375 48.199219 93.867188 49.488281 C 94.386719 50.777344 94.847656 52.089844 95.242188 53.425781 C 95.632812 54.761719 95.960938 56.113281 96.21875 57.480469 C 96.480469 58.84375 96.671875 60.222656 96.796875 61.609375 C 96.917969 62.996094 96.972656 64.382812 96.960938 65.773438 L 96.960938 126.113281 L 99.980469 126.113281 L 99.980469 65.773438 C 99.976562 64.292969 99.902344 62.816406 99.757812 61.34375 C 99.609375 59.867188 99.390625 58.40625 99.101562 56.953125 C 98.8125 55.5 98.449219 54.066406 98.019531 52.648438 C 97.589844 51.230469 97.089844 49.839844 96.519531 48.46875 C 95.953125 47.101562 95.320312 45.765625 94.621094 44.457031 C 93.921875 43.152344 93.160156 41.882812 92.339844 40.652344 C 91.515625 39.421875 90.632812 38.234375 89.695312 37.089844 C 88.753906 35.941406 87.761719 34.847656 86.710938 33.800781 C 85.664062 32.753906 84.570312 31.757812 83.425781 30.820312 C 82.277344 29.878906 81.089844 28.996094 79.859375 28.175781 C 78.628906 27.351562 77.359375 26.589844 76.054688 25.890625 C 74.746094 25.191406 73.410156 24.558594 72.042969 23.992188 C 70.675781 23.421875 69.28125 22.925781 67.863281 22.492188 C 66.445312 22.0625 65.011719 21.703125 63.558594 21.410156 C 62.105469 21.121094 60.644531 20.902344 59.171875 20.757812 C 57.695312 20.609375 56.21875 20.535156 54.738281 20.535156 Z M 54.738281 20.535156 " fill-opacity="1" fill-rule="nonzero"/></g></svg>